ISO-10303-21;
HEADER;
FILE_DESCRIPTION (( 'STEP AP203' ),
    '1' );
FILE_NAME ('SideKickstand_V07_185mm_8x28.STEP',
    '2026-08-26T08:21:34',
    ( '' ),
    ( '' ),
    'SwSTEP 2.0',
    'SolidWorks 2025',
    '' );
FILE_SCHEMA (( 'CONFIG_CONTROL_DESIGN' ));
ENDSEC;

DATA;
#1 = DIRECTION ( 'NONE',  ( 0.000000000000000000, 0.000000000000000000, -1.000000000000000000 ) ) ;
#2 = ORIENTED_EDGE ( 'NONE', *, *, #230, .T. ) ;
#3 = EDGE_CURVE ( 'NONE', #238, #295, #212, .T. ) ;
#4 = ORIENTED_EDGE ( 'NONE', *, *, #604, .F. ) ;
#5 = DIRECTION ( 'NONE',  ( 1.000000000000000000, 0.000000000000000000, 0.000000000000000000 ) ) ;
#6 = FACE_BOUND ( 'NONE', #18, .T. ) ;
#7 = CARTESIAN_POINT ( 'NONE',  ( 4.000000000000000000, -112.0000000000000142, -3.999999999999996447 ) ) ;
#8 = LOCAL_TIME ( 16, 21, 34.00000000000000000, #473 ) ;
#9 = VECTOR ( 'NONE', #730, 1000.000000000000000 ) ;
#10 = EDGE_CURVE ( 'NONE', #879, #47, #249, .T. ) ;
#11 = CARTESIAN_POINT ( 'NONE',  ( 4.000000000000000000, -75.00000000000000000, 11.09999999999999787 ) ) ;
#12 = CARTESIAN_POINT ( 'NONE',  ( -4.000000000000000000, -65.30127131734238333, 19.53333950050852863 ) ) ;
#13 = ORIENTED_EDGE ( 'NONE', *, *, #429, .T. ) ;
#14 = EDGE_CURVE ( 'NONE', #258, #805, #345, .T. ) ;
#15 = FACE_OUTER_BOUND ( 'NONE', #664, .T. ) ;
#16 = EDGE_CURVE ( 'NONE', #690, #779, #97, .T. ) ;
#17 = CARTESIAN_POINT ( 'NONE',  ( -4.000000000000000000, -95.00000000000000000, -7.266499161421592135 ) ) ;
#18 = EDGE_LOOP ( 'NONE', ( #294, #122 ) ) ;
#19 = ORIENTED_EDGE ( 'NONE', *, *, #291, .F. ) ;
#20 = LINE ( 'NONE', #659, #560 ) ;
#21 = CYLINDRICAL_SURFACE ( 'NONE', #349, 4.099999999999999645 ) ;
#22 = EDGE_CURVE ( 'NONE', #295, #74, #377, .T. ) ;
#23 = CARTESIAN_POINT ( 'NONE',  ( -4.000000000000000000, -65.30127131734238333, 27.73333950050852792 ) ) ;
#24 = AXIS2_PLACEMENT_3D ( 'NONE', #763, #460, #252 ) ;
#25 = ORIENTED_EDGE ( 'NONE', *, *, #878, .F. ) ;
#26 = APPROVAL_PERSON_ORGANIZATION ( #332, #81, #554 ) ;
#27 = PERSON_AND_ORGANIZATION_ROLE ( 'design_supplier' ) ;
#28 = AXIS2_PLACEMENT_3D ( 'NONE', #509, #718, #144 ) ;
#29 = VECTOR ( 'NONE', #185, 1000.000000000000000 ) ;
#30 = FACE_OUTER_BOUND ( 'NONE', #472, .T. ) ;
#31 = CARTESIAN_POINT ( 'NONE',  ( -4.000000000000000000, -112.0000000000000142, -44.00000000000000000 ) ) ;
#32 = ADVANCED_FACE ( 'NONE', ( #600 ), #163, .T. ) ;
#33 = ORIENTED_EDGE ( 'NONE', *, *, #719, .T. ) ;
#34 = APPROVAL_STATUS ( 'not_yet_approved' ) ;
#35 = LINE ( 'NONE', #707, #804 ) ;
#36 = DIRECTION ( 'NONE',  ( 0.000000000000000000, 0.000000000000000000, 1.000000000000000000 ) ) ;
#37 = EDGE_CURVE ( 'NONE', #202, #335, #386, .T. ) ;
#38 = ORIENTED_EDGE ( 'NONE', *, *, #236, .F. ) ;
#39 = DIRECTION ( 'NONE',  ( 0.000000000000000000, 0.000000000000000000, 1.000000000000000000 ) ) ;
#40 = PLANE ( 'NONE',  #923 ) ;
#41 = DIRECTION ( 'NONE',  ( -1.000000000000000000, -0.000000000000000000, -0.000000000000000000 ) ) ;
#42 = ORIENTED_EDGE ( 'NONE', *, *, #769, .T. ) ;
#43 = APPROVAL_STATUS ( 'not_yet_approved' ) ;
#44 = CIRCLE ( 'NONE', #649, 5.099999999999999645 ) ;
#45 = VECTOR ( 'NONE', #454, 1000.000000000000000 ) ;
#46 = DIRECTION ( 'NONE',  ( 1.000000000000000000, 0.000000000000000000, -0.000000000000000000 ) ) ;
#47 = VERTEX_POINT ( 'NONE', #884 ) ;
#48 = PERSON_AND_ORGANIZATION_ROLE ( 'creator' ) ;
#49 = LINE ( 'NONE', #268, #29 ) ;
#50 = FACE_BOUND ( 'NONE', #147, .T. ) ;
#51 = VERTEX_POINT ( 'NONE', #752 ) ;
#52 = CARTESIAN_POINT ( 'NONE',  ( -4.000000000000000000, -65.30127131734238333, 23.63333950050852650 ) ) ;
#53 = DIRECTION ( 'NONE',  ( 1.000000000000000000, 0.000000000000000000, -0.000000000000000000 ) ) ;
#54 = EDGE_LOOP ( 'NONE', ( #616, #393, #757, #874 ) ) ;
#55 = ORIENTED_EDGE ( 'NONE', *, *, #176, .F. ) ;
#56 = CARTESIAN_POINT ( 'NONE',  ( -4.000000000000000000, -109.0000000000000142, -8.000000000000000000 ) ) ;
#57 = LOCAL_TIME ( 16, 21, 34.00000000000000000, #324 ) ;
#58 = CARTESIAN_POINT ( 'NONE',  ( 0.000000000000000000, -103.5000000000000142, -44.00000000000000000 ) ) ;
#59 = ADVANCED_FACE ( 'NONE', ( #671 ), #87, .T. ) ;
#60 = VECTOR ( 'NONE', #935, 1000.000000000000000 ) ;
#61 = CYLINDRICAL_SURFACE ( 'NONE', #426, 5.099999999999999645 ) ;
#62 = DIRECTION ( 'NONE',  ( 1.000000000000000000, 0.000000000000000000, 0.000000000000000000 ) ) ;
#63 = ORIENTED_EDGE ( 'NONE', *, *, #88, .F. ) ;
#64 = DIRECTION ( 'NONE',  ( 0.000000000000000000, 0.000000000000000000, 1.000000000000000000 ) ) ;
#65 = DIRECTION ( 'NONE',  ( 0.000000000000000000, 0.000000000000000000, 1.000000000000000000 ) ) ;
#66 = ORIENTED_EDGE ( 'NONE', *, *, #755, .F. ) ;
#67 = LINE ( 'NONE', #203, #577 ) ;
#68 = CARTESIAN_POINT ( 'NONE',  ( 4.000000000000000000, 92.00000000000001421, -8.000000000000000000 ) ) ;
#69 = VERTEX_POINT ( 'NONE', #31 ) ;
#70 = VECTOR ( 'NONE', #801, 1000.000000000000000 ) ;
#71 = VERTEX_POINT ( 'NONE', #7 ) ;
#72 = FACE_OUTER_BOUND ( 'NONE', #635, .T. ) ;
#73 = CARTESIAN_POINT ( 'NONE',  ( -4.000000000000000000, -57.00000000000000000, 1.099999999999999423 ) ) ;
#74 = VERTEX_POINT ( 'NONE', #531 ) ;
#75 = ORIENTED_EDGE ( 'NONE', *, *, #502, .F. ) ;
#76 = CARTESIAN_POINT ( 'NONE',  ( 0.000000000000000000, 92.00000000000001421, 20.00000000000000000 ) ) ;
#77 = ORIENTED_EDGE ( 'NONE', *, *, #355, .T. ) ;
#78 = VERTEX_POINT ( 'NONE', #23 ) ;
#79 = FACE_OUTER_BOUND ( 'NONE', #151, .T. ) ;
#80 = DIRECTION ( 'NONE',  ( 0.000000000000000000, 0.000000000000000000, -1.000000000000000000 ) ) ;
#81 = APPROVAL ( #906, '未' ) ;
#82 = CARTESIAN_POINT ( 'NONE',  ( 3.000000000000000000, 93.50000000000000000, 14.00000000000000000 ) ) ;
#83 = APPROVAL_PERSON_ORGANIZATION ( #843, #835, #336 ) ;
#84 = AXIS2_PLACEMENT_3D ( 'NONE', #609, #374, #746 ) ;
#85 = DIRECTION ( 'NONE',  ( 0.000000000000000000, 0.000000000000000000, -1.000000000000000000 ) ) ;
#86 = CARTESIAN_POINT ( 'NONE',  ( 3.000000000000000000, 92.00000000000001421, -2.000000000000000000 ) ) ;
#87 = PLANE ( 'NONE',  #24 ) ;
#88 = EDGE_CURVE ( 'NONE', #805, #258, #44, .T. ) ;
#89 = ORIENTED_EDGE ( 'NONE', *, *, #37, .T. ) ;
#90 = DIRECTION ( 'NONE',  ( 0.000000000000000000, 0.000000000000000000, -1.000000000000000000 ) ) ;
#91 = LINE ( 'NONE', #76, #195 ) ;
#92 = ORIENTED_EDGE ( 'NONE', *, *, #451, .T. ) ;
#93 = VERTEX_POINT ( 'NONE', #237 ) ;
#94 = DIRECTION ( 'NONE',  ( -1.000000000000000000, -0.000000000000000000, 0.000000000000000000 ) ) ;
#95 = DIRECTION ( 'NONE',  ( 0.000000000000000000, 0.000000000000000000, 1.000000000000000000 ) ) ;
#96 = EDGE_CURVE ( 'NONE', #281, #652, #899, .T. ) ;
#97 = LINE ( 'NONE', #676, #724 ) ;
#98 = VECTOR ( 'NONE', #173, 1000.000000000000000 ) ;
#99 = ORIENTED_EDGE ( 'NONE', *, *, #672, .F. ) ;
#100 = DATE_AND_TIME ( #913, #8 ) ;
#101 = VECTOR ( 'NONE', #716, 1000.000000000000000 ) ;
#102 = AXIS2_PLACEMENT_3D ( 'NONE', #288, #211, #420 ) ;
#103 = EDGE_CURVE ( 'NONE', #789, #779, #314, .T. ) ;
#104 = CARTESIAN_POINT ( 'NONE',  ( 3.000000000000000000, 92.00000000000001421, -8.000000000000000000 ) ) ;
#105 = ORIENTED_EDGE ( 'NONE', *, *, #371, .F. ) ;
#106 = PERSON_AND_ORGANIZATION ( #284, #650 ) ;
#107 = FACE_BOUND ( 'NONE', #327, .T. ) ;
#108 = ORIENTED_EDGE ( 'NONE', *, *, #742, .F. ) ;
#109 =( LENGTH_UNIT ( ) NAMED_UNIT ( * ) SI_UNIT ( .MILLI., .METRE. ) );
#110 = CARTESIAN_POINT ( 'NONE',  ( 0.000000000000000000, 92.00000000000001421, -8.000000000000000000 ) ) ;
#111 = APPROVAL ( #34, '未' ) ;
#112 = ORIENTED_EDGE ( 'NONE', *, *, #208, .T. ) ;
#113 = EDGE_CURVE ( 'NONE', #779, #192, #741, .T. ) ;
#114 = DATE_TIME_ROLE ( 'creation_date' ) ;
#115 = VECTOR ( 'NONE', #400, 1000.000000000000000 ) ;
#116 = DIRECTION ( 'NONE',  ( 1.000000000000000000, 0.000000000000000000, 0.000000000000000000 ) ) ;
#117 = AXIS2_PLACEMENT_3D ( 'NONE', #599, #309, #523 ) ;
#118 = CARTESIAN_POINT ( 'NONE',  ( 3.000000000000000000, 93.50000000000000000, -2.000000000000000000 ) ) ;
#119 = VECTOR ( 'NONE', #875, 1000.000000000000000 ) ;
#120 = ORIENTED_EDGE ( 'NONE', *, *, #585, .F. ) ;
#121 = EDGE_CURVE ( 'NONE', #335, #690, #310, .T. ) ;
#122 = ORIENTED_EDGE ( 'NONE', *, *, #299, .F. ) ;
#123 = CARTESIAN_POINT ( 'NONE',  ( -4.000000000000000000, -55.50641131038207021, -8.000000000000000000 ) ) ;
#124 = DIRECTION ( 'NONE',  ( 0.000000000000000000, 0.000000000000000000, -1.000000000000000000 ) ) ;
#125 = EDGE_LOOP ( 'NONE', ( #940, #279, #272, #112 ) ) ;
#126 = ORIENTED_EDGE ( 'NONE', *, *, #153, .F. ) ;
#127 = CARTESIAN_POINT ( 'NONE',  ( 4.000000000000000000, -103.5000000000000142, -3.999999999999996447 ) ) ;
#128 = CARTESIAN_POINT ( 'NONE',  ( -4.000000000000000000, -95.00000000000000000, -44.00000000000000000 ) ) ;
#129 = EDGE_CURVE ( 'NONE', #74, #681, #226, .T. ) ;
#130 = DIRECTION ( 'NONE',  ( 1.000000000000000000, 0.000000000000000000, 0.000000000000000000 ) ) ;
#131 = VECTOR ( 'NONE', #623, 1000.000000000000000 ) ;
#132 = CARTESIAN_POINT ( 'NONE',  ( -4.000000000000000000, -112.0000000000000142, -44.00000000000000000 ) ) ;
#133 = VECTOR ( 'NONE', #478, 1000.000000000000000 ) ;
#134 = AXIS2_PLACEMENT_3D ( 'NONE', #427, #215, #508 ) ;
#135 = ORIENTED_EDGE ( 'NONE', *, *, #343, .F. ) ;
#136 = DIRECTION ( 'NONE',  ( 0.000000000000000000, 1.000000000000000000, 0.000000000000000000 ) ) ;
#137 = DIRECTION ( 'NONE',  ( -0.000000000000000000, 0.000000000000000000, -1.000000000000000000 ) ) ;
#138 = ORIENTED_EDGE ( 'NONE', *, *, #761, .T. ) ;
#139 = DIRECTION ( 'NONE',  ( -1.000000000000000000, -0.000000000000000000, -0.000000000000000000 ) ) ;
#140 = FACE_OUTER_BOUND ( 'NONE', #331, .T. ) ;
#141 = ORIENTED_EDGE ( 'NONE', *, *, #201, .T. ) ;
#142 = ORIENTED_EDGE ( 'NONE', *, *, #855, .F. ) ;
#143 = CARTESIAN_POINT ( 'NONE',  ( 0.000000000000000000, 93.50000000000000000, -2.000000000000000000 ) ) ;
#144 = DIRECTION ( 'NONE',  ( 0.000000000000000000, 0.000000000000000000, 1.000000000000000000 ) ) ;
#145 = CC_DESIGN_APPROVAL ( #835, ( #837 ) ) ;
#146 = APPROVAL_PERSON_ORGANIZATION ( #106, #111, #771 ) ;
#147 = EDGE_LOOP ( 'NONE', ( #206, #63 ) ) ;
#148 = AXIS2_PLACEMENT_3D ( 'NONE', #798, #932, #424 ) ;
#149 = CIRCLE ( 'NONE', #669, 24.00000000000000000 ) ;
#150 = VECTOR ( 'NONE', #136, 1000.000000000000000 ) ;
#151 = EDGE_LOOP ( 'NONE', ( #175, #758, #339, #821 ) ) ;
#152 = CYLINDRICAL_SURFACE ( 'NONE', #375, 4.099999999999999645 ) ;
#153 = EDGE_CURVE ( 'NONE', #842, #281, #840, .T. ) ;
#154 = CARTESIAN_POINT ( 'NONE',  ( -4.000000000000000000, -75.00000000000000000, 11.09999999999999787 ) ) ;
#155 = ORIENTED_EDGE ( 'NONE', *, *, #121, .T. ) ;
#156 = DIRECTION ( 'NONE',  ( 0.000000000000000000, 0.000000000000000000, -1.000000000000000000 ) ) ;
#157 = FACE_OUTER_BOUND ( 'NONE', #925, .T. ) ;
#158 = ADVANCED_FACE ( 'NONE', ( #396 ), #689, .T. ) ;
#159 = DIRECTION ( 'NONE',  ( 0.000000000000000000, 0.000000000000000000, 1.000000000000000000 ) ) ;
#160 = ORIENTED_EDGE ( 'NONE', *, *, #22, .F. ) ;
#161 = DIRECTION ( 'NONE',  ( -0.000000000000000000, 1.000000000000000000, 0.000000000000000000 ) ) ;
#162 = CARTESIAN_POINT ( 'NONE',  ( -4.299999999999999822, -65.30127131734238333, 23.63333950050852650 ) ) ;
#163 = PLANE ( 'NONE',  #445 ) ;
#164 = ADVANCED_FACE ( 'NONE', ( #559 ), #329, .T. ) ;
#165 = AXIS2_PLACEMENT_3D ( 'NONE', #418, #572, #721 ) ;
#166 = AXIS2_PLACEMENT_3D ( 'NONE', #177, #766, #395 ) ;
#167 = DIRECTION ( 'NONE',  ( 0.000000000000000000, 0.000000000000000000, 1.000000000000000000 ) ) ;
#168 = LINE ( 'NONE', #675, #466 ) ;
#169 = CARTESIAN_POINT ( 'NONE',  ( -3.000000000000000000, 93.50000000000000000, -2.000000000000000000 ) ) ;
#170 = ORIENTED_EDGE ( 'NONE', *, *, #422, .T. ) ;
#171 = DIRECTION ( 'NONE',  ( 1.000000000000000000, 0.000000000000000000, 0.000000000000000000 ) ) ;
#172 = LINE ( 'NONE', #17, #908 ) ;
#173 = DIRECTION ( 'NONE',  ( 0.000000000000000000, 0.000000000000000000, 1.000000000000000000 ) ) ;
#174 = PRODUCT ( 'SideKickstand_V07_185mm_8x28', 'SideKickstand_V07_185mm_8x28', '', ( #477 ) ) ;
#175 = ORIENTED_EDGE ( 'NONE', *, *, #3, .T. ) ;
#176 = EDGE_CURVE ( 'NONE', #210, #770, #852, .T. ) ;
#177 = CARTESIAN_POINT ( 'NONE',  ( -4.000000000000000000, -75.00000000000000000, 6.000000000000000000 ) ) ;
#178 = DIRECTION ( 'NONE',  ( -0.000000000000000000, 1.000000000000000000, 0.000000000000000000 ) ) ;
#179 = ORIENTED_EDGE ( 'NONE', *, *, #464, .F. ) ;
#180 =( NAMED_UNIT ( * ) SI_UNIT ( $, .STERADIAN. ) SOLID_ANGLE_UNIT ( ) );
#181 = VECTOR ( 'NONE', #240, 1000.000000000000000 ) ;
#182 = LINE ( 'NONE', #471, #576 ) ;
#183 = ORIENTED_EDGE ( 'NONE', *, *, #562, .F. ) ;
#184 = PERSON_AND_ORGANIZATION_ROLE ( 'classification_officer' ) ;
#185 = DIRECTION ( 'NONE',  ( 1.000000000000000000, 0.000000000000000000, 0.000000000000000000 ) ) ;
#186 = FACE_OUTER_BOUND ( 'NONE', #849, .T. ) ;
#187 = EDGE_CURVE ( 'NONE', #78, #218, #182, .T. ) ;
#188 = EDGE_LOOP ( 'NONE', ( #92, #566, #834, #364 ) ) ;
#189 = CARTESIAN_POINT ( 'NONE',  ( 0.000000000000000000, 0.000000000000000000, 0.000000000000000000 ) ) ;
#190 = CARTESIAN_POINT ( 'NONE',  ( 3.000000000000000000, 92.00000000000001421, 13.99999999999999822 ) ) ;
#191 = ADVANCED_FACE ( 'NONE', ( #107, #488, #50, #326 ), #637, .T. ) ;
#192 = VERTEX_POINT ( 'NONE', #190 ) ;
#193 = PERSON_AND_ORGANIZATION ( #284, #650 ) ;
#194 = VECTOR ( 'NONE', #361, 1000.000000000000000 ) ;
#195 = VECTOR ( 'NONE', #817, 1000.000000000000000 ) ;
#196 = CARTESIAN_POINT ( 'NONE',  ( 0.000000000000000000, -109.0000000000000142, -19.99999999999999645 ) ) ;
#197 = AXIS2_PLACEMENT_3D ( 'NONE', #513, #94, #822 ) ;
#198 = CC_DESIGN_PERSON_AND_ORGANIZATION_ASSIGNMENT ( #695, #48, ( #796 ) ) ;
#199 = EDGE_CURVE ( 'NONE', #916, #858, #904, .T. ) ;
#200 = ORIENTED_EDGE ( 'NONE', *, *, #742, .T. ) ;
#201 = EDGE_CURVE ( 'NONE', #192, #495, #778, .T. ) ;
#202 = VERTEX_POINT ( 'NONE', #412 ) ;
#203 = CARTESIAN_POINT ( 'NONE',  ( 0.000000000000000000, 92.00000000000001421, 13.99999999999999822 ) ) ;
#204 = DIRECTION ( 'NONE',  ( 1.000000000000000000, 0.000000000000000000, 0.000000000000000000 ) ) ;
#205 = UNCERTAINTY_MEASURE_WITH_UNIT (LENGTH_MEASURE( 1.000000000000000082E-05 ), #109, 'distance_accuracy_value', 'NONE');
#206 = ORIENTED_EDGE ( 'NONE', *, *, #14, .F. ) ;
#207 = CARTESIAN_POINT ( 'NONE',  ( -4.000000000000000000, -75.00000000000000000, 6.000000000000000000 ) ) ;
#208 = EDGE_CURVE ( 'NONE', #846, #612, #845, .T. ) ;
#209 = DIRECTION ( 'NONE',  ( -1.000000000000000000, 0.000000000000000000, 0.000000000000000000 ) ) ;
#210 = VERTEX_POINT ( 'NONE', #278 ) ;
#211 = DIRECTION ( 'NONE',  ( 1.000000000000000000, 0.000000000000000000, 0.000000000000000000 ) ) ;
#212 = CIRCLE ( 'NONE', #546, 4.099999999999999645 ) ;
#213 = LINE ( 'NONE', #421, #194 ) ;
#214 = AXIS2_PLACEMENT_3D ( 'NONE', #321, #898, #515 ) ;
#215 = DIRECTION ( 'NONE',  ( -0.000000000000000000, 1.000000000000000000, 0.000000000000000000 ) ) ;
#216 = DIRECTION ( 'NONE',  ( 0.000000000000000000, -1.000000000000000000, -0.000000000000000000 ) ) ;
#217 = EDGE_CURVE ( 'NONE', #253, #258, #256, .T. ) ;
#218 = VERTEX_POINT ( 'NONE', #910 ) ;
#219 = DIRECTION ( 'NONE',  ( 1.000000000000000000, 0.000000000000000000, -0.000000000000000000 ) ) ;
#220 = CARTESIAN_POINT ( 'NONE',  ( -4.000000000000000000, -55.50641131038207021, 20.00000000000000000 ) ) ;
#221 = VERTEX_POINT ( 'NONE', #555 ) ;
#222 = ADVANCED_FACE ( 'NONE', ( #186 ), #708, .F. ) ;
#223 = EDGE_LOOP ( 'NONE', ( #75, #398, #267, #885 ) ) ;
#224 = DIRECTION ( 'NONE',  ( 0.000000000000000000, 0.000000000000000000, -1.000000000000000000 ) ) ;
#225 = CARTESIAN_POINT ( 'NONE',  ( -4.000000000000000000, -75.00000000000000000, -18.00000000000000355 ) ) ;
#226 = CIRCLE ( 'NONE', #759, 4.099999999999999645 ) ;
#227 = ORIENTED_EDGE ( 'NONE', *, *, #208, .F. ) ;
#228 = AXIS2_PLACEMENT_3D ( 'NONE', #865, #62, #928 ) ;
#229 = CARTESIAN_POINT ( 'NONE',  ( 4.000000000000000000, -55.50641131038207021, 20.00000000000000000 ) ) ;
#230 = EDGE_CURVE ( 'NONE', #351, #863, #334, .T. ) ;
#231 = LINE ( 'NONE', #756, #416 ) ;
#232 = DIRECTION ( 'NONE',  ( 1.000000000000000000, 0.000000000000000000, -0.000000000000000000 ) ) ;
#233 = ORIENTED_EDGE ( 'NONE', *, *, #924, .T. ) ;
#234 = CARTESIAN_POINT ( 'NONE',  ( 4.000000000000000000, 92.00000000000001421, 20.00000000000000000 ) ) ;
#235 = FACE_OUTER_BOUND ( 'NONE', #785, .T. ) ;
#236 = EDGE_CURVE ( 'NONE', #681, #74, #360, .T. ) ;
#237 = CARTESIAN_POINT ( 'NONE',  ( 4.000000000000000000, -73.07580931444068995, 29.92274002294902147 ) ) ;
#238 = VERTEX_POINT ( 'NONE', #262 ) ;
#239 = DIRECTION ( 'NONE',  ( 0.000000000000000000, 0.000000000000000000, 1.000000000000000000 ) ) ;
#240 = DIRECTION ( 'NONE',  ( 0.000000000000000000, -1.000000000000000000, -0.000000000000000000 ) ) ;
#241 = EDGE_CURVE ( 'NONE', #926, #842, #773, .T. ) ;
#242 = ORIENTED_EDGE ( 'NONE', *, *, #113, .T. ) ;
#243 = CIRCLE ( 'NONE', #654, 4.099999999999999645 ) ;
#244 = AXIS2_PLACEMENT_3D ( 'NONE', #58, #137, #209 ) ;
#245 = EDGE_LOOP ( 'NONE', ( #596, #722, #658, #517 ) ) ;
#246 = DIRECTION ( 'NONE',  ( -1.000000000000000000, -0.000000000000000000, -0.000000000000000000 ) ) ;
#247 = PRODUCT_DEFINITION_SHAPE ( 'NONE', 'NONE',  #796 ) ;
#248 = CARTESIAN_POINT ( 'NONE',  ( -4.000000000000000000, -75.00000000000000000, 6.000000000000000000 ) ) ;
#249 = LINE ( 'NONE', #605, #481 ) ;
#250 = ORIENTED_EDGE ( 'NONE', *, *, #355, .F. ) ;
#251 = CARTESIAN_POINT ( 'NONE',  ( 0.000000000000000000, 92.00000000000001421, -2.000000000000000000 ) ) ;
#252 = DIRECTION ( 'NONE',  ( 0.000000000000000000, -0.000000000000000000, 1.000000000000000000 ) ) ;
#253 = VERTEX_POINT ( 'NONE', #479 ) ;
#254 = DATE_AND_TIME ( #617, #57 ) ;
#255 = DIRECTION ( 'NONE',  ( -1.000000000000000000, -0.000000000000000000, 0.000000000000000000 ) ) ;
#256 = LINE ( 'NONE', #410, #640 ) ;
#257 = CIRCLE ( 'NONE', #376, 10.00000000000000000 ) ;
#258 = VERTEX_POINT ( 'NONE', #655 ) ;
#259 = VECTOR ( 'NONE', #541, 1000.000000000000000 ) ;
#260 = CIRCLE ( 'NONE', #624, 24.00000000000000000 ) ;
#261 = DIRECTION ( 'NONE',  ( 1.000000000000000000, 0.000000000000000000, 0.000000000000000000 ) ) ;
#262 = CARTESIAN_POINT ( 'NONE',  ( -4.000000000000000000, -57.00000000000000000, -7.099999999999999645 ) ) ;
#263 = ORIENTED_EDGE ( 'NONE', *, *, #397, .F. ) ;
#264 = CARTESIAN_POINT ( 'NONE',  ( -4.000000000000000000, -103.5000000000000142, -3.999999999999996447 ) ) ;
#265 = ADVANCED_FACE ( 'NONE', ( #293 ), #788, .T. ) ;
#266 = DIRECTION ( 'NONE',  ( 0.000000000000000000, -1.000000000000000000, -0.000000000000000000 ) ) ;
#267 = ORIENTED_EDGE ( 'NONE', *, *, #153, .T. ) ;
#268 = CARTESIAN_POINT ( 'NONE',  ( -4.299999999999999822, -75.00000000000000000, 11.09999999999999787 ) ) ;
#269 = DIRECTION ( 'NONE',  ( 1.000000000000000000, 0.000000000000000000, 0.000000000000000000 ) ) ;
#270 = CC_DESIGN_PERSON_AND_ORGANIZATION_ASSIGNMENT ( #388, #27, ( #837 ) ) ;
#271 = EDGE_CURVE ( 'NONE', #253, #467, #514, .T. ) ;
#272 = ORIENTED_EDGE ( 'NONE', *, *, #328, .T. ) ;
#273 = VECTOR ( 'NONE', #747, 1000.000000000000000 ) ;
#274 = VECTOR ( 'NONE', #216, 1000.000000000000000 ) ;
#275 = ORIENTED_EDGE ( 'NONE', *, *, #3, .F. ) ;
#276 = PLANE ( 'NONE',  #409 ) ;
#277 = VECTOR ( 'NONE', #909, 1000.000000000000000 ) ;
#278 = CARTESIAN_POINT ( 'NONE',  ( 4.000000000000000000, 92.00000000000001421, -8.000000000000000000 ) ) ;
#279 = ORIENTED_EDGE ( 'NONE', *, *, #199, .F. ) ;
#280 = ADVANCED_FACE ( 'NONE', ( #297 ), #588, .F. ) ;
#281 = VERTEX_POINT ( 'NONE', #220 ) ;
#282 = DIRECTION ( 'NONE',  ( 0.000000000000000000, 0.000000000000000000, -1.000000000000000000 ) ) ;
#283 = CARTESIAN_POINT ( 'NONE',  ( -3.000000000000000000, 92.00000000000001421, 13.99999999999999822 ) ) ;
#284 = PERSON ( '未', '未', '未', ('未'), ('未'), ('未') ) ;
#285 = CARTESIAN_POINT ( 'NONE',  ( 4.000000000000000000, -75.00000000000000000, 6.000000000000000000 ) ) ;
#286 = LINE ( 'NONE', #876, #70 ) ;
#287 = CC_DESIGN_PERSON_AND_ORGANIZATION_ASSIGNMENT ( #394, #558, ( #837 ) ) ;
#288 = CARTESIAN_POINT ( 'NONE',  ( -4.000000000000000000, -75.00000000000000000, 6.000000000000000000 ) ) ;
#289 = VECTOR ( 'NONE', #645, 1000.000000000000000 ) ;
#290 = LINE ( 'NONE', #505, #274 ) ;
#291 = EDGE_CURVE ( 'NONE', #511, #51, #583, .T. ) ;
#292 = CARTESIAN_POINT ( 'NONE',  ( 0.000000000000000000, 4.500000000000000888, 20.00000000000000000 ) ) ;
#293 = FACE_OUTER_BOUND ( 'NONE', #919, .T. ) ;
#294 = ORIENTED_EDGE ( 'NONE', *, *, #628, .F. ) ;
#295 = VERTEX_POINT ( 'NONE', #73 ) ;
#296 = DIRECTION ( 'NONE',  ( 0.000000000000000000, 0.000000000000000000, -1.000000000000000000 ) ) ;
#297 = FACE_OUTER_BOUND ( 'NONE', #125, .T. ) ;
#298 = ORIENTED_EDGE ( 'NONE', *, *, #533, .T. ) ;
#299 = EDGE_CURVE ( 'NONE', #78, #411, #482, .T. ) ;
#300 = CARTESIAN_POINT ( 'NONE',  ( 4.000000000000000000, -109.0000000000000142, -44.00000000000000000 ) ) ;
#301 = LINE ( 'NONE', #536, #45 ) ;
#302 = DIRECTION ( 'NONE',  ( 1.000000000000000000, 0.000000000000000000, -0.000000000000000000 ) ) ;
#303 = EDGE_CURVE ( 'NONE', #433, #93, #286, .T. ) ;
#304 = ORIENTED_EDGE ( 'NONE', *, *, #490, .T. ) ;
#305 = PLANE ( 'NONE',  #851 ) ;
#306 = DIRECTION ( 'NONE',  ( 1.000000000000000000, 0.000000000000000000, 0.000000000000000000 ) ) ;
#307 = EDGE_LOOP ( 'NONE', ( #38, #800 ) ) ;
#308 = CARTESIAN_POINT ( 'NONE',  ( 4.000000000000000000, -65.30127131734238333, 23.63333950050852650 ) ) ;
#309 = DIRECTION ( 'NONE',  ( -0.000000000000000000, 0.000000000000000000, -1.000000000000000000 ) ) ;
#310 = LINE ( 'NONE', #888, #638 ) ;
#311 = CARTESIAN_POINT ( 'NONE',  ( 4.000000000000000000, -95.00000000000000000, -19.99999999999999645 ) ) ;
#312 = CARTESIAN_POINT ( 'NONE',  ( -4.000000000000000000, -73.07580931444068995, 29.92274002294902147 ) ) ;
#313 = EDGE_CURVE ( 'NONE', #897, #510, #213, .T. ) ;
#314 = LINE ( 'NONE', #465, #561 ) ;
#315 = AXIS2_PLACEMENT_3D ( 'NONE', #745, #597, #224 ) ;
#316 = CLOSED_SHELL ( 'NONE', ( #930, #814, #736, #787, #367, #544, #712, #539, #359, #470, #191, #524, #32, #729, #656, #164, #639, #859, #158, #844, #59, #265, #401, #280, #222, #808, #484 ) ) ;
#317 = VECTOR ( 'NONE', #124, 1000.000000000000000 ) ;
#318 = AXIS2_PLACEMENT_3D ( 'NONE', #285, #715, #870 ) ;
#319 = ORIENTED_EDGE ( 'NONE', *, *, #464, .T. ) ;
#320 = PERSON_AND_ORGANIZATION_ROLE ( 'design_owner' ) ;
#321 = CARTESIAN_POINT ( 'NONE',  ( 0.000000000000000000, 93.50000000000000000, 14.00000000000000000 ) ) ;
#322 = DIRECTION ( 'NONE',  ( 0.000000000000000000, 0.000000000000000000, 1.000000000000000000 ) ) ;
#323 = ORIENTED_EDGE ( 'NONE', *, *, #896, .T. ) ;
#324 = COORDINATED_UNIVERSAL_TIME_OFFSET ( 8, 0, .AHEAD. ) ;
#325 = DIRECTION ( 'NONE',  ( 0.000000000000000000, -1.000000000000000000, -0.000000000000000000 ) ) ;
#326 = FACE_OUTER_BOUND ( 'NONE', #534, .T. ) ;
#327 = EDGE_LOOP ( 'NONE', ( #553, #680 ) ) ;
#328 = EDGE_CURVE ( 'NONE', #916, #846, #938, .T. ) ;
#329 = PLANE ( 'NONE',  #530 ) ;
#330 = LOCAL_TIME ( 16, 21, 34.00000000000000000, #626 ) ;
#331 = EDGE_LOOP ( 'NONE', ( #42, #298, #667, #372 ) ) ;
#332 = PERSON_AND_ORGANIZATION ( #284, #650 ) ;
#333 = AXIS2_PLACEMENT_3D ( 'NONE', #52, #341, #469 ) ;
#334 = LINE ( 'NONE', #547, #115 ) ;
#335 = VERTEX_POINT ( 'NONE', #283 ) ;
#336 = APPROVAL_ROLE ( '' ) ;
#337 = CARTESIAN_POINT ( 'NONE',  ( -3.000000000000000000, 93.50000000000000000, -2.000000000000000000 ) ) ;
#338 = CARTESIAN_POINT ( 'NONE',  ( 4.000000000000000000, -57.00000000000000000, -3.000000000000000000 ) ) ;
#339 = ORIENTED_EDGE ( 'NONE', *, *, #129, .T. ) ;
#340 = ORIENTED_EDGE ( 'NONE', *, *, #299, .T. ) ;
#341 = DIRECTION ( 'NONE',  ( -1.000000000000000000, -0.000000000000000000, 0.000000000000000000 ) ) ;
#342 = CARTESIAN_POINT ( 'NONE',  ( 0.000000000000000000, -103.5000000000000142, -3.999999999999996447 ) ) ;
#343 = EDGE_CURVE ( 'NONE', #210, #926, #647, .T. ) ;
#344 = EDGE_LOOP ( 'NONE', ( #126, #931, #179, #793 ) ) ;
#345 = CIRCLE ( 'NONE', #936, 5.099999999999999645 ) ;
#346 = AXIS2_PLACEMENT_3D ( 'NONE', #809, #306, #593 ) ;
#347 = EDGE_LOOP ( 'NONE', ( #66, #494, #743, #733 ) ) ;
#348 = PLANE ( 'NONE',  #134 ) ;
#349 = AXIS2_PLACEMENT_3D ( 'NONE', #162, #529, #446 ) ;
#350 = CYLINDRICAL_SURFACE ( 'NONE', #228, 24.00000000000000000 ) ;
#351 = VERTEX_POINT ( 'NONE', #225 ) ;
#352 = LINE ( 'NONE', #860, #150 ) ;
#353 = CARTESIAN_POINT ( 'NONE',  ( 0.000000000000000000, 102.0000000000000142, -2.000000000000000000 ) ) ;
#354 = SHAPE_DEFINITION_REPRESENTATION ( #247, #404 ) ;
#355 = EDGE_CURVE ( 'NONE', #789, #661, #869, .T. ) ;
#356 = DIRECTION ( 'NONE',  ( 0.000000000000000000, 0.000000000000000000, -1.000000000000000000 ) ) ;
#357 = DIRECTION ( 'NONE',  ( -0.000000000000000000, 1.000000000000000000, 0.000000000000000000 ) ) ;
#358 = CARTESIAN_POINT ( 'NONE',  ( 4.000000000000000000, -55.50641131038207021, -8.000000000000007105 ) ) ;
#359 = ADVANCED_FACE ( 'NONE', ( #431, #366 ), #642, .T. ) ;
#360 = CIRCLE ( 'NONE', #838, 4.099999999999999645 ) ;
#361 = DIRECTION ( 'NONE',  ( 0.000000000000000000, 0.000000000000000000, 1.000000000000000000 ) ) ;
#362 = CIRCLE ( 'NONE', #318, 24.00000000000000000 ) ;
#363 = EDGE_LOOP ( 'NONE', ( #99, #378, #641, #620 ) ) ;
#364 = ORIENTED_EDGE ( 'NONE', *, *, #502, .T. ) ;
#365 = DIRECTION ( 'NONE',  ( 1.000000000000000000, 0.000000000000000000, 0.000000000000000000 ) ) ;
#366 = FACE_OUTER_BOUND ( 'NONE', #537, .T. ) ;
#367 = ADVANCED_FACE ( 'NONE', ( #501 ), #350, .T. ) ;
#368 = ORIENTED_EDGE ( 'NONE', *, *, #761, .F. ) ;
#369 = LINE ( 'NONE', #441, #685 ) ;
#370 = VERTEX_POINT ( 'NONE', #861 ) ;
#371 = EDGE_CURVE ( 'NONE', #69, #854, #497, .T. ) ;
#372 = ORIENTED_EDGE ( 'NONE', *, *, #199, .T. ) ;
#373 = DIRECTION ( 'NONE',  ( 0.000000000000000000, 0.000000000000000000, 1.000000000000000000 ) ) ;
#374 = DIRECTION ( 'NONE',  ( 1.000000000000000000, 0.000000000000000000, 0.000000000000000000 ) ) ;
#375 = AXIS2_PLACEMENT_3D ( 'NONE', #435, #5, #85 ) ;
#376 = AXIS2_PLACEMENT_3D ( 'NONE', #683, #679, #80 ) ;
#377 = LINE ( 'NONE', #521, #666 ) ;
#378 = ORIENTED_EDGE ( 'NONE', *, *, #37, .F. ) ;
#379 = LINE ( 'NONE', #674, #866 ) ;
#380 = DIRECTION ( 'NONE',  ( 0.000000000000000000, 0.000000000000000000, -1.000000000000000000 ) ) ;
#381 = DIRECTION ( 'NONE',  ( -1.000000000000000000, -0.000000000000000000, 0.000000000000000000 ) ) ;
#382 = ORIENTED_EDGE ( 'NONE', *, *, #96, .T. ) ;
#383 = DIRECTION ( 'NONE',  ( 0.000000000000000000, -1.000000000000000000, 0.000000000000000000 ) ) ;
#384 = EDGE_CURVE ( 'NONE', #218, #673, #407, .T. ) ;
#385 = LINE ( 'NONE', #883, #181 ) ;
#386 = LINE ( 'NONE', #815, #98 ) ;
#387 = ORIENTED_EDGE ( 'NONE', *, *, #774, .F. ) ;
#388 = PERSON_AND_ORGANIZATION ( #284, #650 ) ;
#389 = PLANE ( 'NONE',  #117 ) ;
#390 = EDGE_CURVE ( 'NONE', #770, #652, #575, .T. ) ;
#391 = CARTESIAN_POINT ( 'NONE',  ( 4.000000000000000000, -75.00000000000000000, 6.000000000000000000 ) ) ;
#392 = CIRCLE ( 'NONE', #333, 4.099999999999999645 ) ;
#393 = ORIENTED_EDGE ( 'NONE', *, *, #291, .T. ) ;
#394 = PERSON_AND_ORGANIZATION ( #284, #650 ) ;
#395 = DIRECTION ( 'NONE',  ( 0.000000000000000000, 0.000000000000000000, -1.000000000000000000 ) ) ;
#396 = FACE_OUTER_BOUND ( 'NONE', #347, .T. ) ;
#397 = EDGE_CURVE ( 'NONE', #770, #867, #290, .T. ) ;
#398 = ORIENTED_EDGE ( 'NONE', *, *, #799, .T. ) ;
#399 = APPROVAL_DATE_TIME ( #254, #111 ) ;
#400 = DIRECTION ( 'NONE',  ( 1.000000000000000000, 0.000000000000000000, 0.000000000000000000 ) ) ;
#401 = ADVANCED_FACE ( 'NONE', ( #140 ), #459, .F. ) ;
#402 = ORIENTED_EDGE ( 'NONE', *, *, #632, .T. ) ;
#403 = DATE_AND_TIME ( #903, #590 ) ;
#404 = ADVANCED_BREP_SHAPE_REPRESENTATION ( 'SideKickstand_V07_185mm_8x28', ( #862, #698 ), #725 ) ;
#405 = DIRECTION ( 'NONE',  ( 0.000000000000000000, 0.000000000000000000, -1.000000000000000000 ) ) ;
#406 = CC_DESIGN_APPROVAL ( #81, ( #796 ) ) ;
#407 = CIRCLE ( 'NONE', #148, 4.099999999999999645 ) ;
#408 = EDGE_LOOP ( 'NONE', ( #595, #170, #105, #200 ) ) ;
#409 = AXIS2_PLACEMENT_3D ( 'NONE', #292, #582, #219 ) ;
#410 = CARTESIAN_POINT ( 'NONE',  ( -4.299999999999999822, -75.00000000000000000, 0.9000000000000005773 ) ) ;
#411 = VERTEX_POINT ( 'NONE', #12 ) ;
#412 = CARTESIAN_POINT ( 'NONE',  ( -3.000000000000000000, 92.00000000000001421, -2.000000000000000000 ) ) ;
#413 = ORIENTED_EDGE ( 'NONE', *, *, #390, .T. ) ;
#414 = CARTESIAN_POINT ( 'NONE',  ( -3.000000000000000000, 102.0000000000000142, -2.000000000000000000 ) ) ;
#415 = DIRECTION ( 'NONE',  ( -1.000000000000000000, -0.000000000000000000, 0.000000000000000000 ) ) ;
#416 = VECTOR ( 'NONE', #751, 1000.000000000000000 ) ;
#417 = CARTESIAN_POINT ( 'NONE',  ( -3.000000000000000000, 102.0000000000000142, 14.00000000000000000 ) ) ;
#418 = CARTESIAN_POINT ( 'NONE',  ( -4.000000000000000000, -75.00000000000000000, 6.000000000000000000 ) ) ;
#419 = ORIENTED_EDGE ( 'NONE', *, *, #755, .T. ) ;
#420 = DIRECTION ( 'NONE',  ( 0.000000000000000000, 0.000000000000000000, -1.000000000000000000 ) ) ;
#421 = CARTESIAN_POINT ( 'NONE',  ( 4.000000000000000000, -95.00000000000000000, -44.00000000000000000 ) ) ;
#422 = EDGE_CURVE ( 'NONE', #71, #854, #231, .T. ) ;
#423 = LINE ( 'NONE', #567, #565 ) ;
#424 = DIRECTION ( 'NONE',  ( 0.000000000000000000, 0.000000000000000000, -1.000000000000000000 ) ) ;
#425 = ORIENTED_EDGE ( 'NONE', *, *, #907, .F. ) ;
#426 = AXIS2_PLACEMENT_3D ( 'NONE', #728, #365, #282 ) ;
#427 = CARTESIAN_POINT ( 'NONE',  ( 0.000000000000000000, 102.0000000000000142, -2.000000000000000000 ) ) ;
#428 = VECTOR ( 'NONE', #178, 1000.000000000000000 ) ;
#429 = EDGE_CURVE ( 'NONE', #433, #47, #762, .T. ) ;
#430 = AXIS2_PLACEMENT_3D ( 'NONE', #660, #357, #711 ) ;
#431 = FACE_BOUND ( 'NONE', #363, .T. ) ;
#432 = CIRCLE ( 'NONE', #450, 24.00000000000000000 ) ;
#433 = VERTEX_POINT ( 'NONE', #312 ) ;
#434 = ORIENTED_EDGE ( 'NONE', *, *, #570, .F. ) ;
#435 = CARTESIAN_POINT ( 'NONE',  ( -4.299999999999999822, -65.30127131734238333, 23.63333950050852650 ) ) ;
#436 = CARTESIAN_POINT ( 'NONE',  ( 0.000000000000000000, -102.0000000000000142, -19.99999999999999645 ) ) ;
#437 = EDGE_CURVE ( 'NONE', #612, #69, #385, .T. ) ;
#438 = ORIENTED_EDGE ( 'NONE', *, *, #598, .F. ) ;
#439 = ORIENTED_EDGE ( 'NONE', *, *, #328, .F. ) ;
#440 = CARTESIAN_POINT ( 'NONE',  ( 4.000000000000000000, -75.00000000000000000, -18.00000000000000355 ) ) ;
#441 = CARTESIAN_POINT ( 'NONE',  ( 0.000000000000000000, -95.00000000000000000, -19.99999999999999645 ) ) ;
#442 = DIRECTION ( 'NONE',  ( 0.000000000000000000, 0.000000000000000000, 1.000000000000000000 ) ) ;
#443 = ORIENTED_EDGE ( 'NONE', *, *, #187, .T. ) ;
#444 = DIRECTION ( 'NONE',  ( -1.000000000000000000, -0.000000000000000000, 0.000000000000000000 ) ) ;
#445 = AXIS2_PLACEMENT_3D ( 'NONE', #169, #381, #159 ) ;
#446 = DIRECTION ( 'NONE',  ( 0.000000000000000000, 0.000000000000000000, -1.000000000000000000 ) ) ;
#447 = VECTOR ( 'NONE', #848, 1000.000000000000000 ) ;
#448 = CC_DESIGN_DATE_AND_TIME_ASSIGNMENT ( #621, #114, ( #796 ) ) ;
#449 = DIRECTION ( 'NONE',  ( 0.000000000000000000, 0.000000000000000000, -1.000000000000000000 ) ) ;
#450 = AXIS2_PLACEMENT_3D ( 'NONE', #248, #823, #380 ) ;
#451 = EDGE_CURVE ( 'NONE', #461, #433, #257, .T. ) ;
#452 = ORIENTED_EDGE ( 'NONE', *, *, #271, .F. ) ;
#453 = CARTESIAN_POINT ( 'NONE',  ( -4.299999999999999822, -57.00000000000000000, -3.000000000000000000 ) ) ;
#454 = DIRECTION ( 'NONE',  ( 0.000000000000000000, -1.000000000000000000, 0.000000000000000000 ) ) ;
#455 = DIRECTION ( 'NONE',  ( 0.000000000000000000, 0.000000000000000000, -1.000000000000000000 ) ) ;
#456 = EDGE_CURVE ( 'NONE', #51, #510, #172, .T. ) ;
#457 = ORIENTED_EDGE ( 'NONE', *, *, #14, .T. ) ;
#458 = CARTESIAN_POINT ( 'NONE',  ( -4.000000000000000000, -55.50641131038207021, -8.000000000000000000 ) ) ;
#459 = PLANE ( 'NONE',  #592 ) ;
#460 = DIRECTION ( 'NONE',  ( -0.000000000000000000, 1.000000000000000000, 0.000000000000000000 ) ) ;
#461 = VERTEX_POINT ( 'NONE', #881 ) ;
#462 = APPLICATION_PROTOCOL_DEFINITION ( 'international standard', 'config_control_design', 1994, #783 ) ;
#463 = DIRECTION ( 'NONE',  ( 0.000000000000000000, 0.000000000000000000, 1.000000000000000000 ) ) ;
#464 = EDGE_CURVE ( 'NONE', #652, #926, #91, .T. ) ;
#465 = CARTESIAN_POINT ( 'NONE',  ( 3.000000000000000000, 102.0000000000000142, -2.000000000000000000 ) ) ;
#466 = VECTOR ( 'NONE', #603, 1000.000000000000000 ) ;
#467 = VERTEX_POINT ( 'NONE', #154 ) ;
#468 = COORDINATED_UNIVERSAL_TIME_OFFSET ( 8, 0, .AHEAD. ) ;
#469 = DIRECTION ( 'NONE',  ( 0.000000000000000000, 0.000000000000000000, 1.000000000000000000 ) ) ;
#470 = ADVANCED_FACE ( 'NONE', ( #735 ), #389, .T. ) ;
#471 = CARTESIAN_POINT ( 'NONE',  ( -4.299999999999999822, -65.30127131734238333, 27.73333950050852792 ) ) ;
#472 = EDGE_LOOP ( 'NONE', ( #557, #573, #538, #507 ) ) ;
#473 = COORDINATED_UNIVERSAL_TIME_OFFSET ( 8, 0, .AHEAD. ) ;
#474 = CARTESIAN_POINT ( 'NONE',  ( 4.000000000000000000, -75.00000000000000000, 6.000000000000000000 ) ) ;
#475 = DIRECTION ( 'NONE',  ( 0.000000000000000000, 0.000000000000000000, -1.000000000000000000 ) ) ;
#476 = ORIENTED_EDGE ( 'NONE', *, *, #506, .F. ) ;
#477 = MECHANICAL_CONTEXT ( 'NONE', #783, 'mechanical' ) ;
#478 = DIRECTION ( 'NONE',  ( 1.000000000000000000, 0.000000000000000000, 0.000000000000000000 ) ) ;
#479 = CARTESIAN_POINT ( 'NONE',  ( -4.000000000000000000, -75.00000000000000000, 0.9000000000000005773 ) ) ;
#480 = AXIS2_PLACEMENT_3D ( 'NONE', #886, #246, #535 ) ;
#481 = VECTOR ( 'NONE', #895, 1000.000000000000000 ) ;
#482 = CIRCLE ( 'NONE', #28, 4.099999999999999645 ) ;
#483 = ORIENTED_EDGE ( 'NONE', *, *, #694, .T. ) ;
#484 = ADVANCED_FACE ( 'NONE', ( #235 ), #21, .F. ) ;
#485 =( NAMED_UNIT ( * ) PLANE_ANGLE_UNIT ( ) SI_UNIT ( $, .RADIAN. ) );
#486 = VECTOR ( 'NONE', #696, 1000.000000000000000 ) ;
#487 = AXIS2_PLACEMENT_3D ( 'NONE', #678, #171, #156 ) ;
#488 = FACE_BOUND ( 'NONE', #307, .T. ) ;
#489 = ORIENTED_EDGE ( 'NONE', *, *, #878, .T. ) ;
#490 = EDGE_CURVE ( 'NONE', #51, #351, #841, .T. ) ;
#491 = ORIENTED_EDGE ( 'NONE', *, *, #10, .F. ) ;
#492 = FACE_OUTER_BOUND ( 'NONE', #344, .T. ) ;
#493 = DIRECTION ( 'NONE',  ( 0.000000000000000000, 0.000000000000000000, -1.000000000000000000 ) ) ;
#494 = ORIENTED_EDGE ( 'NONE', *, *, #10, .T. ) ;
#495 = VERTEX_POINT ( 'NONE', #86 ) ;
#496 = DIRECTION ( 'NONE',  ( 1.000000000000000000, 0.000000000000000000, 0.000000000000000000 ) ) ;
#497 = LINE ( 'NONE', #132, #289 ) ;
#498 = EDGE_CURVE ( 'NONE', #281, #461, #432, .T. ) ;
#499 = AXIS2_PLACEMENT_3D ( 'NONE', #342, #36, #922 ) ;
#500 = LINE ( 'NONE', #127, #911 ) ;
#501 = FACE_OUTER_BOUND ( 'NONE', #810, .T. ) ;
#502 = EDGE_CURVE ( 'NONE', #370, #461, #168, .T. ) ;
#503 = ORIENTED_EDGE ( 'NONE', *, *, #719, .F. ) ;
#504 = FACE_OUTER_BOUND ( 'NONE', #606, .T. ) ;
#505 = CARTESIAN_POINT ( 'NONE',  ( -4.000000000000000000, 4.500000000000000888, -8.000000000000000000 ) ) ;
#506 = EDGE_CURVE ( 'NONE', #897, #916, #301, .T. ) ;
#507 = ORIENTED_EDGE ( 'NONE', *, *, #16, .F. ) ;
#508 = DIRECTION ( 'NONE',  ( 0.000000000000000000, -0.000000000000000000, 1.000000000000000000 ) ) ;
#509 = CARTESIAN_POINT ( 'NONE',  ( -4.000000000000000000, -65.30127131734238333, 23.63333950050852650 ) ) ;
#510 = VERTEX_POINT ( 'NONE', #887 ) ;
#511 = VERTEX_POINT ( 'NONE', #828 ) ;
#512 = CC_DESIGN_SECURITY_CLASSIFICATION ( #563, ( #837 ) ) ;
#513 = CARTESIAN_POINT ( 'NONE',  ( -4.000000000000000000, -75.00000000000000000, 6.000000000000000000 ) ) ;
#514 = CIRCLE ( 'NONE', #165, 5.099999999999998757 ) ;
#515 = DIRECTION ( 'NONE',  ( 1.000000000000000000, 0.000000000000000000, -0.000000000000000000 ) ) ;
#516 = CIRCLE ( 'NONE', #102, 24.00000000000000000 ) ;
#517 = ORIENTED_EDGE ( 'NONE', *, *, #217, .F. ) ;
#518 = ORIENTED_EDGE ( 'NONE', *, *, #604, .T. ) ;
#519 = FACE_OUTER_BOUND ( 'NONE', #188, .T. ) ;
#520 = FACE_BOUND ( 'NONE', #882, .T. ) ;
#521 = CARTESIAN_POINT ( 'NONE',  ( -4.299999999999999822, -57.00000000000000000, 1.099999999999999423 ) ) ;
#522 = CARTESIAN_POINT ( 'NONE',  ( -4.299999999999999822, -57.00000000000000000, -3.000000000000000000 ) ) ;
#523 = DIRECTION ( 'NONE',  ( -1.000000000000000000, 0.000000000000000000, 0.000000000000000000 ) ) ;
#524 = ADVANCED_FACE ( 'NONE', ( #30 ), #670, .T. ) ;
#525 = ORIENTED_EDGE ( 'NONE', *, *, #855, .T. ) ;
#526 = ORIENTED_EDGE ( 'NONE', *, *, #611, .T. ) ;
#527 = DIRECTION ( 'NONE',  ( 1.000000000000000000, 0.000000000000000000, 0.000000000000000000 ) ) ;
#528 = VECTOR ( 'NONE', #64, 1000.000000000000000 ) ;
#529 = DIRECTION ( 'NONE',  ( 1.000000000000000000, 0.000000000000000000, 0.000000000000000000 ) ) ;
#530 = AXIS2_PLACEMENT_3D ( 'NONE', #118, #53, #704 ) ;
#531 = CARTESIAN_POINT ( 'NONE',  ( 4.000000000000000000, -57.00000000000000000, 1.099999999999999423 ) ) ;
#532 = VECTOR ( 'NONE', #325, 1000.000000000000000 ) ;
#533 = EDGE_CURVE ( 'NONE', #511, #897, #369, .T. ) ;
#534 = EDGE_LOOP ( 'NONE', ( #476, #826, #503, #425, #489, #701, #764, #749, #784, #120, #419, #856, #727, #439 ) ) ;
#535 = DIRECTION ( 'NONE',  ( 0.000000000000000000, 0.000000000000000000, 1.000000000000000000 ) ) ;
#536 = CARTESIAN_POINT ( 'NONE',  ( 4.000000000000000000, 4.500000000000000888, -19.99999999999999645 ) ) ;
#537 = EDGE_LOOP ( 'NONE', ( #413, #319, #135, #825 ) ) ;
#538 = ORIENTED_EDGE ( 'NONE', *, *, #113, .F. ) ;
#539 = ADVANCED_FACE ( 'NONE', ( #6, #520, #813, #157 ), #740, .T. ) ;
#540 = COORDINATED_UNIVERSAL_TIME_OFFSET ( 8, 0, .AHEAD. ) ;
#541 = DIRECTION ( 'NONE',  ( -1.000000000000000000, 0.000000000000000000, 0.000000000000000000 ) ) ;
#542 = CARTESIAN_POINT ( 'NONE',  ( -4.000000000000000000, 4.500000000000000888, 20.00000000000000000 ) ) ;
#543 = ORIENTED_EDGE ( 'NONE', *, *, #498, .F. ) ;
#544 = ADVANCED_FACE ( 'NONE', ( #772 ), #760, .T. ) ;
#545 = CARTESIAN_POINT ( 'NONE',  ( -4.000000000000000000, -109.0000000000000142, -44.00000000000000000 ) ) ;
#546 = AXIS2_PLACEMENT_3D ( 'NONE', #833, #610, #322 ) ;
#547 = CARTESIAN_POINT ( 'NONE',  ( -4.000000000000000000, -75.00000000000000000, -18.00000000000000355 ) ) ;
#548 = CC_DESIGN_APPROVAL ( #111, ( #563 ) ) ;
#549 = EDGE_LOOP ( 'NONE', ( #434, #263, #55, #25 ) ) ;
#550 = APPROVAL_DATE_TIME ( #403, #81 ) ;
#551 = FACE_OUTER_BOUND ( 'NONE', #223, .T. ) ;
#552 = DIRECTION ( 'NONE',  ( -0.000000000000000000, 0.000000000000000000, -1.000000000000000000 ) ) ;
#553 = ORIENTED_EDGE ( 'NONE', *, *, #924, .F. ) ;
#554 = APPROVAL_ROLE ( '' ) ;
#555 = CARTESIAN_POINT ( 'NONE',  ( 4.000000000000000000, -112.0000000000000142, -44.00000000000000000 ) ) ;
#556 = EDGE_CURVE ( 'NONE', #854, #47, #914, .T. ) ;
#557 = ORIENTED_EDGE ( 'NONE', *, *, #121, .F. ) ;
#558 = PERSON_AND_ORGANIZATION_ROLE ( 'creator' ) ;
#559 = FACE_OUTER_BOUND ( 'NONE', #738, .T. ) ;
#560 = VECTOR ( 'NONE', #161, 1000.000000000000000 ) ;
#561 = VECTOR ( 'NONE', #442, 1000.000000000000000 ) ;
#562 = EDGE_CURVE ( 'NONE', #467, #805, #49, .T. ) ;
#563 = SECURITY_CLASSIFICATION ( '', '', #613 ) ;
#564 = ORIENTED_EDGE ( 'NONE', *, *, #490, .F. ) ;
#565 = VECTOR ( 'NONE', #864, 1000.000000000000000 ) ;
#566 = ORIENTED_EDGE ( 'NONE', *, *, #303, .T. ) ;
#567 = CARTESIAN_POINT ( 'NONE',  ( 0.000000000000000000, -112.0000000000000142, -44.00000000000000000 ) ) ;
#568 = CARTESIAN_POINT ( 'NONE',  ( -4.299999999999999822, -75.00000000000000000, 6.000000000000000000 ) ) ;
#569 = ORIENTED_EDGE ( 'NONE', *, *, #384, .T. ) ;
#570 = EDGE_CURVE ( 'NONE', #867, #709, #781, .T. ) ;
#571 = CARTESIAN_POINT ( 'NONE',  ( 4.000000000000000000, -57.00000000000000000, -7.099999999999999645 ) ) ;
#572 = DIRECTION ( 'NONE',  ( -1.000000000000000000, -0.000000000000000000, 0.000000000000000000 ) ) ;
#573 = ORIENTED_EDGE ( 'NONE', *, *, #672, .T. ) ;
#574 = LINE ( 'NONE', #414, #894 ) ;
#575 = LINE ( 'NONE', #795, #60 ) ;
#576 = VECTOR ( 'NONE', #269, 1000.000000000000000 ) ;
#577 = VECTOR ( 'NONE', #791, 1000.000000000000000 ) ;
#578 = ORIENTED_EDGE ( 'NONE', *, *, #585, .T. ) ;
#579 = LINE ( 'NONE', #56, #528 ) ;
#580 = CIRCLE ( 'NONE', #197, 5.099999999999998757 ) ;
#581 = CARTESIAN_POINT ( 'NONE',  ( 4.000000000000000000, -109.0000000000000142, -8.000000000000000000 ) ) ;
#582 = DIRECTION ( 'NONE',  ( 0.000000000000000000, 0.000000000000000000, 1.000000000000000000 ) ) ;
#583 = LINE ( 'NONE', #128, #9 ) ;
#584 = ORIENTED_EDGE ( 'NONE', *, *, #397, .T. ) ;
#585 = EDGE_CURVE ( 'NONE', #879, #93, #149, .T. ) ;
#586 = EDGE_LOOP ( 'NONE', ( #518, #89, #155, #368 ) ) ;
#587 = LINE ( 'NONE', #662, #119 ) ;
#588 = PLANE ( 'NONE',  #892 ) ;
#589 = ORIENTED_EDGE ( 'NONE', *, *, #16, .T. ) ;
#590 = LOCAL_TIME ( 16, 21, 34.00000000000000000, #468 ) ;
#591 = CYLINDRICAL_SURFACE ( 'NONE', #807, 4.099999999999999645 ) ;
#592 = AXIS2_PLACEMENT_3D ( 'NONE', #436, #95, #614 ) ;
#593 = DIRECTION ( 'NONE',  ( 0.000000000000000000, 0.000000000000000000, -1.000000000000000000 ) ) ;
#594 = AXIS2_PLACEMENT_3D ( 'NONE', #703, #116, #627 ) ;
#595 = ORIENTED_EDGE ( 'NONE', *, *, #934, .T. ) ;
#596 = ORIENTED_EDGE ( 'NONE', *, *, #271, .T. ) ;
#597 = DIRECTION ( 'NONE',  ( 1.000000000000000000, 0.000000000000000000, -0.000000000000000000 ) ) ;
#598 = EDGE_CURVE ( 'NONE', #221, #846, #776, .T. ) ;
#599 = CARTESIAN_POINT ( 'NONE',  ( 0.000000000000000000, 4.500000000000000888, -8.000000000000000000 ) ) ;
#600 = FACE_OUTER_BOUND ( 'NONE', #586, .T. ) ;
#601 = ORIENTED_EDGE ( 'NONE', *, *, #451, .F. ) ;
#602 = CYLINDRICAL_SURFACE ( 'NONE', #487, 10.00000000000000000 ) ;
#603 = DIRECTION ( 'NONE',  ( -1.000000000000000000, -0.000000000000000000, -0.000000000000000000 ) ) ;
#604 = EDGE_CURVE ( 'NONE', #661, #202, #618, .T. ) ;
#605 = CARTESIAN_POINT ( 'NONE',  ( -4.000000000000000000, -96.81742422927142400, -3.999999999999996447 ) ) ;
#606 = EDGE_LOOP ( 'NONE', ( #304, #2, #33, #630 ) ) ;
#607 = CYLINDRICAL_SURFACE ( 'NONE', #824, 4.099999999999999645 ) ;
#608 = CIRCLE ( 'NONE', #777, 10.00000000000000178 ) ;
#609 = CARTESIAN_POINT ( 'NONE',  ( -4.000000000000000000, -75.00000000000000000, 6.000000000000000000 ) ) ;
#610 = DIRECTION ( 'NONE',  ( -1.000000000000000000, -0.000000000000000000, 0.000000000000000000 ) ) ;
#611 = EDGE_CURVE ( 'NONE', #411, #673, #35, .T. ) ;
#612 = VERTEX_POINT ( 'NONE', #545 ) ;
#613 = SECURITY_CLASSIFICATION_LEVEL ( 'unclassified' ) ;
#614 = DIRECTION ( 'NONE',  ( 1.000000000000000000, 0.000000000000000000, -0.000000000000000000 ) ) ;
#615 = CARTESIAN_POINT ( 'NONE',  ( 4.000000000000000000, -75.00000000000000000, 6.000000000000000000 ) ) ;
#616 = ORIENTED_EDGE ( 'NONE', *, *, #533, .F. ) ;
#617 = CALENDAR_DATE ( 2026, 26, 8 ) ;
#618 = LINE ( 'NONE', #337, #532 ) ;
#619 = DIRECTION ( 'NONE',  ( 1.000000000000000000, 0.000000000000000000, -0.000000000000000000 ) ) ;
#620 = ORIENTED_EDGE ( 'NONE', *, *, #201, .F. ) ;
#621 = DATE_AND_TIME ( #780, #744 ) ;
#622 = DIRECTION ( 'NONE',  ( 0.000000000000000000, 0.000000000000000000, 1.000000000000000000 ) ) ;
#623 = DIRECTION ( 'NONE',  ( -1.000000000000000000, -0.000000000000000000, 0.000000000000000000 ) ) ;
#624 = AXIS2_PLACEMENT_3D ( 'NONE', #797, #139, #167 ) ;
#625 = EDGE_LOOP ( 'NONE', ( #829, #402, #4, #250 ) ) ;
#626 = COORDINATED_UNIVERSAL_TIME_OFFSET ( 8, 0, .AHEAD. ) ;
#627 = DIRECTION ( 'NONE',  ( 0.000000000000000000, 0.000000000000000000, -1.000000000000000000 ) ) ;
#628 = EDGE_CURVE ( 'NONE', #411, #78, #392, .T. ) ;
#629 = CARTESIAN_POINT ( 'NONE',  ( 4.000000000000000000, -57.00000000000000000, -3.000000000000000000 ) ) ;
#630 = ORIENTED_EDGE ( 'NONE', *, *, #456, .F. ) ;
#631 = DIRECTION ( 'NONE',  ( 1.000000000000000000, 0.000000000000000000, 0.000000000000000000 ) ) ;
#632 = EDGE_CURVE ( 'NONE', #495, #202, #636, .T. ) ;
#633 = CARTESIAN_POINT ( 'NONE',  ( 4.000000000000000000, 4.500000000000000888, -8.000000000000000000 ) ) ;
#634 = ORIENTED_EDGE ( 'NONE', *, *, #390, .F. ) ;
#635 = EDGE_LOOP ( 'NONE', ( #138, #589, #732, #77 ) ) ;
#636 = LINE ( 'NONE', #251, #259 ) ;
#637 = PLANE ( 'NONE',  #651 ) ;
#638 = VECTOR ( 'NONE', #782, 1000.000000000000000 ) ;
#639 = ADVANCED_FACE ( 'NONE', ( #551 ), #832, .T. ) ;
#640 = VECTOR ( 'NONE', #204, 1000.000000000000000 ) ;
#641 = ORIENTED_EDGE ( 'NONE', *, *, #632, .F. ) ;
#642 = PLANE ( 'NONE',  #430 ) ;
#643 = ORIENTED_EDGE ( 'NONE', *, *, #665, .F. ) ;
#644 = CARTESIAN_POINT ( 'NONE',  ( -4.000000000000000000, 92.00000000000001421, -8.000000000000000000 ) ) ;
#645 = DIRECTION ( 'NONE',  ( 0.000000000000000000, 0.000000000000000000, 1.000000000000000000 ) ) ;
#646 = CARTESIAN_POINT ( 'NONE',  ( 3.000000000000000000, 102.0000000000000142, -2.000000000000000000 ) ) ;
#647 = LINE ( 'NONE', #68, #853 ) ;
#648 = AXIS2_PLACEMENT_3D ( 'NONE', #207, #496, #356 ) ;
#649 = AXIS2_PLACEMENT_3D ( 'NONE', #615, #302, #449 ) ;
#650 = ORGANIZATION ( '未', '未', '' ) ;
#651 = AXIS2_PLACEMENT_3D ( 'NONE', #633, #619, #552 ) ;
#652 = VERTEX_POINT ( 'NONE', #688 ) ;
#653 = CARTESIAN_POINT ( 'NONE',  ( -4.299999999999999822, -57.00000000000000000, -7.099999999999999645 ) ) ;
#654 = AXIS2_PLACEMENT_3D ( 'NONE', #806, #444, #373 ) ;
#655 = CARTESIAN_POINT ( 'NONE',  ( 4.000000000000000000, -75.00000000000000000, 0.9000000000000005773 ) ) ;
#656 = ADVANCED_FACE ( 'NONE', ( #691 ), #40, .T. ) ;
#657 = ORIENTED_EDGE ( 'NONE', *, *, #873, .T. ) ;
#658 = ORIENTED_EDGE ( 'NONE', *, *, #88, .T. ) ;
#659 = CARTESIAN_POINT ( 'NONE',  ( 4.000000000000000000, 4.500000000000000888, -8.000000000000000000 ) ) ;
#660 = CARTESIAN_POINT ( 'NONE',  ( 0.000000000000000000, 92.00000000000001421, -8.000000000000000000 ) ) ;
#661 = VERTEX_POINT ( 'NONE', #868 ) ;
#662 = CARTESIAN_POINT ( 'NONE',  ( 3.000000000000000000, 93.50000000000000000, -2.000000000000000000 ) ) ;
#663 = DIRECTION ( 'NONE',  ( 1.000000000000000000, 0.000000000000000000, -0.000000000000000000 ) ) ;
#664 = EDGE_LOOP ( 'NONE', ( #160, #657, #483, #775 ) ) ;
#665 = EDGE_CURVE ( 'NONE', #351, #867, #516, .T. ) ;
#666 = VECTOR ( 'NONE', #819, 1000.000000000000000 ) ;
#667 = ORIENTED_EDGE ( 'NONE', *, *, #506, .T. ) ;
#668 = CARTESIAN_POINT ( 'NONE',  ( 4.000000000000000000, -109.0000000000000142, -19.99999999999999645 ) ) ;
#669 = AXIS2_PLACEMENT_3D ( 'NONE', #474, #847, #622 ) ;
#670 = PLANE ( 'NONE',  #214 ) ;
#671 = FACE_OUTER_BOUND ( 'NONE', #54, .T. ) ;
#672 = EDGE_CURVE ( 'NONE', #335, #192, #67, .T. ) ;
#673 = VERTEX_POINT ( 'NONE', #921 ) ;
#674 = CARTESIAN_POINT ( 'NONE',  ( 4.000000000000000000, -112.0000000000000142, -44.00000000000000000 ) ) ;
#675 = CARTESIAN_POINT ( 'NONE',  ( 0.000000000000000000, -55.82646236600039913, 20.43521577939175771 ) ) ;
#676 = CARTESIAN_POINT ( 'NONE',  ( 0.000000000000000000, 102.0000000000000142, 14.00000000000000000 ) ) ;
#677 = ORIENTED_EDGE ( 'NONE', *, *, #230, .F. ) ;
#678 = CARTESIAN_POINT ( 'NONE',  ( -4.000000000000000000, -65.30127131734238333, 23.63333950050852650 ) ) ;
#679 = DIRECTION ( 'NONE',  ( 1.000000000000000000, 0.000000000000000000, 0.000000000000000000 ) ) ;
#680 = ORIENTED_EDGE ( 'NONE', *, *, #384, .F. ) ;
#681 = VERTEX_POINT ( 'NONE', #571 ) ;
#682 = CALENDAR_DATE ( 2026, 26, 8 ) ;
#683 = CARTESIAN_POINT ( 'NONE',  ( -4.000000000000000000, -65.30127131734238333, 23.63333950050852650 ) ) ;
#684 = DIRECTION ( 'NONE',  ( 1.000000000000000000, 0.000000000000000000, -0.000000000000000000 ) ) ;
#685 = VECTOR ( 'NONE', #663, 1000.000000000000000 ) ;
#686 = ORIENTED_EDGE ( 'NONE', *, *, #611, .F. ) ;
#687 = DATE_TIME_ROLE ( 'classification_date' ) ;
#688 = CARTESIAN_POINT ( 'NONE',  ( -4.000000000000000000, 92.00000000000001421, 20.00000000000000000 ) ) ;
#689 = PLANE ( 'NONE',  #499 ) ;
#690 = VERTEX_POINT ( 'NONE', #417 ) ;
#691 = FACE_OUTER_BOUND ( 'NONE', #625, .T. ) ;
#692 = DIRECTION ( 'NONE',  ( 1.000000000000000000, 0.000000000000000000, -0.000000000000000000 ) ) ;
#693 = ORIENTED_EDGE ( 'NONE', *, *, #437, .F. ) ;
#694 = EDGE_CURVE ( 'NONE', #238, #681, #927, .T. ) ;
#695 = PERSON_AND_ORGANIZATION ( #284, #650 ) ;
#696 = DIRECTION ( 'NONE',  ( -0.000000000000000000, 1.000000000000000000, 0.000000000000000000 ) ) ;
#697 = DIRECTION ( 'NONE',  ( -1.000000000000000000, 0.000000000000000000, 0.000000000000000000 ) ) ;
#698 = AXIS2_PLACEMENT_3D ( 'NONE', #189, #39, #631 ) ;
#699 = VECTOR ( 'NONE', #415, 1000.000000000000000 ) ;
#700 = VECTOR ( 'NONE', #130, 1000.000000000000000 ) ;
#701 = ORIENTED_EDGE ( 'NONE', *, *, #343, .T. ) ;
#702 = APPLICATION_PROTOCOL_DEFINITION ( 'international standard', 'config_control_design', 1994, #731 ) ;
#703 = CARTESIAN_POINT ( 'NONE',  ( -4.000000000000000000, -75.00000000000000000, 6.000000000000000000 ) ) ;
#704 = DIRECTION ( 'NONE',  ( -0.000000000000000000, 0.000000000000000000, -1.000000000000000000 ) ) ;
#705 = ORIENTED_EDGE ( 'NONE', *, *, #665, .T. ) ;
#706 = EDGE_LOOP ( 'NONE', ( #753, #443, #569, #686 ) ) ;
#707 = CARTESIAN_POINT ( 'NONE',  ( -4.299999999999999822, -65.30127131734238333, 19.53333950050852863 ) ) ;
#708 = CYLINDRICAL_SURFACE ( 'NONE', #726, 5.099999999999999645 ) ;
#709 = VERTEX_POINT ( 'NONE', #358 ) ;
#710 = DIRECTION ( 'NONE',  ( 0.000000000000000000, 0.000000000000000000, 1.000000000000000000 ) ) ;
#711 = DIRECTION ( 'NONE',  ( 0.000000000000000000, -0.000000000000000000, 1.000000000000000000 ) ) ;
#712 = ADVANCED_FACE ( 'NONE', ( #492 ), #276, .T. ) ;
#713 = VECTOR ( 'NONE', #697, 1000.000000000000000 ) ;
#714 = ORIENTED_EDGE ( 'NONE', *, *, #217, .T. ) ;
#715 = DIRECTION ( 'NONE',  ( -1.000000000000000000, -0.000000000000000000, -0.000000000000000000 ) ) ;
#716 = DIRECTION ( 'NONE',  ( -0.000000000000000000, 0.000000000000000000, -1.000000000000000000 ) ) ;
#717 = CYLINDRICAL_SURFACE ( 'NONE', #648, 24.00000000000000000 ) ;
#718 = DIRECTION ( 'NONE',  ( -1.000000000000000000, -0.000000000000000000, 0.000000000000000000 ) ) ;
#719 = EDGE_CURVE ( 'NONE', #863, #510, #362, .T. ) ;
#720 = DIRECTION ( 'NONE',  ( -0.000000000000000000, 0.000000000000000000, -1.000000000000000000 ) ) ;
#721 = DIRECTION ( 'NONE',  ( 0.000000000000000000, 0.000000000000000000, 1.000000000000000000 ) ) ;
#722 = ORIENTED_EDGE ( 'NONE', *, *, #562, .T. ) ;
#723 = CIRCLE ( 'NONE', #315, 4.099999999999999645 ) ;
#724 = VECTOR ( 'NONE', #684, 1000.000000000000000 ) ;
#725 =( GEOMETRIC_REPRESENTATION_CONTEXT ( 3 ) GLOBAL_UNCERTAINTY_ASSIGNED_CONTEXT ( ( #205 ) ) GLOBAL_UNIT_ASSIGNED_CONTEXT ( ( #109, #485, #180 ) ) REPRESENTATION_CONTEXT ( 'NONE', 'WORKASPACE' ) );
#726 = AXIS2_PLACEMENT_3D ( 'NONE', #568, #857, #493 ) ;
#727 = ORIENTED_EDGE ( 'NONE', *, *, #598, .T. ) ;
#728 = CARTESIAN_POINT ( 'NONE',  ( -4.299999999999999822, -75.00000000000000000, 6.000000000000000000 ) ) ;
#729 = ADVANCED_FACE ( 'NONE', ( #72 ), #348, .T. ) ;
#730 = DIRECTION ( 'NONE',  ( 0.000000000000000000, 0.000000000000000000, 1.000000000000000000 ) ) ;
#731 = APPLICATION_CONTEXT ( 'configuration controlled 3d designs of mechanical parts and assemblies' ) ;
#732 = ORIENTED_EDGE ( 'NONE', *, *, #103, .F. ) ;
#733 = ORIENTED_EDGE ( 'NONE', *, *, #422, .F. ) ;
#734 = FACE_OUTER_BOUND ( 'NONE', #706, .T. ) ;
#735 = FACE_OUTER_BOUND ( 'NONE', #549, .T. ) ;
#736 = ADVANCED_FACE ( 'NONE', ( #786 ), #61, .F. ) ;
#737 = ORIENTED_EDGE ( 'NONE', *, *, #769, .F. ) ;
#738 = EDGE_LOOP ( 'NONE', ( #242, #141, #323, #872 ) ) ;
#739 = DIRECTION ( 'NONE',  ( 0.000000000000000000, 0.000000000000000000, 1.000000000000000000 ) ) ;
#740 = PLANE ( 'NONE',  #839 ) ;
#741 = LINE ( 'NONE', #82, #273 ) ;
#742 = EDGE_CURVE ( 'NONE', #69, #221, #423, .T. ) ;
#743 = ORIENTED_EDGE ( 'NONE', *, *, #556, .F. ) ;
#744 = LOCAL_TIME ( 16, 21, 34.00000000000000000, #540 ) ;
#745 = CARTESIAN_POINT ( 'NONE',  ( 4.000000000000000000, -65.30127131734238333, 23.63333950050852650 ) ) ;
#746 = DIRECTION ( 'NONE',  ( 0.000000000000000000, 0.000000000000000000, -1.000000000000000000 ) ) ;
#747 = DIRECTION ( 'NONE',  ( 0.000000000000000000, -1.000000000000000000, -0.000000000000000000 ) ) ;
#748 = DESIGN_CONTEXT ( 'detailed design', #731, 'design' ) ;
#749 = ORIENTED_EDGE ( 'NONE', *, *, #799, .F. ) ;
#750 = CARTESIAN_POINT ( 'NONE',  ( -4.000000000000000000, -112.0000000000000142, -3.999999999999996447 ) ) ;
#751 = DIRECTION ( 'NONE',  ( -1.000000000000000000, -0.000000000000000000, 0.000000000000000000 ) ) ;
#752 = CARTESIAN_POINT ( 'NONE',  ( -4.000000000000000000, -95.00000000000000000, -7.266499161421592135 ) ) ;
#753 = ORIENTED_EDGE ( 'NONE', *, *, #628, .T. ) ;
#754 = DIRECTION ( 'NONE',  ( 0.000000000000000000, 0.000000000000000000, -1.000000000000000000 ) ) ;
#755 = EDGE_CURVE ( 'NONE', #879, #71, #500, .T. ) ;
#756 = CARTESIAN_POINT ( 'NONE',  ( 0.000000000000000000, -112.0000000000000142, -3.999999999999996447 ) ) ;
#757 = ORIENTED_EDGE ( 'NONE', *, *, #456, .T. ) ;
#758 = ORIENTED_EDGE ( 'NONE', *, *, #22, .T. ) ;
#759 = AXIS2_PLACEMENT_3D ( 'NONE', #338, #46, #405 ) ;
#760 = CYLINDRICAL_SURFACE ( 'NONE', #594, 24.00000000000000000 ) ;
#761 = EDGE_CURVE ( 'NONE', #661, #690, #574, .T. ) ;
#762 = CIRCLE ( 'NONE', #346, 24.00000000000000000 ) ;
#763 = CARTESIAN_POINT ( 'NONE',  ( 0.000000000000000000, -95.00000000000000000, -44.00000000000000000 ) ) ;
#764 = ORIENTED_EDGE ( 'NONE', *, *, #241, .T. ) ;
#765 = DATE_AND_TIME ( #682, #330 ) ;
#766 = DIRECTION ( 'NONE',  ( 1.000000000000000000, 0.000000000000000000, 0.000000000000000000 ) ) ;
#767 = CC_DESIGN_DATE_AND_TIME_ASSIGNMENT ( #100, #687, ( #563 ) ) ;
#768 = CARTESIAN_POINT ( 'NONE',  ( 0.000000000000000000, -109.0000000000000142, -44.00000000000000000 ) ) ;
#769 = EDGE_CURVE ( 'NONE', #858, #511, #352, .T. ) ;
#770 = VERTEX_POINT ( 'NONE', #644 ) ;
#771 = APPROVAL_ROLE ( '' ) ;
#772 = FACE_OUTER_BOUND ( 'NONE', #830, .T. ) ;
#773 = LINE ( 'NONE', #915, #803 ) ;
#774 = EDGE_CURVE ( 'NONE', #612, #858, #579, .T. ) ;
#775 = ORIENTED_EDGE ( 'NONE', *, *, #236, .T. ) ;
#776 = LINE ( 'NONE', #850, #277 ) ;
#777 = AXIS2_PLACEMENT_3D ( 'NONE', #308, #941, #739 ) ;
#778 = LINE ( 'NONE', #104, #317 ) ;
#779 = VERTEX_POINT ( 'NONE', #933 ) ;
#780 = CALENDAR_DATE ( 2026, 26, 8 ) ;
#781 = LINE ( 'NONE', #123, #133 ) ;
#782 = DIRECTION ( 'NONE',  ( -0.000000000000000000, 1.000000000000000000, 0.000000000000000000 ) ) ;
#783 = APPLICATION_CONTEXT ( 'configuration controlled 3d designs of mechanical parts and assemblies' ) ;
#784 = ORIENTED_EDGE ( 'NONE', *, *, #902, .F. ) ;
#785 = EDGE_LOOP ( 'NONE', ( #790, #340, #526, #233 ) ) ;
#786 = FACE_OUTER_BOUND ( 'NONE', #245, .T. ) ;
#787 = ADVANCED_FACE ( 'NONE', ( #504 ), #717, .T. ) ;
#788 = PLANE ( 'NONE',  #244 ) ;
#789 = VERTEX_POINT ( 'NONE', #646 ) ;
#790 = ORIENTED_EDGE ( 'NONE', *, *, #187, .F. ) ;
#791 = DIRECTION ( 'NONE',  ( 1.000000000000000000, 0.000000000000000000, -0.000000000000000000 ) ) ;
#792 = DIRECTION ( 'NONE',  ( 0.000000000000000000, -1.000000000000000000, 0.000000000000000000 ) ) ;
#793 = ORIENTED_EDGE ( 'NONE', *, *, #96, .F. ) ;
#794 = DIRECTION ( 'NONE',  ( 0.000000000000000000, -1.000000000000000000, -0.000000000000000000 ) ) ;
#795 = CARTESIAN_POINT ( 'NONE',  ( -4.000000000000000000, 92.00000000000001421, -8.000000000000000000 ) ) ;
#796 = PRODUCT_DEFINITION ( '�', '', #837, #748 ) ;
#797 = CARTESIAN_POINT ( 'NONE',  ( 4.000000000000000000, -75.00000000000000000, 6.000000000000000000 ) ) ;
#798 = CARTESIAN_POINT ( 'NONE',  ( 4.000000000000000000, -65.30127131734238333, 23.63333950050852650 ) ) ;
#799 = EDGE_CURVE ( 'NONE', #370, #842, #260, .T. ) ;
#800 = ORIENTED_EDGE ( 'NONE', *, *, #129, .F. ) ;
#801 = DIRECTION ( 'NONE',  ( 1.000000000000000000, 0.000000000000000000, 0.000000000000000000 ) ) ;
#802 = ORIENTED_EDGE ( 'NONE', *, *, #429, .F. ) ;
#803 = VECTOR ( 'NONE', #266, 1000.000000000000000 ) ;
#804 = VECTOR ( 'NONE', #261, 1000.000000000000000 ) ;
#805 = VERTEX_POINT ( 'NONE', #11 ) ;
#806 = CARTESIAN_POINT ( 'NONE',  ( -4.000000000000000000, -57.00000000000000000, -3.000000000000000000 ) ) ;
#807 = AXIS2_PLACEMENT_3D ( 'NONE', #522, #527, #90 ) ;
#808 = ADVANCED_FACE ( 'NONE', ( #15 ), #591, .F. ) ;
#809 = CARTESIAN_POINT ( 'NONE',  ( -4.000000000000000000, -75.00000000000000000, 6.000000000000000000 ) ) ;
#810 = EDGE_LOOP ( 'NONE', ( #491, #578, #905, #13 ) ) ;
#811 = ORIENTED_EDGE ( 'NONE', *, *, #570, .T. ) ;
#812 = CARTESIAN_POINT ( 'NONE',  ( 0.000000000000000000, -112.0000000000000142, -44.00000000000000000 ) ) ;
#813 = FACE_BOUND ( 'NONE', #939, .T. ) ;
#814 = ADVANCED_FACE ( 'NONE', ( #79 ), #607, .F. ) ;
#815 = CARTESIAN_POINT ( 'NONE',  ( -3.000000000000000000, 92.00000000000001421, -8.000000000000000000 ) ) ;
#816 = CARTESIAN_POINT ( 'NONE',  ( -4.000000000000000000, -109.0000000000000142, -19.99999999999999645 ) ) ;
#817 = DIRECTION ( 'NONE',  ( 1.000000000000000000, 0.000000000000000000, -0.000000000000000000 ) ) ;
#818 = PRODUCT_RELATED_PRODUCT_CATEGORY ( 'detail', '', ( #174 ) ) ;
#819 = DIRECTION ( 'NONE',  ( 1.000000000000000000, 0.000000000000000000, 0.000000000000000000 ) ) ;
#820 = VECTOR ( 'NONE', #41, 1000.000000000000000 ) ;
#821 = ORIENTED_EDGE ( 'NONE', *, *, #694, .F. ) ;
#822 = DIRECTION ( 'NONE',  ( 0.000000000000000000, 0.000000000000000000, 1.000000000000000000 ) ) ;
#823 = DIRECTION ( 'NONE',  ( 1.000000000000000000, 0.000000000000000000, 0.000000000000000000 ) ) ;
#824 = AXIS2_PLACEMENT_3D ( 'NONE', #453, #880, #754 ) ;
#825 = ORIENTED_EDGE ( 'NONE', *, *, #176, .T. ) ;
#826 = ORIENTED_EDGE ( 'NONE', *, *, #313, .T. ) ;
#827 = FACE_OUTER_BOUND ( 'NONE', #408, .T. ) ;
#828 = CARTESIAN_POINT ( 'NONE',  ( -4.000000000000000000, -95.00000000000000000, -19.99999999999999645 ) ) ;
#829 = ORIENTED_EDGE ( 'NONE', *, *, #896, .F. ) ;
#830 = EDGE_LOOP ( 'NONE', ( #677, #705, #811, #877 ) ) ;
#831 = PERSON_AND_ORGANIZATION ( #284, #650 ) ;
#832 = CYLINDRICAL_SURFACE ( 'NONE', #166, 24.00000000000000000 ) ;
#833 = CARTESIAN_POINT ( 'NONE',  ( -4.000000000000000000, -57.00000000000000000, -3.000000000000000000 ) ) ;
#834 = ORIENTED_EDGE ( 'NONE', *, *, #902, .T. ) ;
#835 = APPROVAL ( #43, '未' ) ;
#836 = APPROVAL_DATE_TIME ( #765, #835 ) ;
#837 = PRODUCT_DEFINITION_FORMATION_WITH_SPECIFIED_SOURCE ( '�', '', #174, .NOT_KNOWN. ) ;
#838 = AXIS2_PLACEMENT_3D ( 'NONE', #629, #692, #475 ) ;
#839 = AXIS2_PLACEMENT_3D ( 'NONE', #917, #255, #463 ) ;
#840 = LINE ( 'NONE', #918, #820 ) ;
#841 = CIRCLE ( 'NONE', #84, 24.00000000000000000 ) ;
#842 = VERTEX_POINT ( 'NONE', #229 ) ;
#843 = PERSON_AND_ORGANIZATION ( #284, #650 ) ;
#844 = ADVANCED_FACE ( 'NONE', ( #827 ), #305, .T. ) ;
#845 = LINE ( 'NONE', #768, #713 ) ;
#846 = VERTEX_POINT ( 'NONE', #300 ) ;
#847 = DIRECTION ( 'NONE',  ( -1.000000000000000000, -0.000000000000000000, -0.000000000000000000 ) ) ;
#848 = DIRECTION ( 'NONE',  ( -1.000000000000000000, -0.000000000000000000, 0.000000000000000000 ) ) ;
#849 = EDGE_LOOP ( 'NONE', ( #183, #525, #714, #457 ) ) ;
#850 = CARTESIAN_POINT ( 'NONE',  ( 4.000000000000000000, -103.5000000000000142, -44.00000000000000000 ) ) ;
#851 = AXIS2_PLACEMENT_3D ( 'NONE', #812, #383, #296 ) ;
#852 = LINE ( 'NONE', #110, #447 ) ;
#853 = VECTOR ( 'NONE', #65, 1000.000000000000000 ) ;
#854 = VERTEX_POINT ( 'NONE', #750 ) ;
#855 = EDGE_CURVE ( 'NONE', #467, #253, #580, .T. ) ;
#856 = ORIENTED_EDGE ( 'NONE', *, *, #934, .F. ) ;
#857 = DIRECTION ( 'NONE',  ( 1.000000000000000000, 0.000000000000000000, 0.000000000000000000 ) ) ;
#858 = VERTEX_POINT ( 'NONE', #816 ) ;
#859 = ADVANCED_FACE ( 'NONE', ( #519 ), #602, .T. ) ;
#860 = CARTESIAN_POINT ( 'NONE',  ( -4.000000000000000000, 4.500000000000000888, -19.99999999999999645 ) ) ;
#861 = CARTESIAN_POINT ( 'NONE',  ( 4.000000000000000000, -55.82646236600039202, 20.43521577939175771 ) ) ;
#862 = MANIFOLD_SOLID_BREP ( '8 x 28 mm 7075-T6 arm, diameter-48 root, load ear and captured-foot neck', #316 ) ;
#863 = VERTEX_POINT ( 'NONE', #440 ) ;
#864 = DIRECTION ( 'NONE',  ( 1.000000000000000000, 0.000000000000000000, -0.000000000000000000 ) ) ;
#865 = CARTESIAN_POINT ( 'NONE',  ( -4.000000000000000000, -75.00000000000000000, 6.000000000000000000 ) ) ;
#866 = VECTOR ( 'NONE', #239, 1000.000000000000000 ) ;
#867 = VERTEX_POINT ( 'NONE', #458 ) ;
#868 = CARTESIAN_POINT ( 'NONE',  ( -3.000000000000000000, 102.0000000000000142, -2.000000000000000000 ) ) ;
#869 = LINE ( 'NONE', #353, #699 ) ;
#870 = DIRECTION ( 'NONE',  ( 0.000000000000000000, 0.000000000000000000, 1.000000000000000000 ) ) ;
#871 = CARTESIAN_POINT ( 'NONE',  ( 0.000000000000000000, -109.0000000000000142, -44.00000000000000000 ) ) ;
#872 = ORIENTED_EDGE ( 'NONE', *, *, #103, .T. ) ;
#873 = EDGE_CURVE ( 'NONE', #295, #238, #243, .T. ) ;
#874 = ORIENTED_EDGE ( 'NONE', *, *, #313, .F. ) ;
#875 = DIRECTION ( 'NONE',  ( -0.000000000000000000, 1.000000000000000000, 0.000000000000000000 ) ) ;
#876 = CARTESIAN_POINT ( 'NONE',  ( 0.000000000000000000, -73.07580931444068995, 29.92274002294901436 ) ) ;
#877 = ORIENTED_EDGE ( 'NONE', *, *, #907, .T. ) ;
#878 = EDGE_CURVE ( 'NONE', #709, #210, #20, .T. ) ;
#879 = VERTEX_POINT ( 'NONE', #891 ) ;
#880 = DIRECTION ( 'NONE',  ( 1.000000000000000000, 0.000000000000000000, 0.000000000000000000 ) ) ;
#881 = CARTESIAN_POINT ( 'NONE',  ( -4.000000000000000000, -55.82646236600039913, 20.43521577939175771 ) ) ;
#882 = EDGE_LOOP ( 'NONE', ( #275, #912 ) ) ;
#883 = CARTESIAN_POINT ( 'NONE',  ( -4.000000000000000000, -103.5000000000000142, -44.00000000000000000 ) ) ;
#884 = CARTESIAN_POINT ( 'NONE',  ( -4.000000000000000000, -96.81742422927142400, -3.999999999999996447 ) ) ;
#885 = ORIENTED_EDGE ( 'NONE', *, *, #498, .T. ) ;
#886 = CARTESIAN_POINT ( 'NONE',  ( 4.000000000000000000, -75.00000000000000000, 6.000000000000000000 ) ) ;
#887 = CARTESIAN_POINT ( 'NONE',  ( 4.000000000000000000, -95.00000000000000000, -7.266499161421592135 ) ) ;
#888 = CARTESIAN_POINT ( 'NONE',  ( -3.000000000000000000, 93.50000000000000000, 14.00000000000000000 ) ) ;
#889 = CIRCLE ( 'NONE', #480, 24.00000000000000000 ) ;
#890 = ORIENTED_EDGE ( 'NONE', *, *, #371, .T. ) ;
#891 = CARTESIAN_POINT ( 'NONE',  ( 4.000000000000000000, -96.81742422927142400, -3.999999999999996447 ) ) ;
#892 = AXIS2_PLACEMENT_3D ( 'NONE', #871, #792, #1 ) ;
#893 = DIRECTION ( 'NONE',  ( 1.000000000000000000, 0.000000000000000000, 0.000000000000000000 ) ) ;
#894 = VECTOR ( 'NONE', #710, 1000.000000000000000 ) ;
#895 = DIRECTION ( 'NONE',  ( -1.000000000000000000, -0.000000000000000000, -0.000000000000000000 ) ) ;
#896 = EDGE_CURVE ( 'NONE', #495, #789, #587, .T. ) ;
#897 = VERTEX_POINT ( 'NONE', #311 ) ;
#898 = DIRECTION ( 'NONE',  ( 0.000000000000000000, 0.000000000000000000, 1.000000000000000000 ) ) ;
#899 = LINE ( 'NONE', #542, #428 ) ;
#900 = CC_DESIGN_PERSON_AND_ORGANIZATION_ASSIGNMENT ( #831, #184, ( #563 ) ) ;
#901 = ORIENTED_EDGE ( 'NONE', *, *, #556, .T. ) ;
#902 = EDGE_CURVE ( 'NONE', #93, #370, #608, .T. ) ;
#903 = CALENDAR_DATE ( 2026, 26, 8 ) ;
#904 = LINE ( 'NONE', #196, #131 ) ;
#905 = ORIENTED_EDGE ( 'NONE', *, *, #303, .F. ) ;
#906 = APPROVAL_STATUS ( 'not_yet_approved' ) ;
#907 = EDGE_CURVE ( 'NONE', #709, #863, #889, .T. ) ;
#908 = VECTOR ( 'NONE', #893, 1000.000000000000000 ) ;
#909 = DIRECTION ( 'NONE',  ( -0.000000000000000000, 1.000000000000000000, 0.000000000000000000 ) ) ;
#910 = CARTESIAN_POINT ( 'NONE',  ( 4.000000000000000000, -65.30127131734238333, 27.73333950050852792 ) ) ;
#911 = VECTOR ( 'NONE', #794, 1000.000000000000000 ) ;
#912 = ORIENTED_EDGE ( 'NONE', *, *, #873, .F. ) ;
#913 = CALENDAR_DATE ( 2026, 26, 8 ) ;
#914 = LINE ( 'NONE', #264, #486 ) ;
#915 = CARTESIAN_POINT ( 'NONE',  ( 4.000000000000000000, 4.500000000000000888, 20.00000000000000000 ) ) ;
#916 = VERTEX_POINT ( 'NONE', #668 ) ;
#917 = CARTESIAN_POINT ( 'NONE',  ( -4.000000000000000000, 4.500000000000000888, -8.000000000000000000 ) ) ;
#918 = CARTESIAN_POINT ( 'NONE',  ( -4.000000000000000000, -55.50641131038207021, 20.00000000000000000 ) ) ;
#919 = EDGE_LOOP ( 'NONE', ( #227, #438, #108, #693 ) ) ;
#920 = ORIENTED_EDGE ( 'NONE', *, *, #437, .T. ) ;
#921 = CARTESIAN_POINT ( 'NONE',  ( 4.000000000000000000, -65.30127131734238333, 19.53333950050852863 ) ) ;
#922 = DIRECTION ( 'NONE',  ( 1.000000000000000000, 0.000000000000000000, -0.000000000000000000 ) ) ;
#923 = AXIS2_PLACEMENT_3D ( 'NONE', #143, #720, #937 ) ;
#924 = EDGE_CURVE ( 'NONE', #673, #218, #723, .T. ) ;
#925 = EDGE_LOOP ( 'NONE', ( #737, #387, #920, #890, #901, #802, #601, #543, #382, #634, #584, #643, #564, #19 ) ) ;
#926 = VERTEX_POINT ( 'NONE', #234 ) ;
#927 = LINE ( 'NONE', #653, #700 ) ;
#928 = DIRECTION ( 'NONE',  ( 0.000000000000000000, 0.000000000000000000, -1.000000000000000000 ) ) ;
#929 = CC_DESIGN_PERSON_AND_ORGANIZATION_ASSIGNMENT ( #193, #320, ( #174 ) ) ;
#930 = ADVANCED_FACE ( 'NONE', ( #734 ), #152, .F. ) ;
#931 = ORIENTED_EDGE ( 'NONE', *, *, #241, .F. ) ;
#932 = DIRECTION ( 'NONE',  ( 1.000000000000000000, 0.000000000000000000, -0.000000000000000000 ) ) ;
#933 = CARTESIAN_POINT ( 'NONE',  ( 3.000000000000000000, 102.0000000000000142, 14.00000000000000000 ) ) ;
#934 = EDGE_CURVE ( 'NONE', #221, #71, #379, .T. ) ;
#935 = DIRECTION ( 'NONE',  ( 0.000000000000000000, 0.000000000000000000, 1.000000000000000000 ) ) ;
#936 = AXIS2_PLACEMENT_3D ( 'NONE', #391, #232, #455 ) ;
#937 = DIRECTION ( 'NONE',  ( -1.000000000000000000, 0.000000000000000000, 0.000000000000000000 ) ) ;
#938 = LINE ( 'NONE', #581, #101 ) ;
#939 = EDGE_LOOP ( 'NONE', ( #452, #142 ) ) ;
#940 = ORIENTED_EDGE ( 'NONE', *, *, #774, .T. ) ;
#941 = DIRECTION ( 'NONE',  ( -1.000000000000000000, -0.000000000000000000, -0.000000000000000000 ) ) ;
ENDSEC;
END-ISO-10303-21;
