ISO-10303-21;
HEADER;
FILE_DESCRIPTION (( 'STEP AP203' ),
    '1' );
FILE_NAME ('UpperAudio_V04_2x4_TRS635.STEP',
    '2026-08-25T12:37:36',
    ( '' ),
    ( '' ),
    'SwSTEP 2.0',
    'SolidWorks 2025',
    '' );
FILE_SCHEMA (( 'CONFIG_CONTROL_DESIGN' ));
ENDSEC;

DATA;
#1 = VERTEX_POINT ( 'NONE', #571 ) ;
#2 = FACE_OUTER_BOUND ( 'NONE', #713, .T. ) ;
#3 = AXIS2_PLACEMENT_3D ( 'NONE', #882, #353, #375 ) ;
#4 = LINE ( 'NONE', #978, #708 ) ;
#5 = PRODUCT ( 'UpperAudio_V04_2x4_TRS635', 'UpperAudio_V04_2x4_TRS635', '', ( #610 ) ) ;
#6 = DIRECTION ( 'NONE',  ( 0.000000000000000000, 0.000000000000000000, 1.000000000000000000 ) ) ;
#7 = EDGE_LOOP ( 'NONE', ( #1029, #549, #780, #702 ) ) ;
#8 = ORIENTED_EDGE ( 'NONE', *, *, #628, .F. ) ;
#9 = EDGE_CURVE ( 'NONE', #452, #1078, #1111, .T. ) ;
#10 = DIRECTION ( 'NONE',  ( 0.000000000000000000, 1.000000000000000000, 0.000000000000000000 ) ) ;
#11 = PLANE ( 'NONE',  #508 ) ;
#12 = ORIENTED_EDGE ( 'NONE', *, *, #378, .F. ) ;
#13 = VERTEX_POINT ( 'NONE', #745 ) ;
#14 = ORIENTED_EDGE ( 'NONE', *, *, #137, .F. ) ;
#15 = DIRECTION ( 'NONE',  ( 0.000000000000000000, 0.000000000000000000, 1.000000000000000000 ) ) ;
#16 = DIRECTION ( 'NONE',  ( 0.000000000000000000, 0.000000000000000000, 1.000000000000000000 ) ) ;
#17 = AXIS2_PLACEMENT_3D ( 'NONE', #721, #396, #1077 ) ;
#18 = ORIENTED_EDGE ( 'NONE', *, *, #893, .F. ) ;
#19 = ORIENTED_EDGE ( 'NONE', *, *, #29, .F. ) ;
#20 = AXIS2_PLACEMENT_3D ( 'NONE', #187, #783, #287 ) ;
#21 = CARTESIAN_POINT ( 'NONE',  ( -60.00000000000000000, -1.000000000000000000, 58.00000000000000000 ) ) ;
#22 = LINE ( 'NONE', #787, #453 ) ;
#23 = ORIENTED_EDGE ( 'NONE', *, *, #295, .F. ) ;
#24 = APPROVAL ( #752, '未' ) ;
#25 = CARTESIAN_POINT ( 'NONE',  ( -93.00000000000000000, 1.000000000000000000, 80.00000000000000000 ) ) ;
#26 = CARTESIAN_POINT ( 'NONE',  ( 0.000000000000000000, -1.000000000000000000, 0.000000000000000000 ) ) ;
#27 = DIRECTION ( 'NONE',  ( 0.000000000000000000, -1.000000000000000000, -0.000000000000000000 ) ) ;
#28 = ORIENTED_EDGE ( 'NONE', *, *, #789, .F. ) ;
#29 = EDGE_CURVE ( 'NONE', #408, #1093, #968, .T. ) ;
#30 = VERTEX_POINT ( 'NONE', #583 ) ;
#31 = DIRECTION ( 'NONE',  ( 0.000000000000000000, 0.000000000000000000, 1.000000000000000000 ) ) ;
#32 = DIRECTION ( 'NONE',  ( 0.000000000000000000, -1.000000000000000000, -0.000000000000000000 ) ) ;
#33 = CARTESIAN_POINT ( 'NONE',  ( -20.00000000000000000, -1.399999999999999911, 58.00000000000000000 ) ) ;
#34 = ORIENTED_EDGE ( 'NONE', *, *, #29, .T. ) ;
#35 = DIRECTION ( 'NONE',  ( -0.000000000000000000, 1.000000000000000000, 0.000000000000000000 ) ) ;
#36 = UNCERTAINTY_MEASURE_WITH_UNIT (LENGTH_MEASURE( 1.000000000000000082E-05 ), #184, 'distance_accuracy_value', 'NONE');
#37 = CC_DESIGN_DATE_AND_TIME_ASSIGNMENT ( #324, #1020, ( #950 ) ) ;
#38 = DIRECTION ( 'NONE',  ( 0.000000000000000000, 0.000000000000000000, 1.000000000000000000 ) ) ;
#39 = AXIS2_PLACEMENT_3D ( 'NONE', #205, #751, #643 ) ;
#40 = DIRECTION ( 'NONE',  ( 0.000000000000000000, 1.000000000000000000, 0.000000000000000000 ) ) ;
#41 = VERTEX_POINT ( 'NONE', #864 ) ;
#42 = CIRCLE ( 'NONE', #129, 5.600000000000000533 ) ;
#43 = EDGE_CURVE ( 'NONE', #255, #938, #770, .T. ) ;
#44 = ORIENTED_EDGE ( 'NONE', *, *, #429, .F. ) ;
#45 = DIRECTION ( 'NONE',  ( 0.000000000000000000, 0.000000000000000000, 1.000000000000000000 ) ) ;
#46 = ADVANCED_FACE ( 'NONE', ( #325 ), #1123, .F. ) ;
#47 = FACE_BOUND ( 'NONE', #811, .T. ) ;
#48 = EDGE_CURVE ( 'NONE', #501, #697, #256, .T. ) ;
#49 = DIRECTION ( 'NONE',  ( 0.000000000000000000, 1.000000000000000000, 0.000000000000000000 ) ) ;
#50 = ORIENTED_EDGE ( 'NONE', *, *, #596, .F. ) ;
#51 = CARTESIAN_POINT ( 'NONE',  ( 0.000000000000000000, 1.000000000000000000, 0.000000000000000000 ) ) ;
#52 = CYLINDRICAL_SURFACE ( 'NONE', #1054, 5.600000000000000533 ) ;
#53 = ORIENTED_EDGE ( 'NONE', *, *, #1090, .T. ) ;
#54 = ORIENTED_EDGE ( 'NONE', *, *, #161, .F. ) ;
#55 = AXIS2_PLACEMENT_3D ( 'NONE', #177, #933, #270 ) ;
#56 = AXIS2_PLACEMENT_3D ( 'NONE', #847, #498, #156 ) ;
#57 = DIRECTION ( 'NONE',  ( 0.000000000000000000, 0.000000000000000000, 1.000000000000000000 ) ) ;
#58 = EDGE_CURVE ( 'NONE', #977, #971, #472, .T. ) ;
#59 = CARTESIAN_POINT ( 'NONE',  ( -20.00000000000000000, -1.000000000000000000, 16.39999999999999858 ) ) ;
#60 = VERTEX_POINT ( 'NONE', #686 ) ;
#61 = CIRCLE ( 'NONE', #524, 5.600000000000000533 ) ;
#62 = FACE_BOUND ( 'NONE', #867, .T. ) ;
#63 = CALENDAR_DATE ( 2026, 25, 8 ) ;
#64 = CARTESIAN_POINT ( 'NONE',  ( 60.00000000000000000, 1.000000000000000222, 22.00000000000000000 ) ) ;
#65 = FACE_OUTER_BOUND ( 'NONE', #917, .T. ) ;
#66 = DIRECTION ( 'NONE',  ( -0.000000000000000000, 1.000000000000000000, 0.000000000000000000 ) ) ;
#67 = PERSON_AND_ORGANIZATION ( #432, #141 ) ;
#68 = DIRECTION ( 'NONE',  ( 0.000000000000000000, 0.000000000000000000, -1.000000000000000000 ) ) ;
#69 = LINE ( 'NONE', #415, #74 ) ;
#70 = ORIENTED_EDGE ( 'NONE', *, *, #1122, .F. ) ;
#71 = EDGE_LOOP ( 'NONE', ( #392, #878 ) ) ;
#72 = DIRECTION ( 'NONE',  ( 0.000000000000000000, 0.000000000000000000, 1.000000000000000000 ) ) ;
#73 = CYLINDRICAL_SURFACE ( 'NONE', #723, 5.600000000000000533 ) ;
#74 = VECTOR ( 'NONE', #755, 1000.000000000000000 ) ;
#75 = ORIENTED_EDGE ( 'NONE', *, *, #547, .F. ) ;
#76 = EDGE_CURVE ( 'NONE', #461, #144, #1112, .T. ) ;
#77 = EDGE_LOOP ( 'NONE', ( #23, #800, #215, #34 ) ) ;
#78 = AXIS2_PLACEMENT_3D ( 'NONE', #172, #842, #68 ) ;
#79 = AXIS2_PLACEMENT_3D ( 'NONE', #715, #66, #45 ) ;
#80 = ADVANCED_FACE ( 'NONE', ( #665 ), #1026, .F. ) ;
#81 = CARTESIAN_POINT ( 'NONE',  ( 86.00000000000000000, -1.000000000000000000, 5.000000000000000000 ) ) ;
#82 = CARTESIAN_POINT ( 'NONE',  ( 20.00000000000000000, 1.000000000000000222, 22.00000000000000000 ) ) ;
#83 = VERTEX_POINT ( 'NONE', #167 ) ;
#84 = ORIENTED_EDGE ( 'NONE', *, *, #628, .T. ) ;
#85 = CARTESIAN_POINT ( 'NONE',  ( 86.00000000000000000, 1.000000000000000222, 75.00000000000000000 ) ) ;
#86 = DIRECTION ( 'NONE',  ( 0.000000000000000000, 0.000000000000000000, 1.000000000000000000 ) ) ;
#87 = VERTEX_POINT ( 'NONE', #422 ) ;
#88 = CARTESIAN_POINT ( 'NONE',  ( -20.00000000000000000, -1.399999999999999911, 27.59999999999999787 ) ) ;
#89 = ADVANCED_FACE ( 'NONE', ( #849, #514, #426, #1021, #767, #1041, #940, #238, #934, #682, #152, #677, #602 ), #504, .T. ) ;
#90 = DIRECTION ( 'NONE',  ( 0.000000000000000000, 0.000000000000000000, -1.000000000000000000 ) ) ;
#91 = ORIENTED_EDGE ( 'NONE', *, *, #1118, .T. ) ;
#92 = CIRCLE ( 'NONE', #1024, 5.600000000000000533 ) ;
#93 = PERSON_AND_ORGANIZATION_ROLE ( 'creator' ) ;
#94 = CIRCLE ( 'NONE', #335, 1.600000000000004086 ) ;
#95 = DIRECTION ( 'NONE',  ( 0.000000000000000000, 0.000000000000000000, -1.000000000000000000 ) ) ;
#96 = CARTESIAN_POINT ( 'NONE',  ( 93.00000000000000000, 1.000000000000000000, 0.000000000000000000 ) ) ;
#97 = ORIENTED_EDGE ( 'NONE', *, *, #331, .T. ) ;
#98 = DIRECTION ( 'NONE',  ( 0.000000000000000000, 1.000000000000000000, 0.000000000000000000 ) ) ;
#99 = DIRECTION ( 'NONE',  ( 0.000000000000000000, -1.000000000000000000, -0.000000000000000000 ) ) ;
#100 = CARTESIAN_POINT ( 'NONE',  ( -93.00000000000000000, -1.000000000000000000, 80.00000000000000000 ) ) ;
#101 = ORIENTED_EDGE ( 'NONE', *, *, #394, .F. ) ;
#102 = DIRECTION ( 'NONE',  ( 0.000000000000000000, 0.000000000000000000, 1.000000000000000000 ) ) ;
#103 = APPROVAL ( #982, '未' ) ;
#104 = LINE ( 'NONE', #434, #965 ) ;
#105 = AXIS2_PLACEMENT_3D ( 'NONE', #33, #49, #822 ) ;
#106 = ORIENTED_EDGE ( 'NONE', *, *, #846, .F. ) ;
#107 = COORDINATED_UNIVERSAL_TIME_OFFSET ( 8, 0, .AHEAD. ) ;
#108 = VECTOR ( 'NONE', #197, 1000.000000000000000 ) ;
#109 = DIRECTION ( 'NONE',  ( -0.000000000000000000, 1.000000000000000000, 0.000000000000000000 ) ) ;
#110 = VECTOR ( 'NONE', #206, 1000.000000000000000 ) ;
#111 = CYLINDRICAL_SURFACE ( 'NONE', #887, 5.600000000000000533 ) ;
#112 = EDGE_CURVE ( 'NONE', #87, #675, #493, .T. ) ;
#113 = VERTEX_POINT ( 'NONE', #414 ) ;
#114 = CARTESIAN_POINT ( 'NONE',  ( 93.00000000000000000, 0.000000000000000000, 0.000000000000000000 ) ) ;
#115 = LINE ( 'NONE', #26, #671 ) ;
#116 = FACE_OUTER_BOUND ( 'NONE', #469, .T. ) ;
#117 = ORIENTED_EDGE ( 'NONE', *, *, #658, .F. ) ;
#118 = CARTESIAN_POINT ( 'NONE',  ( -93.00000000000000000, 0.000000000000000000, 0.000000000000000000 ) ) ;
#119 = CARTESIAN_POINT ( 'NONE',  ( 60.00000000000000000, 1.000000000000000222, 27.59999999999999787 ) ) ;
#120 = DIRECTION ( 'NONE',  ( 0.000000000000000000, 0.000000000000000000, 1.000000000000000000 ) ) ;
#121 = DIRECTION ( 'NONE',  ( -0.000000000000000000, 1.000000000000000000, 0.000000000000000000 ) ) ;
#122 = EDGE_LOOP ( 'NONE', ( #931, #350 ) ) ;
#123 = PERSON_AND_ORGANIZATION ( #432, #141 ) ;
#124 = EDGE_CURVE ( 'NONE', #30, #652, #1030, .T. ) ;
#125 = CARTESIAN_POINT ( 'NONE',  ( -60.00000000000000000, -1.000000000000000000, 22.00000000000000000 ) ) ;
#126 = AXIS2_PLACEMENT_3D ( 'NONE', #168, #423, #326 ) ;
#127 = CYLINDRICAL_SURFACE ( 'NONE', #796, 5.600000000000000533 ) ;
#128 = CARTESIAN_POINT ( 'NONE',  ( -86.00000000000000000, -1.399999999999999911, 76.59999999999999432 ) ) ;
#129 = AXIS2_PLACEMENT_3D ( 'NONE', #798, #528, #876 ) ;
#130 = ORIENTED_EDGE ( 'NONE', *, *, #680, .F. ) ;
#131 = AXIS2_PLACEMENT_3D ( 'NONE', #467, #660, #38 ) ;
#132 = VERTEX_POINT ( 'NONE', #1107 ) ;
#133 = DIRECTION ( 'NONE',  ( 0.000000000000000000, -1.000000000000000000, -0.000000000000000000 ) ) ;
#134 = CARTESIAN_POINT ( 'NONE',  ( -60.00000000000000000, 1.000000000000000222, 58.00000000000000000 ) ) ;
#135 = EDGE_LOOP ( 'NONE', ( #649, #166, #647, #829 ) ) ;
#136 = ORIENTED_EDGE ( 'NONE', *, *, #794, .F. ) ;
#137 = EDGE_CURVE ( 'NONE', #255, #963, #404, .T. ) ;
#138 = CARTESIAN_POINT ( 'NONE',  ( 86.00000000000000000, -1.000000000000000000, 73.39999999999999147 ) ) ;
#139 = LINE ( 'NONE', #993, #667 ) ;
#140 = ORIENTED_EDGE ( 'NONE', *, *, #76, .T. ) ;
#141 = ORGANIZATION ( '未', '未', '' ) ;
#142 = CARTESIAN_POINT ( 'NONE',  ( 20.00000000000000000, 1.000000000000000222, 16.39999999999999858 ) ) ;
#143 = COORDINATED_UNIVERSAL_TIME_OFFSET ( 8, 0, .AHEAD. ) ;
#144 = VERTEX_POINT ( 'NONE', #588 ) ;
#145 = CIRCLE ( 'NONE', #39, 5.600000000000000533 ) ;
#146 = EDGE_CURVE ( 'NONE', #938, #962, #386, .T. ) ;
#147 = DIRECTION ( 'NONE',  ( 0.000000000000000000, 0.000000000000000000, 1.000000000000000000 ) ) ;
#148 = LINE ( 'NONE', #496, #182 ) ;
#149 = AXIS2_PLACEMENT_3D ( 'NONE', #286, #186, #195 ) ;
#150 = ORIENTED_EDGE ( 'NONE', *, *, #789, .T. ) ;
#151 = PERSON_AND_ORGANIZATION_ROLE ( 'design_owner' ) ;
#152 = FACE_BOUND ( 'NONE', #749, .T. ) ;
#153 = CARTESIAN_POINT ( 'NONE',  ( 20.00000000000000000, -1.000000000000000000, 27.59999999999999787 ) ) ;
#154 = EDGE_LOOP ( 'NONE', ( #169, #927, #633, #229 ) ) ;
#155 = CC_DESIGN_PERSON_AND_ORGANIZATION_ASSIGNMENT ( #123, #622, ( #236 ) ) ;
#156 = DIRECTION ( 'NONE',  ( 1.000000000000000000, 0.000000000000000000, 0.000000000000000000 ) ) ;
#157 = DIRECTION ( 'NONE',  ( 1.000000000000000000, 0.000000000000000000, -0.000000000000000000 ) ) ;
#158 = ADVANCED_FACE ( 'NONE', ( #951 ), #591, .F. ) ;
#159 = DIRECTION ( 'NONE',  ( 0.000000000000000000, 1.000000000000000000, 0.000000000000000000 ) ) ;
#160 = VERTEX_POINT ( 'NONE', #618 ) ;
#161 = EDGE_CURVE ( 'NONE', #283, #506, #272, .T. ) ;
#162 = CIRCLE ( 'NONE', #521, 5.600000000000000533 ) ;
#163 = DIRECTION ( 'NONE',  ( 0.000000000000000000, -0.000000000000000000, 1.000000000000000000 ) ) ;
#164 = DIRECTION ( 'NONE',  ( 0.000000000000000000, 1.000000000000000000, 0.000000000000000000 ) ) ;
#165 = CIRCLE ( 'NONE', #792, 5.600000000000000533 ) ;
#166 = ORIENTED_EDGE ( 'NONE', *, *, #753, .T. ) ;
#167 = CARTESIAN_POINT ( 'NONE',  ( -60.00000000000000000, -1.000000000000000000, 16.39999999999999858 ) ) ;
#168 = CARTESIAN_POINT ( 'NONE',  ( 60.00000000000000000, -1.000000000000000000, 58.00000000000000000 ) ) ;
#169 = ORIENTED_EDGE ( 'NONE', *, *, #954, .F. ) ;
#170 = EDGE_CURVE ( 'NONE', #862, #691, #637, .T. ) ;
#171 = ADVANCED_FACE ( 'NONE', ( #266 ), #1045, .F. ) ;
#172 = CARTESIAN_POINT ( 'NONE',  ( 20.00000000000000000, -1.000000000000000000, 22.00000000000000000 ) ) ;
#173 = CARTESIAN_POINT ( 'NONE',  ( -20.00000000000000000, 1.000000000000000222, 58.00000000000000000 ) ) ;
#174 = ADVANCED_FACE ( 'NONE', ( #967 ), #1065, .F. ) ;
#175 = EDGE_LOOP ( 'NONE', ( #873, #249, #674, #254 ) ) ;
#176 = EDGE_LOOP ( 'NONE', ( #942, #866 ) ) ;
#177 = CARTESIAN_POINT ( 'NONE',  ( 20.00000000000000000, -1.000000000000000000, 58.00000000000000000 ) ) ;
#178 = VECTOR ( 'NONE', #907, 1000.000000000000000 ) ;
#179 = CARTESIAN_POINT ( 'NONE',  ( 86.00000000000000000, -1.000000000000000000, 75.00000000000000000 ) ) ;
#180 = CARTESIAN_POINT ( 'NONE',  ( 60.00000000000000000, -1.399999999999999911, 52.40000000000000568 ) ) ;
#181 = EDGE_LOOP ( 'NONE', ( #1096, #679, #91, #769 ) ) ;
#182 = VECTOR ( 'NONE', #839, 1000.000000000000000 ) ;
#183 = AXIS2_PLACEMENT_3D ( 'NONE', #627, #892, #991 ) ;
#184 =( LENGTH_UNIT ( ) NAMED_UNIT ( * ) SI_UNIT ( .MILLI., .METRE. ) );
#185 = AXIS2_PLACEMENT_3D ( 'NONE', #371, #786, #15 ) ;
#186 = DIRECTION ( 'NONE',  ( 0.000000000000000000, 1.000000000000000000, 0.000000000000000000 ) ) ;
#187 = CARTESIAN_POINT ( 'NONE',  ( -86.00000000000000000, 1.000000000000000222, 75.00000000000000000 ) ) ;
#188 = EDGE_LOOP ( 'NONE', ( #75, #788 ) ) ;
#189 = DIRECTION ( 'NONE',  ( 1.000000000000000000, 0.000000000000000000, -0.000000000000000000 ) ) ;
#190 = CARTESIAN_POINT ( 'NONE',  ( 20.00000000000000000, -1.399999999999999911, 58.00000000000000000 ) ) ;
#191 = ORIENTED_EDGE ( 'NONE', *, *, #693, .T. ) ;
#192 = EDGE_LOOP ( 'NONE', ( #1116, #512, #1067, #28 ) ) ;
#193 = EDGE_CURVE ( 'NONE', #691, #862, #42, .T. ) ;
#194 = EDGE_CURVE ( 'NONE', #765, #606, #778, .T. ) ;
#195 = DIRECTION ( 'NONE',  ( 0.000000000000000000, 0.000000000000000000, 1.000000000000000000 ) ) ;
#196 = EDGE_CURVE ( 'NONE', #210, #322, #115, .T. ) ;
#197 = DIRECTION ( 'NONE',  ( 0.000000000000000000, 1.000000000000000000, 0.000000000000000000 ) ) ;
#198 = ORIENTED_EDGE ( 'NONE', *, *, #43, .F. ) ;
#199 = CARTESIAN_POINT ( 'NONE',  ( 20.00000000000000000, -1.399999999999999911, 22.00000000000000000 ) ) ;
#200 = CIRCLE ( 'NONE', #705, 1.600000000000004086 ) ;
#201 = CARTESIAN_POINT ( 'NONE',  ( 60.00000000000000000, -1.399999999999999911, 58.00000000000000000 ) ) ;
#202 = VECTOR ( 'NONE', #109, 1000.000000000000000 ) ;
#203 = LINE ( 'NONE', #546, #1104 ) ;
#204 = EDGE_LOOP ( 'NONE', ( #482, #373, #303, #191 ) ) ;
#205 = CARTESIAN_POINT ( 'NONE',  ( -20.00000000000000000, -1.000000000000000000, 22.00000000000000000 ) ) ;
#206 = DIRECTION ( 'NONE',  ( -1.000000000000000000, -0.000000000000000000, 0.000000000000000000 ) ) ;
#207 = CARTESIAN_POINT ( 'NONE',  ( -93.00000000000000000, 0.000000000000000000, 0.000000000000000000 ) ) ;
#208 = EDGE_LOOP ( 'NONE', ( #1000, #901 ) ) ;
#209 = EDGE_CURVE ( 'NONE', #382, #662, #1040, .T. ) ;
#210 = VERTEX_POINT ( 'NONE', #450 ) ;
#211 = SECURITY_CLASSIFICATION_LEVEL ( 'unclassified' ) ;
#212 = DIRECTION ( 'NONE',  ( 0.000000000000000000, 0.000000000000000000, 1.000000000000000000 ) ) ;
#213 = FACE_OUTER_BOUND ( 'NONE', #181, .T. ) ;
#214 = DIRECTION ( 'NONE',  ( 0.000000000000000000, 0.000000000000000000, -1.000000000000000000 ) ) ;
#215 = ORIENTED_EDGE ( 'NONE', *, *, #425, .T. ) ;
#216 = CC_DESIGN_APPROVAL ( #103, ( #236 ) ) ;
#217 = DESIGN_CONTEXT ( 'detailed design', #1084, 'design' ) ;
#218 = VECTOR ( 'NONE', #936, 1000.000000000000000 ) ;
#219 = DIRECTION ( 'NONE',  ( 0.000000000000000000, 0.000000000000000000, 1.000000000000000000 ) ) ;
#220 = AXIS2_PLACEMENT_3D ( 'NONE', #517, #345, #72 ) ;
#221 = CYLINDRICAL_SURFACE ( 'NONE', #105, 5.600000000000000533 ) ;
#222 = CIRCLE ( 'NONE', #654, 1.600000000000004086 ) ;
#223 = ORIENTED_EDGE ( 'NONE', *, *, #1049, .T. ) ;
#224 = CIRCLE ( 'NONE', #762, 1.599999999999999867 ) ;
#225 = APPROVAL ( #781, '未' ) ;
#226 = LINE ( 'NONE', #906, #475 ) ;
#227 = CARTESIAN_POINT ( 'NONE',  ( -20.00000000000000000, 1.000000000000000222, 16.39999999999999858 ) ) ;
#228 = ORIENTED_EDGE ( 'NONE', *, *, #1009, .F. ) ;
#229 = ORIENTED_EDGE ( 'NONE', *, *, #1005, .T. ) ;
#230 = FACE_BOUND ( 'NONE', #953, .T. ) ;
#231 = EDGE_CURVE ( 'NONE', #1043, #652, #437, .T. ) ;
#232 = APPLICATION_PROTOCOL_DEFINITION ( 'international standard', 'config_control_design', 1994, #399 ) ;
#233 = ORIENTED_EDGE ( 'NONE', *, *, #676, .T. ) ;
#234 = CARTESIAN_POINT ( 'NONE',  ( -60.00000000000000000, 1.000000000000000222, 27.59999999999999787 ) ) ;
#235 = AXIS2_PLACEMENT_3D ( 'NONE', #134, #1088, #744 ) ;
#236 = SECURITY_CLASSIFICATION ( '', '', #211 ) ;
#237 = DIRECTION ( 'NONE',  ( -0.000000000000000000, 1.000000000000000000, 0.000000000000000000 ) ) ;
#238 = FACE_BOUND ( 'NONE', #71, .T. ) ;
#239 = AXIS2_PLACEMENT_3D ( 'NONE', #772, #1022, #584 ) ;
#240 = LINE ( 'NONE', #1120, #832 ) ;
#241 = CARTESIAN_POINT ( 'NONE',  ( 20.00000000000000000, -1.399999999999999911, 63.60000000000000142 ) ) ;
#242 = VECTOR ( 'NONE', #607, 1000.000000000000000 ) ;
#243 = ORIENTED_EDGE ( 'NONE', *, *, #196, .F. ) ;
#244 = EDGE_CURVE ( 'NONE', #322, #13, #791, .T. ) ;
#245 = LINE ( 'NONE', #1050, #1056 ) ;
#246 = DIRECTION ( 'NONE',  ( 0.000000000000000000, 0.000000000000000000, -1.000000000000000000 ) ) ;
#247 = EDGE_CURVE ( 'NONE', #971, #41, #4, .T. ) ;
#248 = CARTESIAN_POINT ( 'NONE',  ( 86.00000000000000000, 1.000000000000000222, 6.599999999999999645 ) ) ;
#249 = ORIENTED_EDGE ( 'NONE', *, *, #954, .T. ) ;
#250 = EDGE_CURVE ( 'NONE', #774, #701, #742, .T. ) ;
#251 = ORIENTED_EDGE ( 'NONE', *, *, #644, .F. ) ;
#252 = DIRECTION ( 'NONE',  ( 0.000000000000000000, 0.000000000000000000, 1.000000000000000000 ) ) ;
#253 = CARTESIAN_POINT ( 'NONE',  ( 20.00000000000000000, 1.000000000000000222, 63.60000000000000142 ) ) ;
#254 = ORIENTED_EDGE ( 'NONE', *, *, #623, .F. ) ;
#255 = VERTEX_POINT ( 'NONE', #539 ) ;
#256 = LINE ( 'NONE', #341, #635 ) ;
#257 = DIRECTION ( 'NONE',  ( 0.000000000000000000, -1.000000000000000000, -0.000000000000000000 ) ) ;
#258 = VECTOR ( 'NONE', #768, 1000.000000000000000 ) ;
#259 = ORIENTED_EDGE ( 'NONE', *, *, #771, .F. ) ;
#260 = ADVANCED_FACE ( 'NONE', ( #438 ), #463, .F. ) ;
#261 = VECTOR ( 'NONE', #57, 1000.000000000000000 ) ;
#262 = CARTESIAN_POINT ( 'NONE',  ( -60.00000000000000000, -1.399999999999999911, 22.00000000000000000 ) ) ;
#263 = DIRECTION ( 'NONE',  ( 0.000000000000000000, -1.000000000000000000, -0.000000000000000000 ) ) ;
#264 = ORIENTED_EDGE ( 'NONE', *, *, #566, .F. ) ;
#265 = ORIENTED_EDGE ( 'NONE', *, *, #881, .T. ) ;
#266 = FACE_OUTER_BOUND ( 'NONE', #805, .T. ) ;
#267 = CARTESIAN_POINT ( 'NONE',  ( 60.00000000000000000, -1.000000000000000000, 22.00000000000000000 ) ) ;
#268 = ORIENTED_EDGE ( 'NONE', *, *, #1019, .F. ) ;
#269 = EDGE_LOOP ( 'NONE', ( #12, #819, #825, #851 ) ) ;
#270 = DIRECTION ( 'NONE',  ( 0.000000000000000000, 0.000000000000000000, -1.000000000000000000 ) ) ;
#271 = AXIS2_PLACEMENT_3D ( 'NONE', #614, #706, #1061 ) ;
#272 = LINE ( 'NONE', #974, #527 ) ;
#273 = CYLINDRICAL_SURFACE ( 'NONE', #271, 5.600000000000000533 ) ;
#274 = ORIENTED_EDGE ( 'NONE', *, *, #680, .T. ) ;
#275 = AXIS2_PLACEMENT_3D ( 'NONE', #118, #1085, #212 ) ;
#276 = CC_DESIGN_PERSON_AND_ORGANIZATION_ASSIGNMENT ( #902, #801, ( #1037 ) ) ;
#277 = AXIS2_PLACEMENT_3D ( 'NONE', #85, #776, #433 ) ;
#278 = AXIS2_PLACEMENT_3D ( 'NONE', #638, #323, #897 ) ;
#279 = EDGE_CURVE ( 'NONE', #322, #823, #886, .T. ) ;
#280 = CARTESIAN_POINT ( 'NONE',  ( 60.00000000000000000, -1.000000000000000000, 27.59999999999999787 ) ) ;
#281 = DIRECTION ( 'NONE',  ( 0.000000000000000000, 0.000000000000000000, -1.000000000000000000 ) ) ;
#282 = ORIENTED_EDGE ( 'NONE', *, *, #394, .T. ) ;
#283 = VERTEX_POINT ( 'NONE', #631 ) ;
#284 = EDGE_CURVE ( 'NONE', #210, #896, #624, .T. ) ;
#285 = APPROVAL_ROLE ( '' ) ;
#286 = CARTESIAN_POINT ( 'NONE',  ( -86.00000000000000000, -1.399999999999999911, 75.00000000000000000 ) ) ;
#287 = DIRECTION ( 'NONE',  ( 0.000000000000000000, 0.000000000000000000, 1.000000000000000000 ) ) ;
#288 = EDGE_LOOP ( 'NONE', ( #779, #428, #1044, #265 ) ) ;
#289 = DIRECTION ( 'NONE',  ( -0.000000000000000000, 0.000000000000000000, -1.000000000000000000 ) ) ;
#290 = DIRECTION ( 'NONE',  ( 0.000000000000000000, 1.000000000000000000, 0.000000000000000000 ) ) ;
#291 = DIRECTION ( 'NONE',  ( 0.000000000000000000, 1.000000000000000000, 0.000000000000000000 ) ) ;
#292 = AXIS2_PLACEMENT_3D ( 'NONE', #632, #468, #656 ) ;
#293 = ORIENTED_EDGE ( 'NONE', *, *, #361, .F. ) ;
#294 = CIRCLE ( 'NONE', #1125, 5.600000000000000533 ) ;
#295 = EDGE_CURVE ( 'NONE', #1032, #1093, #894, .T. ) ;
#296 = EDGE_CURVE ( 'NONE', #962, #938, #567, .T. ) ;
#297 = LINE ( 'NONE', #241, #569 ) ;
#298 = VECTOR ( 'NONE', #500, 1000.000000000000000 ) ;
#299 = FACE_OUTER_BOUND ( 'NONE', #269, .T. ) ;
#300 = AXIS2_PLACEMENT_3D ( 'NONE', #179, #99, #694 ) ;
#301 = CARTESIAN_POINT ( 'NONE',  ( -20.00000000000000000, 1.000000000000000222, 58.00000000000000000 ) ) ;
#302 = ORIENTED_EDGE ( 'NONE', *, *, #753, .F. ) ;
#303 = ORIENTED_EDGE ( 'NONE', *, *, #1009, .T. ) ;
#304 = DIRECTION ( 'NONE',  ( 0.000000000000000000, 1.000000000000000000, 0.000000000000000000 ) ) ;
#305 = CARTESIAN_POINT ( 'NONE',  ( 86.00000000000000000, 1.000000000000000222, 5.000000000000000000 ) ) ;
#306 = CARTESIAN_POINT ( 'NONE',  ( -60.00000000000000000, -1.000000000000000000, 58.00000000000000000 ) ) ;
#307 = ORIENTED_EDGE ( 'NONE', *, *, #746, .T. ) ;
#308 = CARTESIAN_POINT ( 'NONE',  ( -60.00000000000000000, -1.000000000000000000, 22.00000000000000000 ) ) ;
#309 = CARTESIAN_POINT ( 'NONE',  ( 60.00000000000000000, -1.000000000000000000, 16.39999999999999858 ) ) ;
#310 = ORIENTED_EDGE ( 'NONE', *, *, #351, .T. ) ;
#311 = VECTOR ( 'NONE', #40, 1000.000000000000000 ) ;
#312 = VERTEX_POINT ( 'NONE', #280 ) ;
#313 = CIRCLE ( 'NONE', #947, 1.599999999999999867 ) ;
#314 = DIRECTION ( 'NONE',  ( 0.000000000000000000, 0.000000000000000000, 1.000000000000000000 ) ) ;
#315 = DIRECTION ( 'NONE',  ( 0.000000000000000000, 1.000000000000000000, 0.000000000000000000 ) ) ;
#316 = CIRCLE ( 'NONE', #890, 5.600000000000000533 ) ;
#317 = DIRECTION ( 'NONE',  ( 0.000000000000000000, 0.000000000000000000, -1.000000000000000000 ) ) ;
#318 = EDGE_CURVE ( 'NONE', #858, #60, #222, .T. ) ;
#319 = EDGE_LOOP ( 'NONE', ( #616, #70 ) ) ;
#320 = LINE ( 'NONE', #51, #110 ) ;
#321 = APPROVAL_ROLE ( '' ) ;
#322 = VERTEX_POINT ( 'NONE', #380 ) ;
#323 = DIRECTION ( 'NONE',  ( 0.000000000000000000, -1.000000000000000000, 0.000000000000000000 ) ) ;
#324 = DATE_AND_TIME ( #63, #905 ) ;
#325 = FACE_OUTER_BOUND ( 'NONE', #288, .T. ) ;
#326 = DIRECTION ( 'NONE',  ( 0.000000000000000000, 0.000000000000000000, -1.000000000000000000 ) ) ;
#327 = DIRECTION ( 'NONE',  ( -1.000000000000000000, 0.000000000000000000, 0.000000000000000000 ) ) ;
#328 = ORIENTED_EDGE ( 'NONE', *, *, #194, .T. ) ;
#329 = EDGE_CURVE ( 'NONE', #823, #697, #735, .T. ) ;
#330 = COORDINATED_UNIVERSAL_TIME_OFFSET ( 8, 0, .AHEAD. ) ;
#331 = EDGE_CURVE ( 'NONE', #83, #283, #582, .T. ) ;
#332 = DIRECTION ( 'NONE',  ( 0.000000000000000000, -1.000000000000000000, -0.000000000000000000 ) ) ;
#333 = CARTESIAN_POINT ( 'NONE',  ( 86.00000000000000000, 1.000000000000000222, 75.00000000000000000 ) ) ;
#334 = ORIENTED_EDGE ( 'NONE', *, *, #444, .T. ) ;
#335 = AXIS2_PLACEMENT_3D ( 'NONE', #726, #826, #914 ) ;
#336 = EDGE_LOOP ( 'NONE', ( #620, #1028 ) ) ;
#337 = DIRECTION ( 'NONE',  ( -0.000000000000000000, 1.000000000000000000, 0.000000000000000000 ) ) ;
#338 = DIRECTION ( 'NONE',  ( -0.000000000000000000, 1.000000000000000000, 0.000000000000000000 ) ) ;
#339 = ORIENTED_EDGE ( 'NONE', *, *, #830, .T. ) ;
#340 = ORIENTED_EDGE ( 'NONE', *, *, #566, .T. ) ;
#341 = CARTESIAN_POINT ( 'NONE',  ( 0.000000000000000000, 1.000000000000000000, 80.00000000000000000 ) ) ;
#342 = EDGE_CURVE ( 'NONE', #1078, #519, #720, .T. ) ;
#343 = DIRECTION ( 'NONE',  ( 0.000000000000000000, -1.000000000000000000, -0.000000000000000000 ) ) ;
#344 = EDGE_LOOP ( 'NONE', ( #8, #97, #1047, #310 ) ) ;
#345 = DIRECTION ( 'NONE',  ( 0.000000000000000000, 1.000000000000000000, 0.000000000000000000 ) ) ;
#346 = LINE ( 'NONE', #1101, #258 ) ;
#347 = AXIS2_PLACEMENT_3D ( 'NONE', #459, #365, #700 ) ;
#348 = EDGE_LOOP ( 'NONE', ( #626, #908 ) ) ;
#349 = CIRCLE ( 'NONE', #970, 5.600000000000000533 ) ;
#350 = ORIENTED_EDGE ( 'NONE', *, *, #840, .F. ) ;
#351 = EDGE_CURVE ( 'NONE', #506, #729, #316, .T. ) ;
#352 = DIRECTION ( 'NONE',  ( 0.000000000000000000, -1.000000000000000000, -0.000000000000000000 ) ) ;
#353 = DIRECTION ( 'NONE',  ( -0.000000000000000000, 1.000000000000000000, 0.000000000000000000 ) ) ;
#354 = DIRECTION ( 'NONE',  ( 0.000000000000000000, 0.000000000000000000, -1.000000000000000000 ) ) ;
#355 = EDGE_LOOP ( 'NONE', ( #302, #50, #367, #440 ) ) ;
#356 = ORIENTED_EDGE ( 'NONE', *, *, #342, .F. ) ;
#357 = DIRECTION ( 'NONE',  ( -0.000000000000000000, 1.000000000000000000, 0.000000000000000000 ) ) ;
#358 = CC_DESIGN_PERSON_AND_ORGANIZATION_ASSIGNMENT ( #1073, #617, ( #1037 ) ) ;
#359 = FACE_OUTER_BOUND ( 'NONE', #377, .T. ) ;
#360 = ORIENTED_EDGE ( 'NONE', *, *, #575, .F. ) ;
#361 = EDGE_CURVE ( 'NONE', #662, #382, #94, .T. ) ;
#362 = SHAPE_DEFINITION_REPRESENTATION ( #959, #880 ) ;
#363 = AXIS2_PLACEMENT_3D ( 'NONE', #476, #1004, #737 ) ;
#364 = DIRECTION ( 'NONE',  ( 0.000000000000000000, 0.000000000000000000, 1.000000000000000000 ) ) ;
#365 = DIRECTION ( 'NONE',  ( -0.000000000000000000, 1.000000000000000000, 0.000000000000000000 ) ) ;
#366 = EDGE_CURVE ( 'NONE', #1032, #312, #349, .T. ) ;
#367 = ORIENTED_EDGE ( 'NONE', *, *, #48, .F. ) ;
#368 = ORIENTED_EDGE ( 'NONE', *, *, #9, .T. ) ;
#369 = DATE_AND_TIME ( #557, #611 ) ;
#370 = AXIS2_PLACEMENT_3D ( 'NONE', #731, #572, #1091 ) ;
#371 = CARTESIAN_POINT ( 'NONE',  ( -86.00000000000000000, 1.000000000000000222, 5.000000000000000000 ) ) ;
#372 = DIRECTION ( 'NONE',  ( 0.000000000000000000, 1.000000000000000000, 0.000000000000000000 ) ) ;
#373 = ORIENTED_EDGE ( 'NONE', *, *, #112, .T. ) ;
#374 = CARTESIAN_POINT ( 'NONE',  ( -60.00000000000000000, 1.000000000000000222, 63.60000000000000142 ) ) ;
#375 = DIRECTION ( 'NONE',  ( 0.000000000000000000, 0.000000000000000000, 1.000000000000000000 ) ) ;
#376 = CARTESIAN_POINT ( 'NONE',  ( 86.00000000000000000, -1.399999999999999911, 5.000000000000000000 ) ) ;
#377 = EDGE_LOOP ( 'NONE', ( #1100, #494, #1103, #198 ) ) ;
#378 = EDGE_CURVE ( 'NONE', #963, #962, #226, .T. ) ;
#379 = CARTESIAN_POINT ( 'NONE',  ( -86.00000000000000000, -1.399999999999999911, 73.39999999999999147 ) ) ;
#380 = CARTESIAN_POINT ( 'NONE',  ( 93.00000000000000000, -1.000000000000000000, 0.000000000000000000 ) ) ;
#381 = FACE_OUTER_BOUND ( 'NONE', #990, .T. ) ;
#382 = VERTEX_POINT ( 'NONE', #138 ) ;
#383 = CARTESIAN_POINT ( 'NONE',  ( 60.00000000000000000, 1.000000000000000222, 63.60000000000000142 ) ) ;
#384 = AXIS2_PLACEMENT_3D ( 'NONE', #82, #338, #147 ) ;
#385 = CARTESIAN_POINT ( 'NONE',  ( -20.00000000000000000, -1.399999999999999911, 63.60000000000000142 ) ) ;
#386 = CIRCLE ( 'NONE', #1113, 5.600000000000000533 ) ;
#387 = FACE_OUTER_BOUND ( 'NONE', #154, .T. ) ;
#388 = ORIENTED_EDGE ( 'NONE', *, *, #457, .T. ) ;
#389 = DIRECTION ( 'NONE',  ( 0.000000000000000000, 0.000000000000000000, 1.000000000000000000 ) ) ;
#390 = FACE_BOUND ( 'NONE', #416, .T. ) ;
#391 = FACE_OUTER_BOUND ( 'NONE', #578, .T. ) ;
#392 = ORIENTED_EDGE ( 'NONE', *, *, #1005, .F. ) ;
#393 = VERTEX_POINT ( 'NONE', #142 ) ;
#394 = EDGE_CURVE ( 'NONE', #160, #586, #989, .T. ) ;
#395 = DIRECTION ( 'NONE',  ( 0.000000000000000000, 0.000000000000000000, 1.000000000000000000 ) ) ;
#396 = DIRECTION ( 'NONE',  ( 0.000000000000000000, 1.000000000000000000, 0.000000000000000000 ) ) ;
#397 = ORIENTED_EDGE ( 'NONE', *, *, #351, .F. ) ;
#398 = ADVANCED_FACE ( 'NONE', ( #213 ), #127, .F. ) ;
#399 = APPLICATION_CONTEXT ( 'configuration controlled 3d designs of mechanical parts and assemblies' ) ;
#400 = EDGE_LOOP ( 'NONE', ( #1012, #243, #980, #44 ) ) ;
#401 = CIRCLE ( 'NONE', #812, 1.600000000000004086 ) ;
#402 = DIRECTION ( 'NONE',  ( 0.000000000000000000, 1.000000000000000000, 0.000000000000000000 ) ) ;
#403 = LINE ( 'NONE', #207, #178 ) ;
#404 = CIRCLE ( 'NONE', #1025, 5.600000000000000533 ) ;
#405 = ORIENTED_EDGE ( 'NONE', *, *, #727, .F. ) ;
#406 = FACE_BOUND ( 'NONE', #530, .T. ) ;
#407 = LINE ( 'NONE', #1099, #487 ) ;
#408 = VERTEX_POINT ( 'NONE', #119 ) ;
#409 = CARTESIAN_POINT ( 'NONE',  ( 86.00000000000000000, -1.399999999999999911, 75.00000000000000000 ) ) ;
#410 = PLANE ( 'NONE',  #275 ) ;
#411 = ADVANCED_FACE ( 'NONE', ( #299 ), #809, .F. ) ;
#412 = ORIENTED_EDGE ( 'NONE', *, *, #840, .T. ) ;
#413 = DATE_AND_TIME ( #841, #449 ) ;
#414 = CARTESIAN_POINT ( 'NONE',  ( -93.00000000000000000, 1.000000000000000000, 0.000000000000000000 ) ) ;
#415 = CARTESIAN_POINT ( 'NONE',  ( 0.000000000000000000, -1.000000000000000000, 80.00000000000000000 ) ) ;
#416 = EDGE_LOOP ( 'NONE', ( #259, #101 ) ) ;
#417 = AXIS2_PLACEMENT_3D ( 'NONE', #427, #164, #495 ) ;
#418 = DIRECTION ( 'NONE',  ( 0.000000000000000000, 1.000000000000000000, 0.000000000000000000 ) ) ;
#419 = DIRECTION ( 'NONE',  ( 0.000000000000000000, 1.000000000000000000, 0.000000000000000000 ) ) ;
#420 = EDGE_LOOP ( 'NONE', ( #397, #957 ) ) ;
#421 = CIRCLE ( 'NONE', #79, 1.599999999999999867 ) ;
#422 = CARTESIAN_POINT ( 'NONE',  ( 20.00000000000000000, -1.000000000000000000, 16.39999999999999858 ) ) ;
#423 = DIRECTION ( 'NONE',  ( 0.000000000000000000, -1.000000000000000000, -0.000000000000000000 ) ) ;
#424 = ORIENTED_EDGE ( 'NONE', *, *, #1049, .F. ) ;
#425 = EDGE_CURVE ( 'NONE', #312, #408, #559, .T. ) ;
#426 = FACE_BOUND ( 'NONE', #122, .T. ) ;
#427 = CARTESIAN_POINT ( 'NONE',  ( 86.00000000000000000, -1.399999999999999911, 75.00000000000000000 ) ) ;
#428 = ORIENTED_EDGE ( 'NONE', *, *, #1122, .T. ) ;
#429 = EDGE_CURVE ( 'NONE', #823, #113, #320, .T. ) ;
#430 = DIRECTION ( 'NONE',  ( 0.000000000000000000, 1.000000000000000000, 0.000000000000000000 ) ) ;
#431 = AXIS2_PLACEMENT_3D ( 'NONE', #267, #27, #90 ) ;
#432 = PERSON ( '未', '未', '未', ('未'), ('未'), ('未') ) ;
#433 = DIRECTION ( 'NONE',  ( 0.000000000000000000, 0.000000000000000000, 1.000000000000000000 ) ) ;
#434 = CARTESIAN_POINT ( 'NONE',  ( 20.00000000000000000, -1.399999999999999911, 52.40000000000000568 ) ) ;
#435 = AXIS2_PLACEMENT_3D ( 'NONE', #929, #289, #327 ) ;
#436 = ORIENTED_EDGE ( 'NONE', *, *, #247, .F. ) ;
#437 = CIRCLE ( 'NONE', #185, 1.599999999999999867 ) ;
#438 = FACE_OUTER_BOUND ( 'NONE', #820, .T. ) ;
#439 = DIRECTION ( 'NONE',  ( 0.000000000000000000, 0.000000000000000000, 1.000000000000000000 ) ) ;
#440 = ORIENTED_EDGE ( 'NONE', *, *, #761, .F. ) ;
#441 = EDGE_LOOP ( 'NONE', ( #595, #223, #483, #477 ) ) ;
#442 = EDGE_CURVE ( 'NONE', #41, #684, #1062, .T. ) ;
#443 =( NAMED_UNIT ( * ) PLANE_ANGLE_UNIT ( ) SI_UNIT ( $, .RADIAN. ) );
#444 = EDGE_CURVE ( 'NONE', #132, #30, #224, .T. ) ;
#445 = DIRECTION ( 'NONE',  ( 0.000000000000000000, 0.000000000000000000, 1.000000000000000000 ) ) ;
#446 = DIRECTION ( 'NONE',  ( 0.000000000000000000, -1.000000000000000000, -0.000000000000000000 ) ) ;
#447 = ORIENTED_EDGE ( 'NONE', *, *, #1118, .F. ) ;
#448 = AXIS2_PLACEMENT_3D ( 'NONE', #306, #646, #214 ) ;
#449 = LOCAL_TIME ( 20, 37, 36.00000000000000000, #577 ) ;
#450 = CARTESIAN_POINT ( 'NONE',  ( -93.00000000000000000, -1.000000000000000000, 0.000000000000000000 ) ) ;
#451 = DIRECTION ( 'NONE',  ( -0.000000000000000000, 1.000000000000000000, 0.000000000000000000 ) ) ;
#452 = VERTEX_POINT ( 'NONE', #898 ) ;
#453 = VECTOR ( 'NONE', #777, 1000.000000000000000 ) ;
#454 = COORDINATED_UNIVERSAL_TIME_OFFSET ( 8, 0, .AHEAD. ) ;
#455 = VECTOR ( 'NONE', #639, 1000.000000000000000 ) ;
#456 = LINE ( 'NONE', #983, #565 ) ;
#457 = EDGE_CURVE ( 'NONE', #652, #1043, #854, .T. ) ;
#458 = CARTESIAN_POINT ( 'NONE',  ( 93.00000000000000000, -1.000000000000000000, 0.000000000000000000 ) ) ;
#459 = CARTESIAN_POINT ( 'NONE',  ( 60.00000000000000000, 1.000000000000000222, 58.00000000000000000 ) ) ;
#460 = EDGE_LOOP ( 'NONE', ( #642, #1110 ) ) ;
#461 = VERTEX_POINT ( 'NONE', #1081 ) ;
#462 = DIRECTION ( 'NONE',  ( 1.000000000000000000, 0.000000000000000000, -0.000000000000000000 ) ) ;
#463 = CYLINDRICAL_SURFACE ( 'NONE', #911, 5.600000000000000533 ) ;
#464 = LINE ( 'NONE', #128, #703 ) ;
#465 = ORIENTED_EDGE ( 'NONE', *, *, #491, .T. ) ;
#466 = CARTESIAN_POINT ( 'NONE',  ( 93.00000000000000000, 0.000000000000000000, 80.00000000000000000 ) ) ;
#467 = CARTESIAN_POINT ( 'NONE',  ( -86.00000000000000000, 1.000000000000000222, 5.000000000000000000 ) ) ;
#468 = DIRECTION ( 'NONE',  ( -0.000000000000000000, 1.000000000000000000, 0.000000000000000000 ) ) ;
#469 = EDGE_LOOP ( 'NONE', ( #405, #368, #922, #657 ) ) ;
#470 = AXIS2_PLACEMENT_3D ( 'NONE', #173, #695, #439 ) ;
#471 = DIRECTION ( 'NONE',  ( 0.000000000000000000, 1.000000000000000000, 0.000000000000000000 ) ) ;
#472 = CIRCLE ( 'NONE', #932, 1.599999999999999867 ) ;
#473 = PRODUCT_RELATED_PRODUCT_CATEGORY ( 'detail', '', ( #5 ) ) ;
#474 = CARTESIAN_POINT ( 'NONE',  ( 60.00000000000000000, -1.399999999999999911, 22.00000000000000000 ) ) ;
#475 = VECTOR ( 'NONE', #803, 1000.000000000000000 ) ;
#476 = CARTESIAN_POINT ( 'NONE',  ( -20.00000000000000000, -1.399999999999999911, 58.00000000000000000 ) ) ;
#477 = ORIENTED_EDGE ( 'NONE', *, *, #1117, .F. ) ;
#478 = ADVANCED_FACE ( 'NONE', ( #1014, #47, #390, #230, #1087, #576, #650, #835, #62, #1098, #406, #747, #490 ), #1023, .T. ) ;
#479 = CARTESIAN_POINT ( 'NONE',  ( -20.00000000000000000, -1.399999999999999911, 22.00000000000000000 ) ) ;
#480 = ADVANCED_FACE ( 'NONE', ( #558 ), #903, .F. ) ;
#481 = CARTESIAN_POINT ( 'NONE',  ( -86.00000000000000000, 1.000000000000000222, 6.599999999999999645 ) ) ;
#482 = ORIENTED_EDGE ( 'NONE', *, *, #758, .F. ) ;
#483 = ORIENTED_EDGE ( 'NONE', *, *, #658, .T. ) ;
#484 = DIRECTION ( 'NONE',  ( 0.000000000000000000, -1.000000000000000000, -0.000000000000000000 ) ) ;
#485 = DIRECTION ( 'NONE',  ( 0.000000000000000000, 1.000000000000000000, 0.000000000000000000 ) ) ;
#486 = VERTEX_POINT ( 'NONE', #374 ) ;
#487 = VECTOR ( 'NONE', #836, 1000.000000000000000 ) ;
#488 = APPROVAL_PERSON_ORGANIZATION ( #664, #225, #321 ) ;
#489 = CIRCLE ( 'NONE', #985, 5.600000000000000533 ) ;
#490 = FACE_OUTER_BOUND ( 'NONE', #135, .T. ) ;
#491 = EDGE_CURVE ( 'NONE', #1079, #691, #297, .T. ) ;
#492 =( NAMED_UNIT ( * ) SI_UNIT ( $, .STERADIAN. ) SOLID_ANGLE_UNIT ( ) );
#493 = CIRCLE ( 'NONE', #78, 5.600000000000000533 ) ;
#494 = ORIENTED_EDGE ( 'NONE', *, *, #378, .T. ) ;
#495 = DIRECTION ( 'NONE',  ( 0.000000000000000000, 0.000000000000000000, 1.000000000000000000 ) ) ;
#496 = CARTESIAN_POINT ( 'NONE',  ( -60.00000000000000000, -1.399999999999999911, 63.60000000000000142 ) ) ;
#497 = VERTEX_POINT ( 'NONE', #797 ) ;
#498 = DIRECTION ( 'NONE',  ( 0.000000000000000000, 0.000000000000000000, 1.000000000000000000 ) ) ;
#499 = DIRECTION ( 'NONE',  ( -0.000000000000000000, 1.000000000000000000, 0.000000000000000000 ) ) ;
#500 = DIRECTION ( 'NONE',  ( 0.000000000000000000, 1.000000000000000000, 0.000000000000000000 ) ) ;
#501 = VERTEX_POINT ( 'NONE', #25 ) ;
#502 = ORIENTED_EDGE ( 'NONE', *, *, #491, .F. ) ;
#503 = DIRECTION ( 'NONE',  ( 0.000000000000000000, 0.000000000000000000, 1.000000000000000000 ) ) ;
#504 = PLANE ( 'NONE',  #724 ) ;
#505 = LINE ( 'NONE', #1031, #813 ) ;
#506 = VERTEX_POINT ( 'NONE', #234 ) ;
#507 = ORIENTED_EDGE ( 'NONE', *, *, #513, .T. ) ;
#508 = AXIS2_PLACEMENT_3D ( 'NONE', #888, #16, #969 ) ;
#509 = CARTESIAN_POINT ( 'NONE',  ( -86.00000000000000000, -1.399999999999999911, 5.000000000000000000 ) ) ;
#510 = CYLINDRICAL_SURFACE ( 'NONE', #740, 1.600000000000004086 ) ;
#511 = AXIS2_PLACEMENT_3D ( 'NONE', #704, #357, #522 ) ;
#512 = ORIENTED_EDGE ( 'NONE', *, *, #247, .T. ) ;
#513 = EDGE_CURVE ( 'NONE', #684, #41, #421, .T. ) ;
#514 = FACE_BOUND ( 'NONE', #1055, .T. ) ;
#515 = FACE_OUTER_BOUND ( 'NONE', #756, .T. ) ;
#516 = ORIENTED_EDGE ( 'NONE', *, *, #1097, .F. ) ;
#517 = CARTESIAN_POINT ( 'NONE',  ( 60.00000000000000000, -1.399999999999999911, 58.00000000000000000 ) ) ;
#518 = LINE ( 'NONE', #180, #108 ) ;
#519 = VERTEX_POINT ( 'NONE', #802 ) ;
#520 = ORIENTED_EDGE ( 'NONE', *, *, #709, .T. ) ;
#521 = AXIS2_PLACEMENT_3D ( 'NONE', #748, #352, #587 ) ;
#522 = DIRECTION ( 'NONE',  ( 0.000000000000000000, 0.000000000000000000, 1.000000000000000000 ) ) ;
#523 = CYLINDRICAL_SURFACE ( 'NONE', #613, 1.599999999999999867 ) ;
#524 = AXIS2_PLACEMENT_3D ( 'NONE', #750, #263, #844 ) ;
#525 = EDGE_LOOP ( 'NONE', ( #1094, #1048, #360, #707 ) ) ;
#526 = ADVANCED_FACE ( 'NONE', ( #585 ), #1069, .T. ) ;
#527 = VECTOR ( 'NONE', #984, 1000.000000000000000 ) ;
#528 = DIRECTION ( 'NONE',  ( -0.000000000000000000, 1.000000000000000000, 0.000000000000000000 ) ) ;
#529 = CARTESIAN_POINT ( 'NONE',  ( 86.00000000000000000, -1.000000000000000000, 5.000000000000000000 ) ) ;
#530 = EDGE_LOOP ( 'NONE', ( #14, #863 ) ) ;
#531 = ORIENTED_EDGE ( 'NONE', *, *, #644, .T. ) ;
#532 = CARTESIAN_POINT ( 'NONE',  ( 60.00000000000000000, 1.000000000000000222, 58.00000000000000000 ) ) ;
#533 = FACE_OUTER_BOUND ( 'NONE', #355, .T. ) ;
#534 = EDGE_LOOP ( 'NONE', ( #307, #1063, #734, #356 ) ) ;
#535 = ORIENTED_EDGE ( 'NONE', *, *, #209, .T. ) ;
#536 = ADVANCED_FACE ( 'NONE', ( #997 ), #544, .F. ) ;
#537 = AXIS2_PLACEMENT_3D ( 'NONE', #692, #98, #503 ) ;
#538 = LOCAL_TIME ( 20, 37, 36.00000000000000000, #107 ) ;
#539 = CARTESIAN_POINT ( 'NONE',  ( -20.00000000000000000, -1.000000000000000000, 27.59999999999999787 ) ) ;
#540 = DIRECTION ( 'NONE',  ( -0.000000000000000000, 1.000000000000000000, 0.000000000000000000 ) ) ;
#541 = ORIENTED_EDGE ( 'NONE', *, *, #859, .T. ) ;
#542 = CIRCLE ( 'NONE', #1057, 5.600000000000000533 ) ;
#543 = AXIS2_PLACEMENT_3D ( 'NONE', #262, #418, #1035 ) ;
#544 = CYLINDRICAL_SURFACE ( 'NONE', #183, 5.600000000000000533 ) ;
#545 = DIRECTION ( 'NONE',  ( 0.000000000000000000, 0.000000000000000000, 1.000000000000000000 ) ) ;
#546 = CARTESIAN_POINT ( 'NONE',  ( 20.00000000000000000, -1.399999999999999911, 27.59999999999999787 ) ) ;
#547 = EDGE_CURVE ( 'NONE', #283, #83, #489, .T. ) ;
#548 = ORIENTED_EDGE ( 'NONE', *, *, #1117, .T. ) ;
#549 = ORIENTED_EDGE ( 'NONE', *, *, #48, .T. ) ;
#550 = MANIFOLD_SOLID_BREP ( 'Eight 6.35 mm audio apertures arranged in a distinctive two-by-four matrix', #910 ) ;
#551 = FACE_OUTER_BOUND ( 'NONE', #525, .T. ) ;
#552 = DIRECTION ( 'NONE',  ( 0.000000000000000000, 0.000000000000000000, -1.000000000000000000 ) ) ;
#553 = CARTESIAN_POINT ( 'NONE',  ( -60.00000000000000000, -1.399999999999999911, 22.00000000000000000 ) ) ;
#554 = EDGE_LOOP ( 'NONE', ( #696, #106 ) ) ;
#555 = EDGE_LOOP ( 'NONE', ( #19, #447 ) ) ;
#556 = ADVANCED_FACE ( 'NONE', ( #719 ), #668, .T. ) ;
#557 = CALENDAR_DATE ( 2026, 25, 8 ) ;
#558 = FACE_OUTER_BOUND ( 'NONE', #204, .T. ) ;
#559 = LINE ( 'NONE', #992, #455 ) ;
#560 = AXIS2_PLACEMENT_3D ( 'NONE', #190, #291, #120 ) ;
#561 = CARTESIAN_POINT ( 'NONE',  ( -20.00000000000000000, -1.000000000000000000, 63.60000000000000142 ) ) ;
#562 = EDGE_CURVE ( 'NONE', #963, #255, #145, .T. ) ;
#563 = ORIENTED_EDGE ( 'NONE', *, *, #1068, .F. ) ;
#564 = ORIENTED_EDGE ( 'NONE', *, *, #758, .T. ) ;
#565 = VECTOR ( 'NONE', #31, 1000.000000000000000 ) ;
#566 = EDGE_CURVE ( 'NONE', #160, #60, #1074, .T. ) ;
#567 = CIRCLE ( 'NONE', #511, 5.600000000000000533 ) ;
#568 = CARTESIAN_POINT ( 'NONE',  ( 93.00000000000000000, 1.000000000000000000, 0.000000000000000000 ) ) ;
#569 = VECTOR ( 'NONE', #304, 1000.000000000000000 ) ;
#570 = CARTESIAN_POINT ( 'NONE',  ( 86.00000000000000000, -1.399999999999999911, 73.39999999999999147 ) ) ;
#571 = CARTESIAN_POINT ( 'NONE',  ( 20.00000000000000000, 1.000000000000000222, 27.59999999999999787 ) ) ;
#572 = DIRECTION ( 'NONE',  ( 0.000000000000000000, -1.000000000000000000, -0.000000000000000000 ) ) ;
#573 = CARTESIAN_POINT ( 'NONE',  ( 86.00000000000000000, -1.000000000000000000, 6.599999999999999645 ) ) ;
#574 = ORIENTED_EDGE ( 'NONE', *, *, #442, .F. ) ;
#575 = EDGE_CURVE ( 'NONE', #113, #501, #456, .T. ) ;
#576 = FACE_BOUND ( 'NONE', #208, .T. ) ;
#577 = COORDINATED_UNIVERSAL_TIME_OFFSET ( 8, 0, .AHEAD. ) ;
#578 = EDGE_LOOP ( 'NONE', ( #436, #541, #150, #507 ) ) ;
#579 = DIRECTION ( 'NONE',  ( 0.000000000000000000, 0.000000000000000000, 1.000000000000000000 ) ) ;
#580 = AXIS2_PLACEMENT_3D ( 'NONE', #1124, #257, #673 ) ;
#581 = APPLICATION_PROTOCOL_DEFINITION ( 'international standard', 'config_control_design', 1994, #1084 ) ;
#582 = CIRCLE ( 'NONE', #853, 5.600000000000000533 ) ;
#583 = CARTESIAN_POINT ( 'NONE',  ( -86.00000000000000000, -1.000000000000000000, 3.399999999999999911 ) ) ;
#584 = DIRECTION ( 'NONE',  ( 0.000000000000000000, 0.000000000000000000, 1.000000000000000000 ) ) ;
#585 = FACE_OUTER_BOUND ( 'NONE', #400, .T. ) ;
#586 = VERTEX_POINT ( 'NONE', #730 ) ;
#587 = DIRECTION ( 'NONE',  ( 0.000000000000000000, 0.000000000000000000, -1.000000000000000000 ) ) ;
#588 = CARTESIAN_POINT ( 'NONE',  ( 86.00000000000000000, 1.000000000000000222, 73.39999999999999147 ) ) ;
#589 = LINE ( 'NONE', #941, #670 ) ;
#590 = ORIENTED_EDGE ( 'NONE', *, *, #329, .T. ) ;
#591 = CYLINDRICAL_SURFACE ( 'NONE', #814, 1.599999999999999867 ) ;
#592 = ADVANCED_FACE ( 'NONE', ( #551 ), #410, .T. ) ;
#593 = CARTESIAN_POINT ( 'NONE',  ( 93.00000000000000000, 1.000000000000000000, 80.00000000000000000 ) ) ;
#594 = VERTEX_POINT ( 'NONE', #663 ) ;
#595 = ORIENTED_EDGE ( 'NONE', *, *, #361, .T. ) ;
#596 = EDGE_CURVE ( 'NONE', #697, #13, #1016, .T. ) ;
#597 = CIRCLE ( 'NONE', #347, 5.600000000000000533 ) ;
#598 = CARTESIAN_POINT ( 'NONE',  ( -20.00000000000000000, 1.000000000000000222, 22.00000000000000000 ) ) ;
#599 = DIRECTION ( 'NONE',  ( 0.000000000000000000, 0.000000000000000000, 1.000000000000000000 ) ) ;
#600 = AXIS2_PLACEMENT_3D ( 'NONE', #479, #1010, #314 ) ;
#601 = ORIENTED_EDGE ( 'NONE', *, *, #603, .T. ) ;
#602 = FACE_OUTER_BOUND ( 'NONE', #7, .T. ) ;
#603 = EDGE_CURVE ( 'NONE', #729, #506, #92, .T. ) ;
#604 = CARTESIAN_POINT ( 'NONE',  ( -60.00000000000000000, -1.000000000000000000, 52.40000000000000568 ) ) ;
#605 = ORIENTED_EDGE ( 'NONE', *, *, #596, .T. ) ;
#606 = VERTEX_POINT ( 'NONE', #383 ) ;
#607 = DIRECTION ( 'NONE',  ( 0.000000000000000000, 1.000000000000000000, 0.000000000000000000 ) ) ;
#608 = DIRECTION ( 'NONE',  ( 0.000000000000000000, 1.000000000000000000, 0.000000000000000000 ) ) ;
#609 = ORIENTED_EDGE ( 'NONE', *, *, #124, .F. ) ;
#610 = MECHANICAL_CONTEXT ( 'NONE', #399, 'mechanical' ) ;
#611 = LOCAL_TIME ( 20, 37, 36.00000000000000000, #330 ) ;
#612 = DIRECTION ( 'NONE',  ( 0.000000000000000000, 0.000000000000000000, 1.000000000000000000 ) ) ;
#613 = AXIS2_PLACEMENT_3D ( 'NONE', #376, #608, #6 ) ;
#614 = CARTESIAN_POINT ( 'NONE',  ( 60.00000000000000000, -1.399999999999999911, 22.00000000000000000 ) ) ;
#615 = ORIENTED_EDGE ( 'NONE', *, *, #146, .F. ) ;
#616 = ORIENTED_EDGE ( 'NONE', *, *, #676, .F. ) ;
#617 = PERSON_AND_ORGANIZATION_ROLE ( 'creator' ) ;
#618 = CARTESIAN_POINT ( 'NONE',  ( -86.00000000000000000, -1.000000000000000000, 73.39999999999999147 ) ) ;
#619 = FACE_OUTER_BOUND ( 'NONE', #621, .T. ) ;
#620 = ORIENTED_EDGE ( 'NONE', *, *, #881, .F. ) ;
#621 = EDGE_LOOP ( 'NONE', ( #53, #921, #795, #502 ) ) ;
#622 = PERSON_AND_ORGANIZATION_ROLE ( 'classification_officer' ) ;
#623 = EDGE_CURVE ( 'NONE', #701, #486, #148, .T. ) ;
#624 = LINE ( 'NONE', #716, #1060 ) ;
#625 = CARTESIAN_POINT ( 'NONE',  ( 20.00000000000000000, 1.000000000000000222, 22.00000000000000000 ) ) ;
#626 = ORIENTED_EDGE ( 'NONE', *, *, #746, .F. ) ;
#627 = CARTESIAN_POINT ( 'NONE',  ( -60.00000000000000000, -1.399999999999999911, 58.00000000000000000 ) ) ;
#628 = EDGE_CURVE ( 'NONE', #83, #729, #240, .T. ) ;
#629 = AXIS2_PLACEMENT_3D ( 'NONE', #301, #920, #895 ) ;
#630 = CC_DESIGN_APPROVAL ( #225, ( #950 ) ) ;
#631 = CARTESIAN_POINT ( 'NONE',  ( -60.00000000000000000, -1.000000000000000000, 27.59999999999999787 ) ) ;
#632 = CARTESIAN_POINT ( 'NONE',  ( -60.00000000000000000, 1.000000000000000222, 58.00000000000000000 ) ) ;
#633 = ORIENTED_EDGE ( 'NONE', *, *, #623, .T. ) ;
#634 = AXIS2_PLACEMENT_3D ( 'NONE', #114, #462, #1080 ) ;
#635 = VECTOR ( 'NONE', #157, 1000.000000000000000 ) ;
#636 = DATE_TIME_ROLE ( 'classification_date' ) ;
#637 = CIRCLE ( 'NONE', #3, 5.600000000000000533 ) ;
#638 = CARTESIAN_POINT ( 'NONE',  ( 0.000000000000000000, -1.000000000000000000, 0.000000000000000000 ) ) ;
#639 = DIRECTION ( 'NONE',  ( 0.000000000000000000, 1.000000000000000000, 0.000000000000000000 ) ) ;
#640 = LINE ( 'NONE', #570, #311 ) ;
#641 = EDGE_LOOP ( 'NONE', ( #130, #1013 ) ) ;
#642 = ORIENTED_EDGE ( 'NONE', *, *, #231, .F. ) ;
#643 = DIRECTION ( 'NONE',  ( 0.000000000000000000, 0.000000000000000000, -1.000000000000000000 ) ) ;
#644 = EDGE_CURVE ( 'NONE', #30, #132, #1076, .T. ) ;
#645 = DIRECTION ( 'NONE',  ( 0.000000000000000000, 0.000000000000000000, -1.000000000000000000 ) ) ;
#646 = DIRECTION ( 'NONE',  ( 0.000000000000000000, -1.000000000000000000, -0.000000000000000000 ) ) ;
#647 = ORIENTED_EDGE ( 'NONE', *, *, #284, .F. ) ;
#648 = ADVANCED_FACE ( 'NONE', ( #666 ), #73, .F. ) ;
#649 = ORIENTED_EDGE ( 'NONE', *, *, #244, .T. ) ;
#650 = FACE_BOUND ( 'NONE', #348, .T. ) ;
#651 = FACE_OUTER_BOUND ( 'NONE', #534, .T. ) ;
#652 = VERTEX_POINT ( 'NONE', #764 ) ;
#653 = CIRCLE ( 'NONE', #1109, 5.600000000000000533 ) ;
#654 = AXIS2_PLACEMENT_3D ( 'NONE', #699, #923, #219 ) ;
#655 = DIRECTION ( 'NONE',  ( 0.000000000000000000, 0.000000000000000000, 1.000000000000000000 ) ) ;
#656 = DIRECTION ( 'NONE',  ( 0.000000000000000000, 0.000000000000000000, 1.000000000000000000 ) ) ;
#657 = ORIENTED_EDGE ( 'NONE', *, *, #1019, .T. ) ;
#658 = EDGE_CURVE ( 'NONE', #144, #461, #401, .T. ) ;
#659 = ADVANCED_FACE ( 'NONE', ( #515 ), #683, .F. ) ;
#660 = DIRECTION ( 'NONE',  ( -0.000000000000000000, 1.000000000000000000, 0.000000000000000000 ) ) ;
#661 = CARTESIAN_POINT ( 'NONE',  ( 60.00000000000000000, 1.000000000000000222, 16.39999999999999858 ) ) ;
#662 = VERTEX_POINT ( 'NONE', #935 ) ;
#663 = CARTESIAN_POINT ( 'NONE',  ( 60.00000000000000000, -1.000000000000000000, 63.60000000000000142 ) ) ;
#664 = PERSON_AND_ORGANIZATION ( #432, #141 ) ;
#665 = FACE_OUTER_BOUND ( 'NONE', #344, .T. ) ;
#666 = FACE_OUTER_BOUND ( 'NONE', #988, .T. ) ;
#667 = VECTOR ( 'NONE', #485, 1000.000000000000000 ) ;
#668 = PLANE ( 'NONE',  #634 ) ;
#669 = ORIENTED_EDGE ( 'NONE', *, *, #709, .F. ) ;
#670 = VECTOR ( 'NONE', #159, 1000.000000000000000 ) ;
#671 = VECTOR ( 'NONE', #189, 1000.000000000000000 ) ;
#672 = DIRECTION ( 'NONE',  ( 0.000000000000000000, -1.000000000000000000, -0.000000000000000000 ) ) ;
#673 = DIRECTION ( 'NONE',  ( 0.000000000000000000, 0.000000000000000000, -1.000000000000000000 ) ) ;
#674 = ORIENTED_EDGE ( 'NONE', *, *, #981, .T. ) ;
#675 = VERTEX_POINT ( 'NONE', #153 ) ;
#676 = EDGE_CURVE ( 'NONE', #594, #976, #869, .T. ) ;
#677 = FACE_BOUND ( 'NONE', #420, .T. ) ;
#678 = DIRECTION ( 'NONE',  ( 0.000000000000000000, 0.000000000000000000, 1.000000000000000000 ) ) ;
#679 = ORIENTED_EDGE ( 'NONE', *, *, #295, .T. ) ;
#680 = EDGE_CURVE ( 'NONE', #675, #87, #542, .T. ) ;
#681 = EDGE_LOOP ( 'NONE', ( #563, #1001 ) ) ;
#682 = FACE_BOUND ( 'NONE', #554, .T. ) ;
#683 = CYLINDRICAL_SURFACE ( 'NONE', #239, 1.600000000000004086 ) ;
#684 = VERTEX_POINT ( 'NONE', #248 ) ;
#685 = LOCAL_TIME ( 20, 37, 36.00000000000000000, #454 ) ;
#686 = CARTESIAN_POINT ( 'NONE',  ( -86.00000000000000000, 1.000000000000000222, 73.39999999999999147 ) ) ;
#687 = CARTESIAN_POINT ( 'NONE',  ( -60.00000000000000000, 1.000000000000000222, 16.39999999999999858 ) ) ;
#688 = AXIS2_PLACEMENT_3D ( 'NONE', #201, #1051, #612 ) ;
#689 = VERTEX_POINT ( 'NONE', #928 ) ;
#690 = ADVANCED_FACE ( 'NONE', ( #1036 ), #861, .F. ) ;
#691 = VERTEX_POINT ( 'NONE', #253 ) ;
#692 = CARTESIAN_POINT ( 'NONE',  ( -86.00000000000000000, -1.399999999999999911, 5.000000000000000000 ) ) ;
#693 = EDGE_CURVE ( 'NONE', #1, #393, #759, .T. ) ;
#694 = DIRECTION ( 'NONE',  ( 0.000000000000000000, 0.000000000000000000, -1.000000000000000000 ) ) ;
#695 = DIRECTION ( 'NONE',  ( -0.000000000000000000, 1.000000000000000000, 0.000000000000000000 ) ) ;
#696 = ORIENTED_EDGE ( 'NONE', *, *, #693, .F. ) ;
#697 = VERTEX_POINT ( 'NONE', #593 ) ;
#698 = CYLINDRICAL_SURFACE ( 'NONE', #537, 1.599999999999999867 ) ;
#699 = CARTESIAN_POINT ( 'NONE',  ( -86.00000000000000000, 1.000000000000000222, 75.00000000000000000 ) ) ;
#700 = DIRECTION ( 'NONE',  ( 0.000000000000000000, 0.000000000000000000, 1.000000000000000000 ) ) ;
#701 = VERTEX_POINT ( 'NONE', #945 ) ;
#702 = ORIENTED_EDGE ( 'NONE', *, *, #429, .T. ) ;
#703 = VECTOR ( 'NONE', #986, 1000.000000000000000 ) ;
#704 = CARTESIAN_POINT ( 'NONE',  ( -20.00000000000000000, 1.000000000000000222, 22.00000000000000000 ) ) ;
#705 = AXIS2_PLACEMENT_3D ( 'NONE', #793, #883, #281 ) ;
#706 = DIRECTION ( 'NONE',  ( 0.000000000000000000, 1.000000000000000000, 0.000000000000000000 ) ) ;
#707 = ORIENTED_EDGE ( 'NONE', *, *, #972, .T. ) ;
#708 = VECTOR ( 'NONE', #10, 1000.000000000000000 ) ;
#709 = EDGE_CURVE ( 'NONE', #132, #1043, #838, .T. ) ;
#710 = AXIS2_PLACEMENT_3D ( 'NONE', #305, #817, #395 ) ;
#711 = CARTESIAN_POINT ( 'NONE',  ( 20.00000000000000000, -1.399999999999999911, 22.00000000000000000 ) ) ;
#712 = DIRECTION ( 'NONE',  ( 0.000000000000000000, 1.000000000000000000, 0.000000000000000000 ) ) ;
#713 = EDGE_LOOP ( 'NONE', ( #334, #722, #388, #669 ) ) ;
#714 = ADVANCED_FACE ( 'NONE', ( #65 ), #510, .F. ) ;
#715 = CARTESIAN_POINT ( 'NONE',  ( 86.00000000000000000, 1.000000000000000222, 5.000000000000000000 ) ) ;
#716 = CARTESIAN_POINT ( 'NONE',  ( -93.00000000000000000, -1.000000000000000000, 0.000000000000000000 ) ) ;
#717 = CARTESIAN_POINT ( 'NONE',  ( 20.00000000000000000, -1.000000000000000000, 58.00000000000000000 ) ) ;
#718 = EDGE_LOOP ( 'NONE', ( #268, #900 ) ) ;
#719 = FACE_OUTER_BOUND ( 'NONE', #766, .T. ) ;
#720 = LINE ( 'NONE', #385, #834 ) ;
#721 = CARTESIAN_POINT ( 'NONE',  ( 86.00000000000000000, -1.399999999999999911, 5.000000000000000000 ) ) ;
#722 = ORIENTED_EDGE ( 'NONE', *, *, #124, .T. ) ;
#723 = AXIS2_PLACEMENT_3D ( 'NONE', #1027, #952, #599 ) ;
#724 = AXIS2_PLACEMENT_3D ( 'NONE', #955, #499, #163 ) ;
#725 = DIRECTION ( 'NONE',  ( 0.000000000000000000, -1.000000000000000000, -0.000000000000000000 ) ) ;
#726 = CARTESIAN_POINT ( 'NONE',  ( 86.00000000000000000, -1.000000000000000000, 75.00000000000000000 ) ) ;
#727 = EDGE_CURVE ( 'NONE', #452, #689, #346, .T. ) ;
#728 = CYLINDRICAL_SURFACE ( 'NONE', #943, 5.600000000000000533 ) ;
#729 = VERTEX_POINT ( 'NONE', #687 ) ;
#730 = CARTESIAN_POINT ( 'NONE',  ( -86.00000000000000000, -1.000000000000000000, 76.59999999999999432 ) ) ;
#731 = CARTESIAN_POINT ( 'NONE',  ( -86.00000000000000000, -1.000000000000000000, 75.00000000000000000 ) ) ;
#732 = DIRECTION ( 'NONE',  ( 0.000000000000000000, 1.000000000000000000, 0.000000000000000000 ) ) ;
#733 = ORIENTED_EDGE ( 'NONE', *, *, #58, .F. ) ;
#734 = ORIENTED_EDGE ( 'NONE', *, *, #806, .T. ) ;
#735 = LINE ( 'NONE', #568, #261 ) ;
#736 = CIRCLE ( 'NONE', #448, 5.600000000000000533 ) ;
#737 = DIRECTION ( 'NONE',  ( 0.000000000000000000, 0.000000000000000000, 1.000000000000000000 ) ) ;
#738 = APPROVAL_PERSON_ORGANIZATION ( #996, #103, #285 ) ;
#739 = DIRECTION ( 'NONE',  ( 0.000000000000000000, -1.000000000000000000, -0.000000000000000000 ) ) ;
#740 = AXIS2_PLACEMENT_3D ( 'NONE', #409, #1042, #678 ) ;
#741 = CC_DESIGN_DATE_AND_TIME_ASSIGNMENT ( #1064, #636, ( #236 ) ) ;
#742 = CIRCLE ( 'NONE', #1008, 5.600000000000000533 ) ;
#743 = DIRECTION ( 'NONE',  ( 0.000000000000000000, 1.000000000000000000, 0.000000000000000000 ) ) ;
#744 = DIRECTION ( 'NONE',  ( 0.000000000000000000, 0.000000000000000000, 1.000000000000000000 ) ) ;
#745 = CARTESIAN_POINT ( 'NONE',  ( 93.00000000000000000, -1.000000000000000000, 80.00000000000000000 ) ) ;
#746 = EDGE_CURVE ( 'NONE', #1078, #452, #61, .T. ) ;
#747 = FACE_BOUND ( 'NONE', #188, .T. ) ;
#748 = CARTESIAN_POINT ( 'NONE',  ( 60.00000000000000000, -1.000000000000000000, 58.00000000000000000 ) ) ;
#749 = EDGE_LOOP ( 'NONE', ( #615, #1089 ) ) ;
#750 = CARTESIAN_POINT ( 'NONE',  ( -20.00000000000000000, -1.000000000000000000, 58.00000000000000000 ) ) ;
#751 = DIRECTION ( 'NONE',  ( 0.000000000000000000, -1.000000000000000000, -0.000000000000000000 ) ) ;
#752 = APPROVAL_STATUS ( 'not_yet_approved' ) ;
#753 = EDGE_CURVE ( 'NONE', #13, #896, #69, .T. ) ;
#754 = DIRECTION ( 'NONE',  ( 0.000000000000000000, 1.000000000000000000, 0.000000000000000000 ) ) ;
#755 = DIRECTION ( 'NONE',  ( -1.000000000000000000, -0.000000000000000000, 0.000000000000000000 ) ) ;
#756 = EDGE_LOOP ( 'NONE', ( #885, #340, #412, #958 ) ) ;
#757 = CC_DESIGN_APPROVAL ( #24, ( #1037 ) ) ;
#758 = EDGE_CURVE ( 'NONE', #87, #393, #589, .T. ) ;
#759 = CIRCLE ( 'NONE', #384, 5.600000000000000533 ) ;
#760 = AXIS2_PLACEMENT_3D ( 'NONE', #532, #1059, #102 ) ;
#761 = EDGE_CURVE ( 'NONE', #896, #501, #505, .T. ) ;
#762 = AXIS2_PLACEMENT_3D ( 'NONE', #918, #484, #552 ) ;
#763 = DIRECTION ( 'NONE',  ( 0.000000000000000000, 0.000000000000000000, 1.000000000000000000 ) ) ;
#764 = CARTESIAN_POINT ( 'NONE',  ( -86.00000000000000000, 1.000000000000000222, 3.399999999999999911 ) ) ;
#765 = VERTEX_POINT ( 'NONE', #979 ) ;
#766 = EDGE_LOOP ( 'NONE', ( #784, #590, #605, #837 ) ) ;
#767 = FACE_BOUND ( 'NONE', #336, .T. ) ;
#768 = DIRECTION ( 'NONE',  ( 0.000000000000000000, 1.000000000000000000, 0.000000000000000000 ) ) ;
#769 = ORIENTED_EDGE ( 'NONE', *, *, #425, .F. ) ;
#770 = LINE ( 'NONE', #88, #1058 ) ;
#771 = EDGE_CURVE ( 'NONE', #586, #160, #200, .T. ) ;
#772 = CARTESIAN_POINT ( 'NONE',  ( -86.00000000000000000, -1.399999999999999911, 75.00000000000000000 ) ) ;
#773 = EDGE_LOOP ( 'NONE', ( #264, #282, #994, #874 ) ) ;
#774 = VERTEX_POINT ( 'NONE', #604 ) ;
#775 = DIRECTION ( 'NONE',  ( 0.000000000000000000, 0.000000000000000000, 1.000000000000000000 ) ) ;
#776 = DIRECTION ( 'NONE',  ( -0.000000000000000000, 1.000000000000000000, 0.000000000000000000 ) ) ;
#777 = DIRECTION ( 'NONE',  ( 0.000000000000000000, 1.000000000000000000, 0.000000000000000000 ) ) ;
#778 = CIRCLE ( 'NONE', #760, 5.600000000000000533 ) ;
#779 = ORIENTED_EDGE ( 'NONE', *, *, #831, .F. ) ;
#780 = ORIENTED_EDGE ( 'NONE', *, *, #329, .F. ) ;
#781 = APPROVAL_STATUS ( 'not_yet_approved' ) ;
#782 = CARTESIAN_POINT ( 'NONE',  ( 93.00000000000000000, 0.000000000000000000, 0.000000000000000000 ) ) ;
#783 = DIRECTION ( 'NONE',  ( -0.000000000000000000, 1.000000000000000000, 0.000000000000000000 ) ) ;
#784 = ORIENTED_EDGE ( 'NONE', *, *, #279, .T. ) ;
#785 = DATE_AND_TIME ( #891, #685 ) ;
#786 = DIRECTION ( 'NONE',  ( -0.000000000000000000, 1.000000000000000000, 0.000000000000000000 ) ) ;
#787 = CARTESIAN_POINT ( 'NONE',  ( 86.00000000000000000, -1.399999999999999911, 6.599999999999999645 ) ) ;
#788 = ORIENTED_EDGE ( 'NONE', *, *, #331, .F. ) ;
#789 = EDGE_CURVE ( 'NONE', #977, #684, #22, .T. ) ;
#790 = APPROVAL_DATE_TIME ( #369, #24 ) ;
#791 = LINE ( 'NONE', #458, #949 ) ;
#792 = AXIS2_PLACEMENT_3D ( 'NONE', #625, #540, #871 ) ;
#793 = CARTESIAN_POINT ( 'NONE',  ( -86.00000000000000000, -1.000000000000000000, 75.00000000000000000 ) ) ;
#794 = EDGE_CURVE ( 'NONE', #497, #862, #104, .T. ) ;
#795 = ORIENTED_EDGE ( 'NONE', *, *, #170, .T. ) ;
#796 = AXIS2_PLACEMENT_3D ( 'NONE', #474, #743, #655 ) ;
#797 = CARTESIAN_POINT ( 'NONE',  ( 20.00000000000000000, -1.000000000000000000, 52.40000000000000568 ) ) ;
#798 = CARTESIAN_POINT ( 'NONE',  ( 20.00000000000000000, 1.000000000000000222, 58.00000000000000000 ) ) ;
#799 = CARTESIAN_POINT ( 'NONE',  ( -60.00000000000000000, 1.000000000000000222, 52.40000000000000568 ) ) ;
#800 = ORIENTED_EDGE ( 'NONE', *, *, #366, .T. ) ;
#801 = PERSON_AND_ORGANIZATION_ROLE ( 'design_supplier' ) ;
#802 = CARTESIAN_POINT ( 'NONE',  ( -20.00000000000000000, 1.000000000000000222, 63.60000000000000142 ) ) ;
#803 = DIRECTION ( 'NONE',  ( 0.000000000000000000, 1.000000000000000000, 0.000000000000000000 ) ) ;
#804 = CYLINDRICAL_SURFACE ( 'NONE', #363, 5.600000000000000533 ) ;
#805 = EDGE_LOOP ( 'NONE', ( #233, #1072, #328, #516 ) ) ;
#806 = EDGE_CURVE ( 'NONE', #689, #519, #852, .T. ) ;
#807 = APPROVAL_DATE_TIME ( #785, #103 ) ;
#808 = DIRECTION ( 'NONE',  ( 0.000000000000000000, -1.000000000000000000, -0.000000000000000000 ) ) ;
#809 = CYLINDRICAL_SURFACE ( 'NONE', #600, 5.600000000000000533 ) ;
#810 = CARTESIAN_POINT ( 'NONE',  ( 86.00000000000000000, -1.000000000000000000, 3.399999999999999911 ) ) ;
#811 = EDGE_LOOP ( 'NONE', ( #733, #995 ) ) ;
#812 = AXIS2_PLACEMENT_3D ( 'NONE', #333, #1115, #86 ) ;
#813 = VECTOR ( 'NONE', #451, 1000.000000000000000 ) ;
#814 = AXIS2_PLACEMENT_3D ( 'NONE', #509, #944, #445 ) ;
#815 = DIRECTION ( 'NONE',  ( 0.000000000000000000, 0.000000000000000000, -1.000000000000000000 ) ) ;
#816 = ORIENTED_EDGE ( 'NONE', *, *, #193, .T. ) ;
#817 = DIRECTION ( 'NONE',  ( -0.000000000000000000, 1.000000000000000000, 0.000000000000000000 ) ) ;
#818 = CARTESIAN_POINT ( 'NONE',  ( -20.00000000000000000, 1.000000000000000222, 27.59999999999999787 ) ) ;
#819 = ORIENTED_EDGE ( 'NONE', *, *, #562, .T. ) ;
#820 = EDGE_LOOP ( 'NONE', ( #274, #564, #1038, #228 ) ) ;
#821 = CARTESIAN_POINT ( 'NONE',  ( 60.00000000000000000, -1.000000000000000000, 22.00000000000000000 ) ) ;
#822 = DIRECTION ( 'NONE',  ( 0.000000000000000000, 0.000000000000000000, 1.000000000000000000 ) ) ;
#823 = VERTEX_POINT ( 'NONE', #96 ) ;
#824 = ADVANCED_FACE ( 'NONE', ( #1066 ), #523, .F. ) ;
#825 = ORIENTED_EDGE ( 'NONE', *, *, #43, .T. ) ;
#826 = DIRECTION ( 'NONE',  ( 0.000000000000000000, -1.000000000000000000, -0.000000000000000000 ) ) ;
#827 = CIRCLE ( 'NONE', #292, 5.600000000000000533 ) ;
#828 = DIRECTION ( 'NONE',  ( 0.000000000000000000, 0.000000000000000000, 1.000000000000000000 ) ) ;
#829 = ORIENTED_EDGE ( 'NONE', *, *, #196, .T. ) ;
#830 = EDGE_CURVE ( 'NONE', #497, #1079, #653, .T. ) ;
#831 = EDGE_CURVE ( 'NONE', #976, #765, #518, .T. ) ;
#832 = VECTOR ( 'NONE', #419, 1000.000000000000000 ) ;
#833 = ORIENTED_EDGE ( 'NONE', *, *, #209, .F. ) ;
#834 = VECTOR ( 'NONE', #402, 1000.000000000000000 ) ;
#835 = FACE_BOUND ( 'NONE', #681, .T. ) ;
#836 = DIRECTION ( 'NONE',  ( 0.000000000000000000, 1.000000000000000000, 0.000000000000000000 ) ) ;
#837 = ORIENTED_EDGE ( 'NONE', *, *, #244, .F. ) ;
#838 = LINE ( 'NONE', #1108, #298 ) ;
#839 = DIRECTION ( 'NONE',  ( 0.000000000000000000, 1.000000000000000000, 0.000000000000000000 ) ) ;
#840 = EDGE_CURVE ( 'NONE', #60, #858, #1007, .T. ) ;
#841 = CALENDAR_DATE ( 2026, 25, 8 ) ;
#842 = DIRECTION ( 'NONE',  ( 0.000000000000000000, -1.000000000000000000, -0.000000000000000000 ) ) ;
#843 = ADVANCED_FACE ( 'NONE', ( #533 ), #11, .T. ) ;
#844 = DIRECTION ( 'NONE',  ( 0.000000000000000000, 0.000000000000000000, -1.000000000000000000 ) ) ;
#845 = ORIENTED_EDGE ( 'NONE', *, *, #513, .F. ) ;
#846 = EDGE_CURVE ( 'NONE', #393, #1, #165, .T. ) ;
#847 = CARTESIAN_POINT ( 'NONE',  ( 0.000000000000000000, 0.000000000000000000, 0.000000000000000000 ) ) ;
#848 = CIRCLE ( 'NONE', #235, 5.600000000000000533 ) ;
#849 = FACE_BOUND ( 'NONE', #946, .T. ) ;
#850 = CARTESIAN_POINT ( 'NONE',  ( 20.00000000000000000, -1.000000000000000000, 22.00000000000000000 ) ) ;
#851 = ORIENTED_EDGE ( 'NONE', *, *, #146, .T. ) ;
#852 = CIRCLE ( 'NONE', #470, 5.600000000000000533 ) ;
#853 = AXIS2_PLACEMENT_3D ( 'NONE', #308, #32, #998 ) ;
#854 = CIRCLE ( 'NONE', #131, 1.599999999999999867 ) ;
#855 = DIRECTION ( 'NONE',  ( 0.000000000000000000, 0.000000000000000000, -1.000000000000000000 ) ) ;
#856 = DIRECTION ( 'NONE',  ( 0.000000000000000000, 0.000000000000000000, -1.000000000000000000 ) ) ;
#857 = EDGE_LOOP ( 'NONE', ( #293, #833 ) ) ;
#858 = VERTEX_POINT ( 'NONE', #865 ) ;
#859 = EDGE_CURVE ( 'NONE', #971, #977, #313, .T. ) ;
#860 = DIRECTION ( 'NONE',  ( 0.000000000000000000, 1.000000000000000000, 0.000000000000000000 ) ) ;
#861 = CYLINDRICAL_SURFACE ( 'NONE', #417, 1.600000000000004086 ) ;
#862 = VERTEX_POINT ( 'NONE', #877 ) ;
#863 = ORIENTED_EDGE ( 'NONE', *, *, #562, .F. ) ;
#864 = CARTESIAN_POINT ( 'NONE',  ( 86.00000000000000000, 1.000000000000000222, 3.399999999999999911 ) ) ;
#865 = CARTESIAN_POINT ( 'NONE',  ( -86.00000000000000000, 1.000000000000000222, 76.59999999999999432 ) ) ;
#866 = ORIENTED_EDGE ( 'NONE', *, *, #170, .F. ) ;
#867 = EDGE_LOOP ( 'NONE', ( #18, #1006 ) ) ;
#868 = CARTESIAN_POINT ( 'NONE',  ( 60.00000000000000000, 1.000000000000000222, 22.00000000000000000 ) ) ;
#869 = CIRCLE ( 'NONE', #126, 5.600000000000000533 ) ;
#870 = DIRECTION ( 'NONE',  ( 0.000000000000000000, -1.000000000000000000, -0.000000000000000000 ) ) ;
#871 = DIRECTION ( 'NONE',  ( 0.000000000000000000, 0.000000000000000000, 1.000000000000000000 ) ) ;
#872 = VECTOR ( 'NONE', #754, 1000.000000000000000 ) ;
#873 = ORIENTED_EDGE ( 'NONE', *, *, #1068, .T. ) ;
#874 = ORIENTED_EDGE ( 'NONE', *, *, #318, .T. ) ;
#875 = PERSON_AND_ORGANIZATION ( #432, #141 ) ;
#876 = DIRECTION ( 'NONE',  ( 0.000000000000000000, 0.000000000000000000, 1.000000000000000000 ) ) ;
#877 = CARTESIAN_POINT ( 'NONE',  ( 20.00000000000000000, 1.000000000000000222, 52.40000000000000568 ) ) ;
#878 = ORIENTED_EDGE ( 'NONE', *, *, #981, .F. ) ;
#879 = ADVANCED_FACE ( 'NONE', ( #359 ), #111, .F. ) ;
#880 = ADVANCED_BREP_SHAPE_REPRESENTATION ( 'UpperAudio_V04_2x4_TRS635', ( #550, #56 ), #1106 ) ;
#881 = EDGE_CURVE ( 'NONE', #606, #765, #597, .T. ) ;
#882 = CARTESIAN_POINT ( 'NONE',  ( 20.00000000000000000, 1.000000000000000222, 58.00000000000000000 ) ) ;
#883 = DIRECTION ( 'NONE',  ( 0.000000000000000000, -1.000000000000000000, -0.000000000000000000 ) ) ;
#884 = VERTEX_POINT ( 'NONE', #799 ) ;
#885 = ORIENTED_EDGE ( 'NONE', *, *, #771, .T. ) ;
#886 = LINE ( 'NONE', #782, #202 ) ;
#887 = AXIS2_PLACEMENT_3D ( 'NONE', #956, #712, #1071 ) ;
#888 = CARTESIAN_POINT ( 'NONE',  ( 0.000000000000000000, 0.000000000000000000, 80.00000000000000000 ) ) ;
#889 = ORIENTED_EDGE ( 'NONE', *, *, #444, .F. ) ;
#890 = AXIS2_PLACEMENT_3D ( 'NONE', #1003, #1095, #1075 ) ;
#891 = CALENDAR_DATE ( 2026, 25, 8 ) ;
#892 = DIRECTION ( 'NONE',  ( 0.000000000000000000, 1.000000000000000000, 0.000000000000000000 ) ) ;
#893 = EDGE_CURVE ( 'NONE', #312, #1032, #930, .T. ) ;
#894 = LINE ( 'NONE', #960, #242 ) ;
#895 = DIRECTION ( 'NONE',  ( 0.000000000000000000, 0.000000000000000000, 1.000000000000000000 ) ) ;
#896 = VERTEX_POINT ( 'NONE', #100 ) ;
#897 = DIRECTION ( 'NONE',  ( 0.000000000000000000, 0.000000000000000000, -1.000000000000000000 ) ) ;
#898 = CARTESIAN_POINT ( 'NONE',  ( -20.00000000000000000, -1.000000000000000000, 52.40000000000000568 ) ) ;
#899 = DIRECTION ( 'NONE',  ( 0.000000000000000000, 1.000000000000000000, 0.000000000000000000 ) ) ;
#900 = ORIENTED_EDGE ( 'NONE', *, *, #806, .F. ) ;
#901 = ORIENTED_EDGE ( 'NONE', *, *, #830, .F. ) ;
#902 = PERSON_AND_ORGANIZATION ( #432, #141 ) ;
#903 = CYLINDRICAL_SURFACE ( 'NONE', #912, 5.600000000000000533 ) ;
#904 = APPROVAL_PERSON_ORGANIZATION ( #67, #24, #1105 ) ;
#905 = LOCAL_TIME ( 20, 37, 36.00000000000000000, #143 ) ;
#906 = CARTESIAN_POINT ( 'NONE',  ( -20.00000000000000000, -1.399999999999999911, 16.39999999999999858 ) ) ;
#907 = DIRECTION ( 'NONE',  ( 0.000000000000000000, -1.000000000000000000, -0.000000000000000000 ) ) ;
#908 = ORIENTED_EDGE ( 'NONE', *, *, #9, .F. ) ;
#909 = VECTOR ( 'NONE', #808, 1000.000000000000000 ) ;
#910 = CLOSED_SHELL ( 'NONE', ( #690, #824, #659, #1086, #171, #937, #1017, #536, #398, #260, #879, #966, #843, #478, #592, #89, #526, #556, #80, #411, #480, #919, #1053, #1033, #648, #46, #158, #174, #1039, #714 ) ) ;
#911 = AXIS2_PLACEMENT_3D ( 'NONE', #711, #290, #545 ) ;
#912 = AXIS2_PLACEMENT_3D ( 'NONE', #199, #471, #389 ) ;
#913 = CC_DESIGN_PERSON_AND_ORGANIZATION_ASSIGNMENT ( #925, #93, ( #950 ) ) ;
#914 = DIRECTION ( 'NONE',  ( 0.000000000000000000, 0.000000000000000000, -1.000000000000000000 ) ) ;
#915 = CARTESIAN_POINT ( 'NONE',  ( 20.00000000000000000, -1.000000000000000000, 63.60000000000000142 ) ) ;
#916 = CARTESIAN_POINT ( 'NONE',  ( -20.00000000000000000, -1.000000000000000000, 58.00000000000000000 ) ) ;
#917 = EDGE_LOOP ( 'NONE', ( #424, #535, #548, #140 ) ) ;
#918 = CARTESIAN_POINT ( 'NONE',  ( -86.00000000000000000, -1.000000000000000000, 5.000000000000000000 ) ) ;
#919 = ADVANCED_FACE ( 'NONE', ( #1052 ), #273, .F. ) ;
#920 = DIRECTION ( 'NONE',  ( -0.000000000000000000, 1.000000000000000000, 0.000000000000000000 ) ) ;
#921 = ORIENTED_EDGE ( 'NONE', *, *, #794, .T. ) ;
#922 = ORIENTED_EDGE ( 'NONE', *, *, #342, .T. ) ;
#923 = DIRECTION ( 'NONE',  ( -0.000000000000000000, 1.000000000000000000, 0.000000000000000000 ) ) ;
#924 = CIRCLE ( 'NONE', #629, 5.600000000000000533 ) ;
#925 = PERSON_AND_ORGANIZATION ( #432, #141 ) ;
#926 = CC_DESIGN_SECURITY_CLASSIFICATION ( #236, ( #1037 ) ) ;
#927 = ORIENTED_EDGE ( 'NONE', *, *, #250, .T. ) ;
#928 = CARTESIAN_POINT ( 'NONE',  ( -20.00000000000000000, 1.000000000000000222, 52.40000000000000568 ) ) ;
#929 = CARTESIAN_POINT ( 'NONE',  ( 0.000000000000000000, 0.000000000000000000, 0.000000000000000000 ) ) ;
#930 = CIRCLE ( 'NONE', #431, 5.600000000000000533 ) ;
#931 = ORIENTED_EDGE ( 'NONE', *, *, #318, .F. ) ;
#932 = AXIS2_PLACEMENT_3D ( 'NONE', #81, #332, #855 ) ;
#933 = DIRECTION ( 'NONE',  ( 0.000000000000000000, -1.000000000000000000, -0.000000000000000000 ) ) ;
#934 = FACE_BOUND ( 'NONE', #555, .T. ) ;
#935 = CARTESIAN_POINT ( 'NONE',  ( 86.00000000000000000, -1.000000000000000000, 76.59999999999999432 ) ) ;
#936 = DIRECTION ( 'NONE',  ( 0.000000000000000000, 1.000000000000000000, 0.000000000000000000 ) ) ;
#937 = ADVANCED_FACE ( 'NONE', ( #619 ), #975, .F. ) ;
#938 = VERTEX_POINT ( 'NONE', #818 ) ;
#939 = APPROVAL_DATE_TIME ( #413, #225 ) ;
#940 = FACE_BOUND ( 'NONE', #718, .T. ) ;
#941 = CARTESIAN_POINT ( 'NONE',  ( 20.00000000000000000, -1.399999999999999911, 16.39999999999999858 ) ) ;
#942 = ORIENTED_EDGE ( 'NONE', *, *, #193, .F. ) ;
#943 = AXIS2_PLACEMENT_3D ( 'NONE', #1082, #315, #1011 ) ;
#944 = DIRECTION ( 'NONE',  ( 0.000000000000000000, 1.000000000000000000, 0.000000000000000000 ) ) ;
#945 = CARTESIAN_POINT ( 'NONE',  ( -60.00000000000000000, -1.000000000000000000, 63.60000000000000142 ) ) ;
#946 = EDGE_LOOP ( 'NONE', ( #1018, #117 ) ) ;
#947 = AXIS2_PLACEMENT_3D ( 'NONE', #529, #446, #1046 ) ;
#948 = AXIS2_PLACEMENT_3D ( 'NONE', #64, #121, #763 ) ;
#949 = VECTOR ( 'NONE', #364, 1000.000000000000000 ) ;
#950 = PRODUCT_DEFINITION ( '�', '', #1037, #217 ) ;
#951 = FACE_OUTER_BOUND ( 'NONE', #1083, .T. ) ;
#952 = DIRECTION ( 'NONE',  ( 0.000000000000000000, 1.000000000000000000, 0.000000000000000000 ) ) ;
#953 = EDGE_LOOP ( 'NONE', ( #889, #251 ) ) ;
#954 = EDGE_CURVE ( 'NONE', #774, #884, #139, .T. ) ;
#955 = CARTESIAN_POINT ( 'NONE',  ( 0.000000000000000000, 1.000000000000000000, 0.000000000000000000 ) ) ;
#956 = CARTESIAN_POINT ( 'NONE',  ( -20.00000000000000000, -1.399999999999999911, 22.00000000000000000 ) ) ;
#957 = ORIENTED_EDGE ( 'NONE', *, *, #603, .F. ) ;
#958 = ORIENTED_EDGE ( 'NONE', *, *, #1002, .F. ) ;
#959 = PRODUCT_DEFINITION_SHAPE ( 'NONE', 'NONE',  #950 ) ;
#960 = CARTESIAN_POINT ( 'NONE',  ( 60.00000000000000000, -1.399999999999999911, 16.39999999999999858 ) ) ;
#961 = DIRECTION ( 'NONE',  ( 0.000000000000000000, -1.000000000000000000, -0.000000000000000000 ) ) ;
#962 = VERTEX_POINT ( 'NONE', #227 ) ;
#963 = VERTEX_POINT ( 'NONE', #59 ) ;
#964 = CC_DESIGN_PERSON_AND_ORGANIZATION_ASSIGNMENT ( #875, #151, ( #5 ) ) ;
#965 = VECTOR ( 'NONE', #372, 1000.000000000000000 ) ;
#966 = ADVANCED_FACE ( 'NONE', ( #381 ), #52, .F. ) ;
#967 = FACE_OUTER_BOUND ( 'NONE', #773, .T. ) ;
#968 = CIRCLE ( 'NONE', #948, 5.600000000000000533 ) ;
#969 = DIRECTION ( 'NONE',  ( 1.000000000000000000, 0.000000000000000000, -0.000000000000000000 ) ) ;
#970 = AXIS2_PLACEMENT_3D ( 'NONE', #821, #133, #645 ) ;
#971 = VERTEX_POINT ( 'NONE', #810 ) ;
#972 = EDGE_CURVE ( 'NONE', #113, #210, #403, .T. ) ;
#973 = CALENDAR_DATE ( 2026, 25, 8 ) ;
#974 = CARTESIAN_POINT ( 'NONE',  ( -60.00000000000000000, -1.399999999999999911, 27.59999999999999787 ) ) ;
#975 = CYLINDRICAL_SURFACE ( 'NONE', #560, 5.600000000000000533 ) ;
#976 = VERTEX_POINT ( 'NONE', #999 ) ;
#977 = VERTEX_POINT ( 'NONE', #573 ) ;
#978 = CARTESIAN_POINT ( 'NONE',  ( 86.00000000000000000, -1.399999999999999911, 3.400000000000000355 ) ) ;
#979 = CARTESIAN_POINT ( 'NONE',  ( 60.00000000000000000, 1.000000000000000222, 52.40000000000000568 ) ) ;
#980 = ORIENTED_EDGE ( 'NONE', *, *, #972, .F. ) ;
#981 = EDGE_CURVE ( 'NONE', #884, #486, #827, .T. ) ;
#982 = APPROVAL_STATUS ( 'not_yet_approved' ) ;
#983 = CARTESIAN_POINT ( 'NONE',  ( -93.00000000000000000, 1.000000000000000000, 0.000000000000000000 ) ) ;
#984 = DIRECTION ( 'NONE',  ( 0.000000000000000000, 1.000000000000000000, 0.000000000000000000 ) ) ;
#985 = AXIS2_PLACEMENT_3D ( 'NONE', #125, #725, #815 ) ;
#986 = DIRECTION ( 'NONE',  ( 0.000000000000000000, 1.000000000000000000, 0.000000000000000000 ) ) ;
#987 = AXIS2_PLACEMENT_3D ( 'NONE', #916, #739, #317 ) ;
#988 = EDGE_LOOP ( 'NONE', ( #136, #339, #465, #816 ) ) ;
#989 = CIRCLE ( 'NONE', #370, 1.600000000000004086 ) ;
#990 = EDGE_LOOP ( 'NONE', ( #1121, #84, #601, #54 ) ) ;
#991 = DIRECTION ( 'NONE',  ( 0.000000000000000000, 0.000000000000000000, 1.000000000000000000 ) ) ;
#992 = CARTESIAN_POINT ( 'NONE',  ( 60.00000000000000000, -1.399999999999999911, 27.59999999999999787 ) ) ;
#993 = CARTESIAN_POINT ( 'NONE',  ( -60.00000000000000000, -1.399999999999999911, 52.40000000000000568 ) ) ;
#994 = ORIENTED_EDGE ( 'NONE', *, *, #1002, .T. ) ;
#995 = ORIENTED_EDGE ( 'NONE', *, *, #859, .F. ) ;
#996 = PERSON_AND_ORGANIZATION ( #432, #141 ) ;
#997 = FACE_OUTER_BOUND ( 'NONE', #175, .T. ) ;
#998 = DIRECTION ( 'NONE',  ( 0.000000000000000000, 0.000000000000000000, -1.000000000000000000 ) ) ;
#999 = CARTESIAN_POINT ( 'NONE',  ( 60.00000000000000000, -1.000000000000000000, 52.40000000000000568 ) ) ;
#1000 = ORIENTED_EDGE ( 'NONE', *, *, #1090, .F. ) ;
#1001 = ORIENTED_EDGE ( 'NONE', *, *, #250, .F. ) ;
#1002 = EDGE_CURVE ( 'NONE', #586, #858, #464, .T. ) ;
#1003 = CARTESIAN_POINT ( 'NONE',  ( -60.00000000000000000, 1.000000000000000222, 22.00000000000000000 ) ) ;
#1004 = DIRECTION ( 'NONE',  ( 0.000000000000000000, 1.000000000000000000, 0.000000000000000000 ) ) ;
#1005 = EDGE_CURVE ( 'NONE', #486, #884, #848, .T. ) ;
#1006 = ORIENTED_EDGE ( 'NONE', *, *, #366, .F. ) ;
#1007 = CIRCLE ( 'NONE', #20, 1.600000000000004086 ) ;
#1008 = AXIS2_PLACEMENT_3D ( 'NONE', #21, #870, #95 ) ;
#1009 = EDGE_CURVE ( 'NONE', #675, #1, #203, .T. ) ;
#1010 = DIRECTION ( 'NONE',  ( 0.000000000000000000, 1.000000000000000000, 0.000000000000000000 ) ) ;
#1011 = DIRECTION ( 'NONE',  ( 0.000000000000000000, 0.000000000000000000, 1.000000000000000000 ) ) ;
#1012 = ORIENTED_EDGE ( 'NONE', *, *, #279, .F. ) ;
#1013 = ORIENTED_EDGE ( 'NONE', *, *, #112, .F. ) ;
#1014 = FACE_BOUND ( 'NONE', #857, .T. ) ;
#1015 = ORIENTED_EDGE ( 'NONE', *, *, #231, .T. ) ;
#1016 = LINE ( 'NONE', #466, #909 ) ;
#1017 = ADVANCED_FACE ( 'NONE', ( #651 ), #804, .F. ) ;
#1018 = ORIENTED_EDGE ( 'NONE', *, *, #76, .F. ) ;
#1019 = EDGE_CURVE ( 'NONE', #519, #689, #924, .T. ) ;
#1020 = DATE_TIME_ROLE ( 'creation_date' ) ;
#1021 = FACE_BOUND ( 'NONE', #460, .T. ) ;
#1022 = DIRECTION ( 'NONE',  ( 0.000000000000000000, 1.000000000000000000, 0.000000000000000000 ) ) ;
#1023 = PLANE ( 'NONE',  #278 ) ;
#1024 = AXIS2_PLACEMENT_3D ( 'NONE', #1102, #35, #579 ) ;
#1025 = AXIS2_PLACEMENT_3D ( 'NONE', #1114, #672, #246 ) ;
#1026 = CYLINDRICAL_SURFACE ( 'NONE', #543, 5.600000000000000533 ) ;
#1027 = CARTESIAN_POINT ( 'NONE',  ( 20.00000000000000000, -1.399999999999999911, 58.00000000000000000 ) ) ;
#1028 = ORIENTED_EDGE ( 'NONE', *, *, #194, .F. ) ;
#1029 = ORIENTED_EDGE ( 'NONE', *, *, #575, .T. ) ;
#1030 = LINE ( 'NONE', #1119, #872 ) ;
#1031 = CARTESIAN_POINT ( 'NONE',  ( -93.00000000000000000, 0.000000000000000000, 80.00000000000000000 ) ) ;
#1032 = VERTEX_POINT ( 'NONE', #309 ) ;
#1033 = ADVANCED_FACE ( 'NONE', ( #116 ), #221, .F. ) ;
#1034 = CIRCLE ( 'NONE', #55, 5.600000000000000533 ) ;
#1035 = DIRECTION ( 'NONE',  ( 0.000000000000000000, 0.000000000000000000, 1.000000000000000000 ) ) ;
#1036 = FACE_OUTER_BOUND ( 'NONE', #441, .T. ) ;
#1037 = PRODUCT_DEFINITION_FORMATION_WITH_SPECIFIED_SOURCE ( '�', '', #5, .NOT_KNOWN. ) ;
#1038 = ORIENTED_EDGE ( 'NONE', *, *, #846, .T. ) ;
#1039 = ADVANCED_FACE ( 'NONE', ( #391 ), #1092, .F. ) ;
#1040 = CIRCLE ( 'NONE', #300, 1.600000000000004086 ) ;
#1041 = FACE_BOUND ( 'NONE', #176, .T. ) ;
#1042 = DIRECTION ( 'NONE',  ( 0.000000000000000000, 1.000000000000000000, 0.000000000000000000 ) ) ;
#1043 = VERTEX_POINT ( 'NONE', #481 ) ;
#1044 = ORIENTED_EDGE ( 'NONE', *, *, #1097, .T. ) ;
#1045 = CYLINDRICAL_SURFACE ( 'NONE', #688, 5.600000000000000533 ) ;
#1046 = DIRECTION ( 'NONE',  ( 0.000000000000000000, 0.000000000000000000, -1.000000000000000000 ) ) ;
#1047 = ORIENTED_EDGE ( 'NONE', *, *, #161, .T. ) ;
#1048 = ORIENTED_EDGE ( 'NONE', *, *, #761, .T. ) ;
#1049 = EDGE_CURVE ( 'NONE', #382, #144, #640, .T. ) ;
#1050 = CARTESIAN_POINT ( 'NONE',  ( 86.00000000000000000, -1.399999999999999911, 76.59999999999999432 ) ) ;
#1051 = DIRECTION ( 'NONE',  ( 0.000000000000000000, 1.000000000000000000, 0.000000000000000000 ) ) ;
#1052 = FACE_OUTER_BOUND ( 'NONE', #77, .T. ) ;
#1053 = ADVANCED_FACE ( 'NONE', ( #387 ), #728, .F. ) ;
#1054 = AXIS2_PLACEMENT_3D ( 'NONE', #553, #732, #828 ) ;
#1055 = EDGE_LOOP ( 'NONE', ( #845, #574 ) ) ;
#1056 = VECTOR ( 'NONE', #430, 1000.000000000000000 ) ;
#1057 = AXIS2_PLACEMENT_3D ( 'NONE', #850, #343, #856 ) ;
#1058 = VECTOR ( 'NONE', #860, 1000.000000000000000 ) ;
#1059 = DIRECTION ( 'NONE',  ( -0.000000000000000000, 1.000000000000000000, 0.000000000000000000 ) ) ;
#1060 = VECTOR ( 'NONE', #1070, 1000.000000000000000 ) ;
#1061 = DIRECTION ( 'NONE',  ( 0.000000000000000000, 0.000000000000000000, 1.000000000000000000 ) ) ;
#1062 = CIRCLE ( 'NONE', #710, 1.599999999999999867 ) ;
#1063 = ORIENTED_EDGE ( 'NONE', *, *, #727, .T. ) ;
#1064 = DATE_AND_TIME ( #973, #538 ) ;
#1065 = CYLINDRICAL_SURFACE ( 'NONE', #149, 1.600000000000004086 ) ;
#1066 = FACE_OUTER_BOUND ( 'NONE', #192, .T. ) ;
#1067 = ORIENTED_EDGE ( 'NONE', *, *, #442, .T. ) ;
#1068 = EDGE_CURVE ( 'NONE', #701, #774, #736, .T. ) ;
#1069 = PLANE ( 'NONE',  #435 ) ;
#1070 = DIRECTION ( 'NONE',  ( 0.000000000000000000, 0.000000000000000000, 1.000000000000000000 ) ) ;
#1071 = DIRECTION ( 'NONE',  ( 0.000000000000000000, 0.000000000000000000, 1.000000000000000000 ) ) ;
#1072 = ORIENTED_EDGE ( 'NONE', *, *, #831, .T. ) ;
#1073 = PERSON_AND_ORGANIZATION ( #432, #141 ) ;
#1074 = LINE ( 'NONE', #379, #218 ) ;
#1075 = DIRECTION ( 'NONE',  ( 0.000000000000000000, 0.000000000000000000, 1.000000000000000000 ) ) ;
#1076 = CIRCLE ( 'NONE', #580, 1.599999999999999867 ) ;
#1077 = DIRECTION ( 'NONE',  ( 0.000000000000000000, 0.000000000000000000, 1.000000000000000000 ) ) ;
#1078 = VERTEX_POINT ( 'NONE', #561 ) ;
#1079 = VERTEX_POINT ( 'NONE', #915 ) ;
#1080 = DIRECTION ( 'NONE',  ( -0.000000000000000000, 0.000000000000000000, -1.000000000000000000 ) ) ;
#1081 = CARTESIAN_POINT ( 'NONE',  ( 86.00000000000000000, 1.000000000000000222, 76.59999999999999432 ) ) ;
#1082 = CARTESIAN_POINT ( 'NONE',  ( -60.00000000000000000, -1.399999999999999911, 58.00000000000000000 ) ) ;
#1083 = EDGE_LOOP ( 'NONE', ( #609, #531, #520, #1015 ) ) ;
#1084 = APPLICATION_CONTEXT ( 'configuration controlled 3d designs of mechanical parts and assemblies' ) ;
#1085 = DIRECTION ( 'NONE',  ( -1.000000000000000000, -0.000000000000000000, 0.000000000000000000 ) ) ;
#1086 = ADVANCED_FACE ( 'NONE', ( #2 ), #698, .F. ) ;
#1087 = FACE_BOUND ( 'NONE', #319, .T. ) ;
#1088 = DIRECTION ( 'NONE',  ( -0.000000000000000000, 1.000000000000000000, 0.000000000000000000 ) ) ;
#1089 = ORIENTED_EDGE ( 'NONE', *, *, #296, .F. ) ;
#1090 = EDGE_CURVE ( 'NONE', #1079, #497, #1034, .T. ) ;
#1091 = DIRECTION ( 'NONE',  ( 0.000000000000000000, 0.000000000000000000, -1.000000000000000000 ) ) ;
#1092 = CYLINDRICAL_SURFACE ( 'NONE', #17, 1.599999999999999867 ) ;
#1093 = VERTEX_POINT ( 'NONE', #661 ) ;
#1094 = ORIENTED_EDGE ( 'NONE', *, *, #284, .T. ) ;
#1095 = DIRECTION ( 'NONE',  ( -0.000000000000000000, 1.000000000000000000, 0.000000000000000000 ) ) ;
#1096 = ORIENTED_EDGE ( 'NONE', *, *, #893, .T. ) ;
#1097 = EDGE_CURVE ( 'NONE', #594, #606, #407, .T. ) ;
#1098 = FACE_BOUND ( 'NONE', #641, .T. ) ;
#1099 = CARTESIAN_POINT ( 'NONE',  ( 60.00000000000000000, -1.399999999999999911, 63.60000000000000142 ) ) ;
#1100 = ORIENTED_EDGE ( 'NONE', *, *, #137, .T. ) ;
#1101 = CARTESIAN_POINT ( 'NONE',  ( -20.00000000000000000, -1.399999999999999911, 52.40000000000000568 ) ) ;
#1102 = CARTESIAN_POINT ( 'NONE',  ( -60.00000000000000000, 1.000000000000000222, 22.00000000000000000 ) ) ;
#1103 = ORIENTED_EDGE ( 'NONE', *, *, #296, .T. ) ;
#1104 = VECTOR ( 'NONE', #899, 1000.000000000000000 ) ;
#1105 = APPROVAL_ROLE ( '' ) ;
#1106 =( GEOMETRIC_REPRESENTATION_CONTEXT ( 3 ) GLOBAL_UNCERTAINTY_ASSIGNED_CONTEXT ( ( #36 ) ) GLOBAL_UNIT_ASSIGNED_CONTEXT ( ( #184, #443, #492 ) ) REPRESENTATION_CONTEXT ( 'NONE', 'WORKASPACE' ) );
#1107 = CARTESIAN_POINT ( 'NONE',  ( -86.00000000000000000, -1.000000000000000000, 6.599999999999999645 ) ) ;
#1108 = CARTESIAN_POINT ( 'NONE',  ( -86.00000000000000000, -1.399999999999999911, 6.599999999999999645 ) ) ;
#1109 = AXIS2_PLACEMENT_3D ( 'NONE', #717, #961, #354 ) ;
#1110 = ORIENTED_EDGE ( 'NONE', *, *, #457, .F. ) ;
#1111 = CIRCLE ( 'NONE', #987, 5.600000000000000533 ) ;
#1112 = CIRCLE ( 'NONE', #277, 1.600000000000004086 ) ;
#1113 = AXIS2_PLACEMENT_3D ( 'NONE', #598, #337, #252 ) ;
#1114 = CARTESIAN_POINT ( 'NONE',  ( -20.00000000000000000, -1.000000000000000000, 22.00000000000000000 ) ) ;
#1115 = DIRECTION ( 'NONE',  ( -0.000000000000000000, 1.000000000000000000, 0.000000000000000000 ) ) ;
#1116 = ORIENTED_EDGE ( 'NONE', *, *, #58, .T. ) ;
#1117 = EDGE_CURVE ( 'NONE', #662, #461, #245, .T. ) ;
#1118 = EDGE_CURVE ( 'NONE', #1093, #408, #294, .T. ) ;
#1119 = CARTESIAN_POINT ( 'NONE',  ( -86.00000000000000000, -1.399999999999999911, 3.400000000000000355 ) ) ;
#1120 = CARTESIAN_POINT ( 'NONE',  ( -60.00000000000000000, -1.399999999999999911, 16.39999999999999858 ) ) ;
#1121 = ORIENTED_EDGE ( 'NONE', *, *, #547, .T. ) ;
#1122 = EDGE_CURVE ( 'NONE', #976, #594, #162, .T. ) ;
#1123 = CYLINDRICAL_SURFACE ( 'NONE', #220, 5.600000000000000533 ) ;
#1124 = CARTESIAN_POINT ( 'NONE',  ( -86.00000000000000000, -1.000000000000000000, 5.000000000000000000 ) ) ;
#1125 = AXIS2_PLACEMENT_3D ( 'NONE', #868, #237, #775 ) ;
ENDSEC;
END-ISO-10303-21;
